<svg width="1440" height="974" viewBox="0 0 1440 974" fill="none" xmlns="http://www.w3.org/2000/svg">
<g clip-path="url(#clip0_420_6485)">
<rect width="1440" height="974" fill="black"/>
<rect x="-1" y="230" width="1440" height="742" fill="#0BC1B6" fill-opacity="0.8"/>
<g filter="url(#filter0_f_420_6485)">
<path fill-rule="evenodd" clip-rule="evenodd" d="M1622 0H-180V377.015C-181.326 385.273 -182 393.604 -182 402C-182 607.45 221.391 774 719 774C1206.07 774 1602.87 614.43 1619.46 415H1622V0Z" fill="black"/>
</g>
<g filter="url(#filter1_f_420_6485)">
<circle cx="5.37751" cy="5.37751" r="5.37751" transform="matrix(-1 0 0 1 1253.07 369.891)" fill="white" fill-opacity="0.3"/>
</g>
<g filter="url(#filter2_f_420_6485)">
<circle cx="4.70532" cy="4.70532" r="4.70532" transform="matrix(-1 0 0 1 1252.4 370.563)" fill="#0BC1B6"/>
</g>
<g filter="url(#filter3_f_420_6485)">
<circle cx="5.37751" cy="5.37751" r="5.37751" transform="matrix(-1 0 0 1 1102.5 324.854)" fill="white" fill-opacity="0.3"/>
</g>
<g filter="url(#filter4_f_420_6485)">
<circle cx="4.70532" cy="4.70532" r="4.70532" transform="matrix(-1 0 0 1 1101.83 325.527)" fill="#0BC1B6"/>
</g>
<g filter="url(#filter5_f_420_6485)">
<circle cx="5.37751" cy="5.37751" r="5.37751" transform="matrix(-1 0 0 1 863.872 302)" fill="white" fill-opacity="0.3"/>
</g>
<g filter="url(#filter6_f_420_6485)">
<circle cx="4.70532" cy="4.70532" r="4.70532" transform="matrix(-1 0 0 1 863.2 302.672)" fill="#0BC1B6"/>
</g>
<g filter="url(#filter7_f_420_6485)">
<circle cx="10.1021" cy="10.1021" r="10.1021" transform="matrix(-1 0 0 1 713.321 523.803)" fill="white" fill-opacity="0.3"/>
</g>
<g filter="url(#filter8_f_420_6485)">
<circle cx="8.83934" cy="8.83934" r="8.83934" transform="matrix(-1 0 0 1 712.058 525.065)" fill="#0BC1B6"/>
</g>
<g filter="url(#filter9_f_420_6485)">
<circle cx="5.37751" cy="5.37751" r="5.37751" transform="matrix(-1 0 0 1 804.047 720.773)" fill="white" fill-opacity="0.3"/>
</g>
<g filter="url(#filter10_f_420_6485)">
<circle cx="4.70532" cy="4.70532" r="4.70532" transform="matrix(-1 0 0 1 803.375 721.446)" fill="#0BC1B6"/>
</g>
<g filter="url(#filter11_f_420_6485)">
<circle cx="5.37751" cy="5.37751" r="5.37751" transform="matrix(-1 0 0 1 993.604 771.188)" fill="white" fill-opacity="0.3"/>
</g>
<g filter="url(#filter12_f_420_6485)">
<circle cx="4.70532" cy="4.70532" r="4.70532" transform="matrix(-1 0 0 1 992.933 771.86)" fill="#0BC1B6"/>
</g>
<g filter="url(#filter13_f_420_6485)">
<circle cx="5.37751" cy="5.37751" r="5.37751" transform="matrix(-1 0 0 1 1089.05 701.952)" fill="white" fill-opacity="0.3"/>
</g>
<g filter="url(#filter14_f_420_6485)">
<circle cx="4.70532" cy="4.70532" r="4.70532" transform="matrix(-1 0 0 1 1088.38 702.625)" fill="#0BC1B6"/>
</g>
<g filter="url(#filter15_f_420_6485)">
<circle cx="5.37751" cy="5.37751" r="5.37751" transform="matrix(-1 0 0 1 1089.05 593.73)" fill="white" fill-opacity="0.3"/>
</g>
<g filter="url(#filter16_f_420_6485)">
<circle cx="4.70532" cy="4.70532" r="4.70532" transform="matrix(-1 0 0 1 1088.38 594.402)" fill="#0BC1B6"/>
</g>
<g filter="url(#filter17_f_420_6485)">
<circle cx="5.37751" cy="5.37751" r="5.37751" transform="matrix(-1 0 0 1 1029.23 612.551)" fill="white" fill-opacity="0.3"/>
</g>
<g filter="url(#filter18_f_420_6485)">
<circle cx="4.70532" cy="4.70532" r="4.70532" transform="matrix(-1 0 0 1 1028.56 613.223)" fill="#0BC1B6"/>
</g>
<g filter="url(#filter19_f_420_6485)">
<circle cx="5.37751" cy="5.37751" r="5.37751" transform="matrix(-1 0 0 1 1017.8 671.704)" fill="white" fill-opacity="0.3"/>
</g>
<g filter="url(#filter20_f_420_6485)">
<circle cx="4.70532" cy="4.70532" r="4.70532" transform="matrix(-1 0 0 1 1017.13 672.376)" fill="#0BC1B6"/>
</g>
<g filter="url(#filter21_f_420_6485)">
<circle cx="5.37751" cy="5.37751" r="5.37751" transform="matrix(-1 0 0 1 945.207 693.886)" fill="white" fill-opacity="0.3"/>
</g>
<g filter="url(#filter22_f_420_6485)">
<circle cx="4.70532" cy="4.70532" r="4.70532" transform="matrix(-1 0 0 1 944.534 694.558)" fill="#0BC1B6"/>
</g>
<g filter="url(#filter23_f_420_6485)">
<circle cx="5.37751" cy="5.37751" r="5.37751" transform="matrix(-1 0 0 1 856.478 630.7)" fill="white" fill-opacity="0.3"/>
</g>
<g filter="url(#filter24_f_420_6485)">
<circle cx="4.70532" cy="4.70532" r="4.70532" transform="matrix(-1 0 0 1 855.805 631.372)" fill="#0BC1B6"/>
</g>
<g filter="url(#filter25_f_420_6485)">
<circle cx="5.37751" cy="5.37751" r="5.37751" transform="matrix(-1 0 0 1 852.444 516.428)" fill="white" fill-opacity="0.3"/>
</g>
<g filter="url(#filter26_f_420_6485)">
<circle cx="4.70532" cy="4.70532" r="4.70532" transform="matrix(-1 0 0 1 851.772 517.101)" fill="#0BC1B6"/>
</g>
<g filter="url(#filter27_f_420_6485)">
<circle cx="5.37751" cy="5.37751" r="5.37751" transform="matrix(-1 0 0 1 1001.67 459.292)" fill="white" fill-opacity="0.3"/>
</g>
<g filter="url(#filter28_f_420_6485)">
<circle cx="4.70532" cy="4.70532" r="4.70532" transform="matrix(-1 0 0 1 1001 459.964)" fill="#0BC1B6"/>
</g>
<g filter="url(#filter29_f_420_6485)">
<circle cx="5.37751" cy="5.37751" r="5.37751" transform="matrix(-1 0 0 1 1046.04 548.693)" fill="white" fill-opacity="0.3"/>
</g>
<g filter="url(#filter30_f_420_6485)">
<circle cx="4.70532" cy="4.70532" r="4.70532" transform="matrix(-1 0 0 1 1045.36 549.366)" fill="#0BC1B6"/>
</g>
<g filter="url(#filter31_f_420_6485)">
<circle cx="5.37751" cy="5.37751" r="5.37751" transform="matrix(-1 0 0 1 1407 642.127)" fill="white" fill-opacity="0.3"/>
</g>
<g filter="url(#filter32_f_420_6485)">
<circle cx="4.70532" cy="4.70532" r="4.70532" transform="matrix(-1 0 0 1 1406.33 642.8)" fill="#0BC1B6"/>
</g>
<g filter="url(#filter33_f_420_6485)">
<circle cx="5.37751" cy="5.37751" r="5.37751" transform="matrix(-1 0 0 1 1355.91 761.777)" fill="white" fill-opacity="0.3"/>
</g>
<g filter="url(#filter34_f_420_6485)">
<circle cx="4.70532" cy="4.70532" r="4.70532" transform="matrix(-1 0 0 1 1355.24 762.449)" fill="#0BC1B6"/>
</g>
<g filter="url(#filter35_f_420_6485)">
<circle cx="5.37751" cy="5.37751" r="5.37751" transform="matrix(-1 0 0 1 1207.36 732.873)" fill="white" fill-opacity="0.3"/>
</g>
<g filter="url(#filter36_f_420_6485)">
<circle cx="4.70532" cy="4.70532" r="4.70532" transform="matrix(-1 0 0 1 1206.69 733.545)" fill="#0BC1B6"/>
</g>
<g filter="url(#filter37_f_420_6485)">
<circle cx="5.37751" cy="5.37751" r="5.37751" transform="matrix(-1 0 0 1 975.755 964)" fill="white" fill-opacity="0.3"/>
</g>
<g filter="url(#filter38_f_420_6485)">
<circle cx="4.70532" cy="4.70532" r="4.70532" transform="matrix(-1 0 0 1 975.083 964.672)" fill="#0BC1B6"/>
</g>
<g filter="url(#filter39_f_420_6485)">
<circle cx="2.68875" cy="2.68875" r="2.68875" transform="matrix(-1 0 0 1 1099.81 327.543)" fill="white"/>
</g>
<g filter="url(#filter40_f_420_6485)">
<circle cx="2.68875" cy="2.68875" r="2.68875" transform="matrix(-1 0 0 1 1250.38 372.58)" fill="white"/>
</g>
<g filter="url(#filter41_f_420_6485)">
<circle cx="2.68875" cy="2.68875" r="2.68875" transform="matrix(-1 0 0 1 861.183 304.688)" fill="white"/>
</g>
<g filter="url(#filter42_f_420_6485)">
<circle cx="2.68875" cy="2.68875" r="2.68875" transform="matrix(-1 0 0 1 801.358 723.462)" fill="white"/>
</g>
<g filter="url(#filter43_f_420_6485)">
<circle cx="5.32111" cy="5.32111" r="5.32111" transform="matrix(-1 0 0 1 708.483 528.389)" fill="white"/>
</g>
<g filter="url(#filter44_f_420_6485)">
<circle cx="2.68875" cy="2.68875" r="2.68875" transform="matrix(-1 0 0 1 990.916 773.876)" fill="white"/>
</g>
<g filter="url(#filter45_f_420_6485)">
<circle cx="2.68875" cy="2.68875" r="2.68875" transform="matrix(-1 0 0 1 1086.37 704.641)" fill="white"/>
</g>
<g filter="url(#filter46_f_420_6485)">
<circle cx="2.68875" cy="2.68875" r="2.68875" transform="matrix(-1 0 0 1 1086.37 596.418)" fill="white"/>
</g>
<g filter="url(#filter47_f_420_6485)">
<circle cx="2.68875" cy="2.68875" r="2.68875" transform="matrix(-1 0 0 1 1026.54 615.24)" fill="white"/>
</g>
<g filter="url(#filter48_f_420_6485)">
<circle cx="2.68875" cy="2.68875" r="2.68875" transform="matrix(-1 0 0 1 942.518 696.575)" fill="white"/>
</g>
<g filter="url(#filter49_f_420_6485)">
<circle cx="2.68875" cy="2.68875" r="2.68875" transform="matrix(-1 0 0 1 1015.11 674.393)" fill="white"/>
</g>
<g filter="url(#filter50_f_420_6485)">
<circle cx="2.68875" cy="2.68875" r="2.68875" transform="matrix(-1 0 0 1 853.789 633.389)" fill="white"/>
</g>
<g filter="url(#filter51_f_420_6485)">
<circle cx="2.68875" cy="2.68875" r="2.68875" transform="matrix(-1 0 0 1 849.756 519.117)" fill="white"/>
</g>
<g filter="url(#filter52_f_420_6485)">
<circle cx="2.68875" cy="2.68875" r="2.68875" transform="matrix(-1 0 0 1 1043.35 551.382)" fill="white"/>
</g>
<g filter="url(#filter53_f_420_6485)">
<circle cx="2.68875" cy="2.68875" r="2.68875" transform="matrix(-1 0 0 1 998.981 461.98)" fill="white"/>
</g>
<g filter="url(#filter54_f_420_6485)">
<circle cx="2.68875" cy="2.68875" r="2.68875" transform="matrix(-1 0 0 1 1404.31 644.816)" fill="white"/>
</g>
<g filter="url(#filter55_f_420_6485)">
<circle cx="2.68875" cy="2.68875" r="2.68875" transform="matrix(-1 0 0 1 1353.22 764.466)" fill="white"/>
</g>
<g filter="url(#filter56_f_420_6485)">
<circle cx="2.68875" cy="2.68875" r="2.68875" transform="matrix(-1 0 0 1 1204.67 735.562)" fill="white"/>
</g>
<g filter="url(#filter57_f_420_6485)">
<circle cx="2.68875" cy="2.68875" r="2.68875" transform="matrix(-1 0 0 1 973.066 966.688)" fill="white"/>
</g>
<path d="M1247.64 374.662L1096.93 330.585" stroke="url(#paint0_linear_420_6485)"/>
<path d="M1096.93 330.585L858.773 307.125" stroke="url(#paint1_linear_420_6485)"/>
<path d="M1202.15 737.941L961 979.087" stroke="url(#paint2_linear_420_6485)"/>
<path d="M1202.15 737.941L1350.73 767.089" stroke="url(#paint3_linear_420_6485)"/>
<path d="M1350.73 767.089L1401.91 647.655" stroke="url(#paint4_linear_420_6485)"/>
<path d="M1401.91 647.655L1247.64 374.662" stroke="url(#paint5_linear_420_6485)"/>
<path d="M858.773 307.125L703.082 533.197" stroke="url(#paint6_linear_420_6485)"/>
<path d="M703.082 533.908L798.345 725.856" stroke="url(#paint7_linear_420_6485)"/>
<path d="M799.056 725.855L988.16 776.331" stroke="url(#paint8_linear_420_6485)"/>
<path d="M988.16 776.331L1083.42 707.372" stroke="url(#paint9_linear_420_6485)"/>
<path d="M1083.42 707.372V598.602" stroke="url(#paint10_linear_420_6485)"/>
<path d="M1083.42 599.312L1022.99 617.796" stroke="url(#paint11_linear_420_6485)"/>
<path d="M1023 617.796L1012.33 677.513" stroke="url(#paint12_linear_420_6485)"/>
<path d="M939.817 699.552L1012.33 676.802" stroke="url(#paint13_linear_420_6485)"/>
<path d="M939.817 699.551L850.953 636.28" stroke="url(#paint14_linear_420_6485)"/>
<path d="M850.953 636.28L846.687 521.111" stroke="url(#paint15_linear_420_6485)"/>
<path d="M846.688 521.111L996.691 464.238" stroke="url(#paint16_linear_420_6485)"/>
<path d="M996.691 464.238L1040.77 553.813" stroke="url(#paint17_linear_420_6485)"/>
<path d="M-19.7002 550.95L-25.4803 550.95M-14.1494 552.051L-19.746 552.051M-25.5261 552.051L-38.7378 552.051L-38.7378 533.289L-38.7378 514.526L-25.5261 514.526M-25.5261 552.097L-25.5261 533.335L-25.5261 514.572M-38.7378 549.161L-51.3532 549.161L-51.3532 533.381L-51.3532 517.6L-38.7378 517.6M-34.655 552.189L-38.7378 552.189M-141.954 552.189L-51.3532 552.189L-51.3532 549.207M-19.7919 515.719L-25.572 515.719M-14.2412 514.618L-19.8378 514.618M-34.7009 514.618L-38.7837 514.618M-142 514.618L-51.399 514.618L-51.399 517.6M37 533.243L37 536.133L16.4485 547.969L16.4485 552.005L-19.746 552.005L-19.746 533.243L-19.746 514.481L16.4485 514.481L16.4485 518.518L37 530.353L37 533.243Z" stroke="#0BC1B6" stroke-miterlimit="22.9256"/>
<path d="M37 533.48H704" stroke="#0BC1B6"/>
</g>
<defs>
<filter id="filter0_f_420_6485" x="-413" y="-231" width="2266" height="1236" filterUnits="userSpaceOnUse" color-interpolation-filters="sRGB">
<feFlood flood-opacity="0" result="BackgroundImageFix"/>
<feBlend mode="normal" in="SourceGraphic" in2="BackgroundImageFix" result="shape"/>
<feGaussianBlur stdDeviation="115.5" result="effect1_foregroundBlur_420_6485"/>
</filter>
<filter id="filter1_f_420_6485" x="1218.31" y="345.891" width="58.7549" height="58.7549" filterUnits="userSpaceOnUse" color-interpolation-filters="sRGB">
<feFlood flood-opacity="0" result="BackgroundImageFix"/>
<feBlend mode="normal" in="SourceGraphic" in2="BackgroundImageFix" result="shape"/>
<feGaussianBlur stdDeviation="12" result="effect1_foregroundBlur_420_6485"/>
</filter>
<filter id="filter2_f_420_6485" x="1228.99" y="356.563" width="37.4102" height="37.4106" filterUnits="userSpaceOnUse" color-interpolation-filters="sRGB">
<feFlood flood-opacity="0" result="BackgroundImageFix"/>
<feBlend mode="normal" in="SourceGraphic" in2="BackgroundImageFix" result="shape"/>
<feGaussianBlur stdDeviation="7" result="effect1_foregroundBlur_420_6485"/>
</filter>
<filter id="filter3_f_420_6485" x="1067.74" y="300.854" width="58.7549" height="58.7549" filterUnits="userSpaceOnUse" color-interpolation-filters="sRGB">
<feFlood flood-opacity="0" result="BackgroundImageFix"/>
<feBlend mode="normal" in="SourceGraphic" in2="BackgroundImageFix" result="shape"/>
<feGaussianBlur stdDeviation="12" result="effect1_foregroundBlur_420_6485"/>
</filter>
<filter id="filter4_f_420_6485" x="1078.42" y="311.527" width="37.4102" height="37.4106" filterUnits="userSpaceOnUse" color-interpolation-filters="sRGB">
<feFlood flood-opacity="0" result="BackgroundImageFix"/>
<feBlend mode="normal" in="SourceGraphic" in2="BackgroundImageFix" result="shape"/>
<feGaussianBlur stdDeviation="7" result="effect1_foregroundBlur_420_6485"/>
</filter>
<filter id="filter5_f_420_6485" x="829.117" y="278" width="58.7549" height="58.7549" filterUnits="userSpaceOnUse" color-interpolation-filters="sRGB">
<feFlood flood-opacity="0" result="BackgroundImageFix"/>
<feBlend mode="normal" in="SourceGraphic" in2="BackgroundImageFix" result="shape"/>
<feGaussianBlur stdDeviation="12" result="effect1_foregroundBlur_420_6485"/>
</filter>
<filter id="filter6_f_420_6485" x="839.789" y="288.672" width="37.4106" height="37.4106" filterUnits="userSpaceOnUse" color-interpolation-filters="sRGB">
<feFlood flood-opacity="0" result="BackgroundImageFix"/>
<feBlend mode="normal" in="SourceGraphic" in2="BackgroundImageFix" result="shape"/>
<feGaussianBlur stdDeviation="7" result="effect1_foregroundBlur_420_6485"/>
</filter>
<filter id="filter7_f_420_6485" x="669.117" y="499.803" width="68.2041" height="68.2041" filterUnits="userSpaceOnUse" color-interpolation-filters="sRGB">
<feFlood flood-opacity="0" result="BackgroundImageFix"/>
<feBlend mode="normal" in="SourceGraphic" in2="BackgroundImageFix" result="shape"/>
<feGaussianBlur stdDeviation="12" result="effect1_foregroundBlur_420_6485"/>
</filter>
<filter id="filter8_f_420_6485" x="680.379" y="511.065" width="45.6787" height="45.6787" filterUnits="userSpaceOnUse" color-interpolation-filters="sRGB">
<feFlood flood-opacity="0" result="BackgroundImageFix"/>
<feBlend mode="normal" in="SourceGraphic" in2="BackgroundImageFix" result="shape"/>
<feGaussianBlur stdDeviation="7" result="effect1_foregroundBlur_420_6485"/>
</filter>
<filter id="filter9_f_420_6485" x="769.292" y="696.773" width="58.7549" height="58.7549" filterUnits="userSpaceOnUse" color-interpolation-filters="sRGB">
<feFlood flood-opacity="0" result="BackgroundImageFix"/>
<feBlend mode="normal" in="SourceGraphic" in2="BackgroundImageFix" result="shape"/>
<feGaussianBlur stdDeviation="12" result="effect1_foregroundBlur_420_6485"/>
</filter>
<filter id="filter10_f_420_6485" x="779.964" y="707.446" width="37.4106" height="37.4106" filterUnits="userSpaceOnUse" color-interpolation-filters="sRGB">
<feFlood flood-opacity="0" result="BackgroundImageFix"/>
<feBlend mode="normal" in="SourceGraphic" in2="BackgroundImageFix" result="shape"/>
<feGaussianBlur stdDeviation="7" result="effect1_foregroundBlur_420_6485"/>
</filter>
<filter id="filter11_f_420_6485" x="958.85" y="747.188" width="58.7549" height="58.7549" filterUnits="userSpaceOnUse" color-interpolation-filters="sRGB">
<feFlood flood-opacity="0" result="BackgroundImageFix"/>
<feBlend mode="normal" in="SourceGraphic" in2="BackgroundImageFix" result="shape"/>
<feGaussianBlur stdDeviation="12" result="effect1_foregroundBlur_420_6485"/>
</filter>
<filter id="filter12_f_420_6485" x="969.522" y="757.86" width="37.4102" height="37.4106" filterUnits="userSpaceOnUse" color-interpolation-filters="sRGB">
<feFlood flood-opacity="0" result="BackgroundImageFix"/>
<feBlend mode="normal" in="SourceGraphic" in2="BackgroundImageFix" result="shape"/>
<feGaussianBlur stdDeviation="7" result="effect1_foregroundBlur_420_6485"/>
</filter>
<filter id="filter13_f_420_6485" x="1054.3" y="677.952" width="58.7549" height="58.7549" filterUnits="userSpaceOnUse" color-interpolation-filters="sRGB">
<feFlood flood-opacity="0" result="BackgroundImageFix"/>
<feBlend mode="normal" in="SourceGraphic" in2="BackgroundImageFix" result="shape"/>
<feGaussianBlur stdDeviation="12" result="effect1_foregroundBlur_420_6485"/>
</filter>
<filter id="filter14_f_420_6485" x="1064.97" y="688.625" width="37.4102" height="37.4106" filterUnits="userSpaceOnUse" color-interpolation-filters="sRGB">
<feFlood flood-opacity="0" result="BackgroundImageFix"/>
<feBlend mode="normal" in="SourceGraphic" in2="BackgroundImageFix" result="shape"/>
<feGaussianBlur stdDeviation="7" result="effect1_foregroundBlur_420_6485"/>
</filter>
<filter id="filter15_f_420_6485" x="1054.3" y="569.73" width="58.7549" height="58.7549" filterUnits="userSpaceOnUse" color-interpolation-filters="sRGB">
<feFlood flood-opacity="0" result="BackgroundImageFix"/>
<feBlend mode="normal" in="SourceGraphic" in2="BackgroundImageFix" result="shape"/>
<feGaussianBlur stdDeviation="12" result="effect1_foregroundBlur_420_6485"/>
</filter>
<filter id="filter16_f_420_6485" x="1064.97" y="580.402" width="37.4102" height="37.4106" filterUnits="userSpaceOnUse" color-interpolation-filters="sRGB">
<feFlood flood-opacity="0" result="BackgroundImageFix"/>
<feBlend mode="normal" in="SourceGraphic" in2="BackgroundImageFix" result="shape"/>
<feGaussianBlur stdDeviation="7" result="effect1_foregroundBlur_420_6485"/>
</filter>
<filter id="filter17_f_420_6485" x="994.476" y="588.551" width="58.7549" height="58.7549" filterUnits="userSpaceOnUse" color-interpolation-filters="sRGB">
<feFlood flood-opacity="0" result="BackgroundImageFix"/>
<feBlend mode="normal" in="SourceGraphic" in2="BackgroundImageFix" result="shape"/>
<feGaussianBlur stdDeviation="12" result="effect1_foregroundBlur_420_6485"/>
</filter>
<filter id="filter18_f_420_6485" x="1005.15" y="599.223" width="37.4102" height="37.4106" filterUnits="userSpaceOnUse" color-interpolation-filters="sRGB">
<feFlood flood-opacity="0" result="BackgroundImageFix"/>
<feBlend mode="normal" in="SourceGraphic" in2="BackgroundImageFix" result="shape"/>
<feGaussianBlur stdDeviation="7" result="effect1_foregroundBlur_420_6485"/>
</filter>
<filter id="filter19_f_420_6485" x="983.048" y="647.704" width="58.7549" height="58.7549" filterUnits="userSpaceOnUse" color-interpolation-filters="sRGB">
<feFlood flood-opacity="0" result="BackgroundImageFix"/>
<feBlend mode="normal" in="SourceGraphic" in2="BackgroundImageFix" result="shape"/>
<feGaussianBlur stdDeviation="12" result="effect1_foregroundBlur_420_6485"/>
</filter>
<filter id="filter20_f_420_6485" x="993.721" y="658.376" width="37.4102" height="37.4106" filterUnits="userSpaceOnUse" color-interpolation-filters="sRGB">
<feFlood flood-opacity="0" result="BackgroundImageFix"/>
<feBlend mode="normal" in="SourceGraphic" in2="BackgroundImageFix" result="shape"/>
<feGaussianBlur stdDeviation="7" result="effect1_foregroundBlur_420_6485"/>
</filter>
<filter id="filter21_f_420_6485" x="910.452" y="669.886" width="58.7549" height="58.7549" filterUnits="userSpaceOnUse" color-interpolation-filters="sRGB">
<feFlood flood-opacity="0" result="BackgroundImageFix"/>
<feBlend mode="normal" in="SourceGraphic" in2="BackgroundImageFix" result="shape"/>
<feGaussianBlur stdDeviation="12" result="effect1_foregroundBlur_420_6485"/>
</filter>
<filter id="filter22_f_420_6485" x="921.124" y="680.558" width="37.4106" height="37.4106" filterUnits="userSpaceOnUse" color-interpolation-filters="sRGB">
<feFlood flood-opacity="0" result="BackgroundImageFix"/>
<feBlend mode="normal" in="SourceGraphic" in2="BackgroundImageFix" result="shape"/>
<feGaussianBlur stdDeviation="7" result="effect1_foregroundBlur_420_6485"/>
</filter>
<filter id="filter23_f_420_6485" x="821.723" y="606.7" width="58.7549" height="58.7549" filterUnits="userSpaceOnUse" color-interpolation-filters="sRGB">
<feFlood flood-opacity="0" result="BackgroundImageFix"/>
<feBlend mode="normal" in="SourceGraphic" in2="BackgroundImageFix" result="shape"/>
<feGaussianBlur stdDeviation="12" result="effect1_foregroundBlur_420_6485"/>
</filter>
<filter id="filter24_f_420_6485" x="832.395" y="617.372" width="37.4106" height="37.4106" filterUnits="userSpaceOnUse" color-interpolation-filters="sRGB">
<feFlood flood-opacity="0" result="BackgroundImageFix"/>
<feBlend mode="normal" in="SourceGraphic" in2="BackgroundImageFix" result="shape"/>
<feGaussianBlur stdDeviation="7" result="effect1_foregroundBlur_420_6485"/>
</filter>
<filter id="filter25_f_420_6485" x="817.689" y="492.428" width="58.7549" height="58.7549" filterUnits="userSpaceOnUse" color-interpolation-filters="sRGB">
<feFlood flood-opacity="0" result="BackgroundImageFix"/>
<feBlend mode="normal" in="SourceGraphic" in2="BackgroundImageFix" result="shape"/>
<feGaussianBlur stdDeviation="12" result="effect1_foregroundBlur_420_6485"/>
</filter>
<filter id="filter26_f_420_6485" x="828.361" y="503.101" width="37.4106" height="37.4106" filterUnits="userSpaceOnUse" color-interpolation-filters="sRGB">
<feFlood flood-opacity="0" result="BackgroundImageFix"/>
<feBlend mode="normal" in="SourceGraphic" in2="BackgroundImageFix" result="shape"/>
<feGaussianBlur stdDeviation="7" result="effect1_foregroundBlur_420_6485"/>
</filter>
<filter id="filter27_f_420_6485" x="966.915" y="435.292" width="58.7549" height="58.7549" filterUnits="userSpaceOnUse" color-interpolation-filters="sRGB">
<feFlood flood-opacity="0" result="BackgroundImageFix"/>
<feBlend mode="normal" in="SourceGraphic" in2="BackgroundImageFix" result="shape"/>
<feGaussianBlur stdDeviation="12" result="effect1_foregroundBlur_420_6485"/>
</filter>
<filter id="filter28_f_420_6485" x="977.588" y="445.964" width="37.4102" height="37.4106" filterUnits="userSpaceOnUse" color-interpolation-filters="sRGB">
<feFlood flood-opacity="0" result="BackgroundImageFix"/>
<feBlend mode="normal" in="SourceGraphic" in2="BackgroundImageFix" result="shape"/>
<feGaussianBlur stdDeviation="7" result="effect1_foregroundBlur_420_6485"/>
</filter>
<filter id="filter29_f_420_6485" x="1011.28" y="524.693" width="58.7549" height="58.7549" filterUnits="userSpaceOnUse" color-interpolation-filters="sRGB">
<feFlood flood-opacity="0" result="BackgroundImageFix"/>
<feBlend mode="normal" in="SourceGraphic" in2="BackgroundImageFix" result="shape"/>
<feGaussianBlur stdDeviation="12" result="effect1_foregroundBlur_420_6485"/>
</filter>
<filter id="filter30_f_420_6485" x="1021.95" y="535.366" width="37.4102" height="37.4106" filterUnits="userSpaceOnUse" color-interpolation-filters="sRGB">
<feFlood flood-opacity="0" result="BackgroundImageFix"/>
<feBlend mode="normal" in="SourceGraphic" in2="BackgroundImageFix" result="shape"/>
<feGaussianBlur stdDeviation="7" result="effect1_foregroundBlur_420_6485"/>
</filter>
<filter id="filter31_f_420_6485" x="1372.25" y="618.127" width="58.7549" height="58.7549" filterUnits="userSpaceOnUse" color-interpolation-filters="sRGB">
<feFlood flood-opacity="0" result="BackgroundImageFix"/>
<feBlend mode="normal" in="SourceGraphic" in2="BackgroundImageFix" result="shape"/>
<feGaussianBlur stdDeviation="12" result="effect1_foregroundBlur_420_6485"/>
</filter>
<filter id="filter32_f_420_6485" x="1382.92" y="628.8" width="37.4102" height="37.4106" filterUnits="userSpaceOnUse" color-interpolation-filters="sRGB">
<feFlood flood-opacity="0" result="BackgroundImageFix"/>
<feBlend mode="normal" in="SourceGraphic" in2="BackgroundImageFix" result="shape"/>
<feGaussianBlur stdDeviation="7" result="effect1_foregroundBlur_420_6485"/>
</filter>
<filter id="filter33_f_420_6485" x="1321.16" y="737.777" width="58.7549" height="58.7549" filterUnits="userSpaceOnUse" color-interpolation-filters="sRGB">
<feFlood flood-opacity="0" result="BackgroundImageFix"/>
<feBlend mode="normal" in="SourceGraphic" in2="BackgroundImageFix" result="shape"/>
<feGaussianBlur stdDeviation="12" result="effect1_foregroundBlur_420_6485"/>
</filter>
<filter id="filter34_f_420_6485" x="1331.83" y="748.449" width="37.4102" height="37.4106" filterUnits="userSpaceOnUse" color-interpolation-filters="sRGB">
<feFlood flood-opacity="0" result="BackgroundImageFix"/>
<feBlend mode="normal" in="SourceGraphic" in2="BackgroundImageFix" result="shape"/>
<feGaussianBlur stdDeviation="7" result="effect1_foregroundBlur_420_6485"/>
</filter>
<filter id="filter35_f_420_6485" x="1172.61" y="708.873" width="58.7549" height="58.7549" filterUnits="userSpaceOnUse" color-interpolation-filters="sRGB">
<feFlood flood-opacity="0" result="BackgroundImageFix"/>
<feBlend mode="normal" in="SourceGraphic" in2="BackgroundImageFix" result="shape"/>
<feGaussianBlur stdDeviation="12" result="effect1_foregroundBlur_420_6485"/>
</filter>
<filter id="filter36_f_420_6485" x="1183.28" y="719.545" width="37.4102" height="37.4106" filterUnits="userSpaceOnUse" color-interpolation-filters="sRGB">
<feFlood flood-opacity="0" result="BackgroundImageFix"/>
<feBlend mode="normal" in="SourceGraphic" in2="BackgroundImageFix" result="shape"/>
<feGaussianBlur stdDeviation="7" result="effect1_foregroundBlur_420_6485"/>
</filter>
<filter id="filter37_f_420_6485" x="941" y="940" width="58.7549" height="58.7549" filterUnits="userSpaceOnUse" color-interpolation-filters="sRGB">
<feFlood flood-opacity="0" result="BackgroundImageFix"/>
<feBlend mode="normal" in="SourceGraphic" in2="BackgroundImageFix" result="shape"/>
<feGaussianBlur stdDeviation="12" result="effect1_foregroundBlur_420_6485"/>
</filter>
<filter id="filter38_f_420_6485" x="951.672" y="950.672" width="37.4106" height="37.4106" filterUnits="userSpaceOnUse" color-interpolation-filters="sRGB">
<feFlood flood-opacity="0" result="BackgroundImageFix"/>
<feBlend mode="normal" in="SourceGraphic" in2="BackgroundImageFix" result="shape"/>
<feGaussianBlur stdDeviation="7" result="effect1_foregroundBlur_420_6485"/>
</filter>
<filter id="filter39_f_420_6485" x="1092.43" y="325.543" width="9.37793" height="9.37744" filterUnits="userSpaceOnUse" color-interpolation-filters="sRGB">
<feFlood flood-opacity="0" result="BackgroundImageFix"/>
<feBlend mode="normal" in="SourceGraphic" in2="BackgroundImageFix" result="shape"/>
<feGaussianBlur stdDeviation="1" result="effect1_foregroundBlur_420_6485"/>
</filter>
<filter id="filter40_f_420_6485" x="1243" y="370.58" width="9.37793" height="9.37744" filterUnits="userSpaceOnUse" color-interpolation-filters="sRGB">
<feFlood flood-opacity="0" result="BackgroundImageFix"/>
<feBlend mode="normal" in="SourceGraphic" in2="BackgroundImageFix" result="shape"/>
<feGaussianBlur stdDeviation="1" result="effect1_foregroundBlur_420_6485"/>
</filter>
<filter id="filter41_f_420_6485" x="853.806" y="302.688" width="9.37744" height="9.37744" filterUnits="userSpaceOnUse" color-interpolation-filters="sRGB">
<feFlood flood-opacity="0" result="BackgroundImageFix"/>
<feBlend mode="normal" in="SourceGraphic" in2="BackgroundImageFix" result="shape"/>
<feGaussianBlur stdDeviation="1" result="effect1_foregroundBlur_420_6485"/>
</filter>
<filter id="filter42_f_420_6485" x="793.981" y="721.462" width="9.37744" height="9.37744" filterUnits="userSpaceOnUse" color-interpolation-filters="sRGB">
<feFlood flood-opacity="0" result="BackgroundImageFix"/>
<feBlend mode="normal" in="SourceGraphic" in2="BackgroundImageFix" result="shape"/>
<feGaussianBlur stdDeviation="1" result="effect1_foregroundBlur_420_6485"/>
</filter>
<filter id="filter43_f_420_6485" x="695.841" y="526.389" width="14.6421" height="14.6421" filterUnits="userSpaceOnUse" color-interpolation-filters="sRGB">
<feFlood flood-opacity="0" result="BackgroundImageFix"/>
<feBlend mode="normal" in="SourceGraphic" in2="BackgroundImageFix" result="shape"/>
<feGaussianBlur stdDeviation="1" result="effect1_foregroundBlur_420_6485"/>
</filter>
<filter id="filter44_f_420_6485" x="983.538" y="771.876" width="9.37793" height="9.37744" filterUnits="userSpaceOnUse" color-interpolation-filters="sRGB">
<feFlood flood-opacity="0" result="BackgroundImageFix"/>
<feBlend mode="normal" in="SourceGraphic" in2="BackgroundImageFix" result="shape"/>
<feGaussianBlur stdDeviation="1" result="effect1_foregroundBlur_420_6485"/>
</filter>
<filter id="filter45_f_420_6485" x="1078.99" y="702.641" width="9.37793" height="9.37744" filterUnits="userSpaceOnUse" color-interpolation-filters="sRGB">
<feFlood flood-opacity="0" result="BackgroundImageFix"/>
<feBlend mode="normal" in="SourceGraphic" in2="BackgroundImageFix" result="shape"/>
<feGaussianBlur stdDeviation="1" result="effect1_foregroundBlur_420_6485"/>
</filter>
<filter id="filter46_f_420_6485" x="1078.99" y="594.418" width="9.37793" height="9.37744" filterUnits="userSpaceOnUse" color-interpolation-filters="sRGB">
<feFlood flood-opacity="0" result="BackgroundImageFix"/>
<feBlend mode="normal" in="SourceGraphic" in2="BackgroundImageFix" result="shape"/>
<feGaussianBlur stdDeviation="1" result="effect1_foregroundBlur_420_6485"/>
</filter>
<filter id="filter47_f_420_6485" x="1019.16" y="613.24" width="9.37793" height="9.37744" filterUnits="userSpaceOnUse" color-interpolation-filters="sRGB">
<feFlood flood-opacity="0" result="BackgroundImageFix"/>
<feBlend mode="normal" in="SourceGraphic" in2="BackgroundImageFix" result="shape"/>
<feGaussianBlur stdDeviation="1" result="effect1_foregroundBlur_420_6485"/>
</filter>
<filter id="filter48_f_420_6485" x="935.14" y="694.575" width="9.37744" height="9.37744" filterUnits="userSpaceOnUse" color-interpolation-filters="sRGB">
<feFlood flood-opacity="0" result="BackgroundImageFix"/>
<feBlend mode="normal" in="SourceGraphic" in2="BackgroundImageFix" result="shape"/>
<feGaussianBlur stdDeviation="1" result="effect1_foregroundBlur_420_6485"/>
</filter>
<filter id="filter49_f_420_6485" x="1007.74" y="672.393" width="9.37793" height="9.37744" filterUnits="userSpaceOnUse" color-interpolation-filters="sRGB">
<feFlood flood-opacity="0" result="BackgroundImageFix"/>
<feBlend mode="normal" in="SourceGraphic" in2="BackgroundImageFix" result="shape"/>
<feGaussianBlur stdDeviation="1" result="effect1_foregroundBlur_420_6485"/>
</filter>
<filter id="filter50_f_420_6485" x="846.412" y="631.389" width="9.37744" height="9.37744" filterUnits="userSpaceOnUse" color-interpolation-filters="sRGB">
<feFlood flood-opacity="0" result="BackgroundImageFix"/>
<feBlend mode="normal" in="SourceGraphic" in2="BackgroundImageFix" result="shape"/>
<feGaussianBlur stdDeviation="1" result="effect1_foregroundBlur_420_6485"/>
</filter>
<filter id="filter51_f_420_6485" x="842.378" y="517.117" width="9.37744" height="9.37744" filterUnits="userSpaceOnUse" color-interpolation-filters="sRGB">
<feFlood flood-opacity="0" result="BackgroundImageFix"/>
<feBlend mode="normal" in="SourceGraphic" in2="BackgroundImageFix" result="shape"/>
<feGaussianBlur stdDeviation="1" result="effect1_foregroundBlur_420_6485"/>
</filter>
<filter id="filter52_f_420_6485" x="1035.97" y="549.382" width="9.37793" height="9.37744" filterUnits="userSpaceOnUse" color-interpolation-filters="sRGB">
<feFlood flood-opacity="0" result="BackgroundImageFix"/>
<feBlend mode="normal" in="SourceGraphic" in2="BackgroundImageFix" result="shape"/>
<feGaussianBlur stdDeviation="1" result="effect1_foregroundBlur_420_6485"/>
</filter>
<filter id="filter53_f_420_6485" x="991.604" y="459.98" width="9.37793" height="9.37744" filterUnits="userSpaceOnUse" color-interpolation-filters="sRGB">
<feFlood flood-opacity="0" result="BackgroundImageFix"/>
<feBlend mode="normal" in="SourceGraphic" in2="BackgroundImageFix" result="shape"/>
<feGaussianBlur stdDeviation="1" result="effect1_foregroundBlur_420_6485"/>
</filter>
<filter id="filter54_f_420_6485" x="1396.93" y="642.816" width="9.37793" height="9.37744" filterUnits="userSpaceOnUse" color-interpolation-filters="sRGB">
<feFlood flood-opacity="0" result="BackgroundImageFix"/>
<feBlend mode="normal" in="SourceGraphic" in2="BackgroundImageFix" result="shape"/>
<feGaussianBlur stdDeviation="1" result="effect1_foregroundBlur_420_6485"/>
</filter>
<filter id="filter55_f_420_6485" x="1345.85" y="762.466" width="9.37793" height="9.37744" filterUnits="userSpaceOnUse" color-interpolation-filters="sRGB">
<feFlood flood-opacity="0" result="BackgroundImageFix"/>
<feBlend mode="normal" in="SourceGraphic" in2="BackgroundImageFix" result="shape"/>
<feGaussianBlur stdDeviation="1" result="effect1_foregroundBlur_420_6485"/>
</filter>
<filter id="filter56_f_420_6485" x="1197.29" y="733.562" width="9.37793" height="9.37744" filterUnits="userSpaceOnUse" color-interpolation-filters="sRGB">
<feFlood flood-opacity="0" result="BackgroundImageFix"/>
<feBlend mode="normal" in="SourceGraphic" in2="BackgroundImageFix" result="shape"/>
<feGaussianBlur stdDeviation="1" result="effect1_foregroundBlur_420_6485"/>
</filter>
<filter id="filter57_f_420_6485" x="965.689" y="964.688" width="9.37744" height="9.37744" filterUnits="userSpaceOnUse" color-interpolation-filters="sRGB">
<feFlood flood-opacity="0" result="BackgroundImageFix"/>
<feBlend mode="normal" in="SourceGraphic" in2="BackgroundImageFix" result="shape"/>
<feGaussianBlur stdDeviation="1" result="effect1_foregroundBlur_420_6485"/>
</filter>
<linearGradient id="paint0_linear_420_6485" x1="1247.64" y1="374.662" x2="1150.12" y2="427.943" gradientUnits="userSpaceOnUse">
<stop offset="0.161458" stop-color="white"/>
<stop offset="0.518348" stop-color="white" stop-opacity="0.3"/>
<stop offset="0.859375" stop-color="white"/>
</linearGradient>
<linearGradient id="paint1_linear_420_6485" x1="1096.93" y1="330.585" x2="1072.38" y2="392.217" gradientUnits="userSpaceOnUse">
<stop offset="0.161458" stop-color="white"/>
<stop offset="0.518348" stop-color="white" stop-opacity="0.3"/>
<stop offset="0.859375" stop-color="white"/>
</linearGradient>
<linearGradient id="paint2_linear_420_6485" x1="1202.15" y1="737.941" x2="1112.57" y2="803.346" gradientUnits="userSpaceOnUse">
<stop offset="0.161458" stop-color="white"/>
<stop offset="0.518348" stop-color="white" stop-opacity="0.3"/>
<stop offset="0.859375" stop-color="white"/>
</linearGradient>
<linearGradient id="paint3_linear_420_6485" x1="1350.73" y1="767.089" x2="1297.69" y2="825.179" gradientUnits="userSpaceOnUse">
<stop offset="0.161458" stop-color="white"/>
<stop offset="0.518348" stop-color="white" stop-opacity="0.3"/>
<stop offset="0.859375" stop-color="white"/>
</linearGradient>
<linearGradient id="paint4_linear_420_6485" x1="1401.91" y1="647.655" x2="1327.33" y2="664.696" gradientUnits="userSpaceOnUse">
<stop offset="0.161458" stop-color="white"/>
<stop offset="0.518348" stop-color="white" stop-opacity="0.3"/>
<stop offset="0.859375" stop-color="white"/>
</linearGradient>
<linearGradient id="paint5_linear_420_6485" x1="1247.64" y1="374.662" x2="1191.74" y2="594.114" gradientUnits="userSpaceOnUse">
<stop offset="0.161458" stop-color="white"/>
<stop offset="0.518348" stop-color="white" stop-opacity="0.3"/>
<stop offset="0.859375" stop-color="white"/>
</linearGradient>
<linearGradient id="paint6_linear_420_6485" x1="858.773" y1="307.125" x2="648.433" y2="384.353" gradientUnits="userSpaceOnUse">
<stop offset="0.161458" stop-color="white"/>
<stop offset="0.518348" stop-color="white" stop-opacity="0.3"/>
<stop offset="0.859375" stop-color="white"/>
</linearGradient>
<linearGradient id="paint7_linear_420_6485" x1="703.082" y1="533.908" x2="649.301" y2="664.456" gradientUnits="userSpaceOnUse">
<stop offset="0.161458" stop-color="white"/>
<stop offset="0.518348" stop-color="white" stop-opacity="0.3"/>
<stop offset="0.859375" stop-color="white"/>
</linearGradient>
<linearGradient id="paint8_linear_420_6485" x1="988.16" y1="776.331" x2="879.946" y2="847.997" gradientUnits="userSpaceOnUse">
<stop offset="0.161458" stop-color="white"/>
<stop offset="0.518348" stop-color="white" stop-opacity="0.3"/>
<stop offset="0.859375" stop-color="white"/>
</linearGradient>
<linearGradient id="paint9_linear_420_6485" x1="1083.42" y1="707.372" x2="988.733" y2="777.109" gradientUnits="userSpaceOnUse">
<stop offset="0.161458" stop-color="white"/>
<stop offset="0.518348" stop-color="white" stop-opacity="0.3"/>
<stop offset="0.859375" stop-color="white"/>
</linearGradient>
<linearGradient id="paint10_linear_420_6485" x1="1083.42" y1="597.535" x2="1083.42" y2="707.372" gradientUnits="userSpaceOnUse">
<stop offset="0.161458" stop-color="white"/>
<stop offset="0.518348" stop-color="white" stop-opacity="0.3"/>
<stop offset="0.859375" stop-color="white"/>
</linearGradient>
<linearGradient id="paint11_linear_420_6485" x1="1083.42" y1="599.312" x2="1060.48" y2="639.302" gradientUnits="userSpaceOnUse">
<stop offset="0.161458" stop-color="white"/>
<stop offset="0.518348" stop-color="white" stop-opacity="0.3"/>
<stop offset="0.859375" stop-color="white"/>
</linearGradient>
<linearGradient id="paint12_linear_420_6485" x1="1023" y1="617.796" x2="1006.79" y2="619.338" gradientUnits="userSpaceOnUse">
<stop offset="0.161458" stop-color="white"/>
<stop offset="0.518348" stop-color="white" stop-opacity="0.3"/>
<stop offset="0.859375" stop-color="white"/>
</linearGradient>
<linearGradient id="paint13_linear_420_6485" x1="1012.33" y1="676.802" x2="983.736" y2="725.396" gradientUnits="userSpaceOnUse">
<stop offset="0.161458" stop-color="white"/>
<stop offset="0.518348" stop-color="white" stop-opacity="0.3"/>
<stop offset="0.859375" stop-color="white"/>
</linearGradient>
<linearGradient id="paint14_linear_420_6485" x1="939.817" y1="699.551" x2="849.444" y2="636.671" gradientUnits="userSpaceOnUse">
<stop offset="0.161458" stop-color="white"/>
<stop offset="0.518348" stop-color="white" stop-opacity="0.3"/>
<stop offset="0.859375" stop-color="white"/>
</linearGradient>
<linearGradient id="paint15_linear_420_6485" x1="846.687" y1="524.666" x2="840.379" y2="525.267" gradientUnits="userSpaceOnUse">
<stop offset="0.161458" stop-color="white"/>
<stop offset="0.518348" stop-color="white" stop-opacity="0.3"/>
<stop offset="0.859375" stop-color="white"/>
</linearGradient>
<linearGradient id="paint16_linear_420_6485" x1="996.691" y1="464.238" x2="919.446" y2="572.855" gradientUnits="userSpaceOnUse">
<stop offset="0.161458" stop-color="white"/>
<stop offset="0.518348" stop-color="white" stop-opacity="0.3"/>
<stop offset="0.859375" stop-color="white"/>
</linearGradient>
<linearGradient id="paint17_linear_420_6485" x1="996.691" y1="464.238" x2="971.256" y2="524.45" gradientUnits="userSpaceOnUse">
<stop offset="0.161458" stop-color="white"/>
<stop offset="0.518348" stop-color="white" stop-opacity="0.3"/>
<stop offset="0.859375" stop-color="white"/>
</linearGradient>
<clipPath id="clip0_420_6485">
<rect width="1440" height="974" fill="white"/>
</clipPath>
</defs>
</svg>
