<svg width="1440" height="974" viewBox="0 0 1440 974" fill="none" xmlns="http://www.w3.org/2000/svg">
<g clip-path="url(#clip0_419_6484)">
<rect width="1440" height="974" fill="white"/>
<rect x="-1" y="230" width="1440" height="742" fill="#0BC1B6" fill-opacity="0.8"/>
<g filter="url(#filter0_f_419_6484)">
<path fill-rule="evenodd" clip-rule="evenodd" d="M1622 0H-180V377.015C-181.326 385.273 -182 393.604 -182 402C-182 607.45 221.391 774 719 774C1206.07 774 1602.87 614.43 1619.46 415H1622V0Z" fill="black"/>
</g>
<g filter="url(#filter1_f_419_6484)">
<circle cx="5.37751" cy="5.37751" r="5.37751" transform="matrix(-1 0 0 1 1253.07 369.891)" fill="white" fill-opacity="0.3"/>
</g>
<g filter="url(#filter2_f_419_6484)">
<circle cx="4.70532" cy="4.70532" r="4.70532" transform="matrix(-1 0 0 1 1252.4 370.563)" fill="#0BC1B6"/>
</g>
<g filter="url(#filter3_f_419_6484)">
<circle cx="5.37751" cy="5.37751" r="5.37751" transform="matrix(-1 0 0 1 1102.5 324.854)" fill="white" fill-opacity="0.3"/>
</g>
<g filter="url(#filter4_f_419_6484)">
<circle cx="4.70532" cy="4.70532" r="4.70532" transform="matrix(-1 0 0 1 1101.83 325.527)" fill="#0BC1B6"/>
</g>
<g filter="url(#filter5_f_419_6484)">
<circle cx="5.37751" cy="5.37751" r="5.37751" transform="matrix(-1 0 0 1 863.872 302)" fill="white" fill-opacity="0.3"/>
</g>
<g filter="url(#filter6_f_419_6484)">
<circle cx="4.70532" cy="4.70532" r="4.70532" transform="matrix(-1 0 0 1 863.2 302.672)" fill="#0BC1B6"/>
</g>
<g filter="url(#filter7_f_419_6484)">
<circle cx="10.1021" cy="10.1021" r="10.1021" transform="matrix(-1 0 0 1 713.321 523.803)" fill="white" fill-opacity="0.3"/>
</g>
<g filter="url(#filter8_f_419_6484)">
<circle cx="8.83934" cy="8.83934" r="8.83934" transform="matrix(-1 0 0 1 712.058 525.065)" fill="#0BC1B6"/>
</g>
<g filter="url(#filter9_f_419_6484)">
<circle cx="5.37751" cy="5.37751" r="5.37751" transform="matrix(-1 0 0 1 804.047 720.773)" fill="white" fill-opacity="0.3"/>
</g>
<g filter="url(#filter10_f_419_6484)">
<circle cx="4.70532" cy="4.70532" r="4.70532" transform="matrix(-1 0 0 1 803.375 721.446)" fill="#0BC1B6"/>
</g>
<g filter="url(#filter11_f_419_6484)">
<circle cx="5.37751" cy="5.37751" r="5.37751" transform="matrix(-1 0 0 1 993.604 771.188)" fill="white" fill-opacity="0.3"/>
</g>
<g filter="url(#filter12_f_419_6484)">
<circle cx="4.70532" cy="4.70532" r="4.70532" transform="matrix(-1 0 0 1 992.932 771.86)" fill="#0BC1B6"/>
</g>
<g filter="url(#filter13_f_419_6484)">
<circle cx="5.37751" cy="5.37751" r="5.37751" transform="matrix(-1 0 0 1 1089.05 701.952)" fill="white" fill-opacity="0.3"/>
</g>
<g filter="url(#filter14_f_419_6484)">
<circle cx="4.70532" cy="4.70532" r="4.70532" transform="matrix(-1 0 0 1 1088.38 702.625)" fill="#0BC1B6"/>
</g>
<g filter="url(#filter15_f_419_6484)">
<circle cx="5.37751" cy="5.37751" r="5.37751" transform="matrix(-1 0 0 1 1089.05 593.73)" fill="white" fill-opacity="0.3"/>
</g>
<g filter="url(#filter16_f_419_6484)">
<circle cx="4.70532" cy="4.70532" r="4.70532" transform="matrix(-1 0 0 1 1088.38 594.402)" fill="#0BC1B6"/>
</g>
<g filter="url(#filter17_f_419_6484)">
<circle cx="5.37751" cy="5.37751" r="5.37751" transform="matrix(-1 0 0 1 1029.23 612.551)" fill="white" fill-opacity="0.3"/>
</g>
<g filter="url(#filter18_f_419_6484)">
<circle cx="4.70532" cy="4.70532" r="4.70532" transform="matrix(-1 0 0 1 1028.56 613.223)" fill="#0BC1B6"/>
</g>
<g filter="url(#filter19_f_419_6484)">
<circle cx="5.37751" cy="5.37751" r="5.37751" transform="matrix(-1 0 0 1 1017.8 671.704)" fill="white" fill-opacity="0.3"/>
</g>
<g filter="url(#filter20_f_419_6484)">
<circle cx="4.70532" cy="4.70532" r="4.70532" transform="matrix(-1 0 0 1 1017.13 672.376)" fill="#0BC1B6"/>
</g>
<g filter="url(#filter21_f_419_6484)">
<circle cx="5.37751" cy="5.37751" r="5.37751" transform="matrix(-1 0 0 1 945.207 693.886)" fill="white" fill-opacity="0.3"/>
</g>
<g filter="url(#filter22_f_419_6484)">
<circle cx="4.70532" cy="4.70532" r="4.70532" transform="matrix(-1 0 0 1 944.534 694.558)" fill="#0BC1B6"/>
</g>
<g filter="url(#filter23_f_419_6484)">
<circle cx="5.37751" cy="5.37751" r="5.37751" transform="matrix(-1 0 0 1 856.478 630.7)" fill="white" fill-opacity="0.3"/>
</g>
<g filter="url(#filter24_f_419_6484)">
<circle cx="4.70532" cy="4.70532" r="4.70532" transform="matrix(-1 0 0 1 855.805 631.372)" fill="#0BC1B6"/>
</g>
<g filter="url(#filter25_f_419_6484)">
<circle cx="5.37751" cy="5.37751" r="5.37751" transform="matrix(-1 0 0 1 852.444 516.428)" fill="white" fill-opacity="0.3"/>
</g>
<g filter="url(#filter26_f_419_6484)">
<circle cx="4.70532" cy="4.70532" r="4.70532" transform="matrix(-1 0 0 1 851.772 517.101)" fill="#0BC1B6"/>
</g>
<g filter="url(#filter27_f_419_6484)">
<circle cx="5.37751" cy="5.37751" r="5.37751" transform="matrix(-1 0 0 1 1001.67 459.292)" fill="white" fill-opacity="0.3"/>
</g>
<g filter="url(#filter28_f_419_6484)">
<circle cx="4.70532" cy="4.70532" r="4.70532" transform="matrix(-1 0 0 1 1001 459.964)" fill="#0BC1B6"/>
</g>
<g filter="url(#filter29_f_419_6484)">
<circle cx="5.37751" cy="5.37751" r="5.37751" transform="matrix(-1 0 0 1 1046.03 548.693)" fill="white" fill-opacity="0.3"/>
</g>
<g filter="url(#filter30_f_419_6484)">
<circle cx="4.70532" cy="4.70532" r="4.70532" transform="matrix(-1 0 0 1 1045.36 549.366)" fill="#0BC1B6"/>
</g>
<g filter="url(#filter31_f_419_6484)">
<circle cx="5.37751" cy="5.37751" r="5.37751" transform="matrix(-1 0 0 1 1407 642.127)" fill="white" fill-opacity="0.3"/>
</g>
<g filter="url(#filter32_f_419_6484)">
<circle cx="4.70532" cy="4.70532" r="4.70532" transform="matrix(-1 0 0 1 1406.33 642.8)" fill="#0BC1B6"/>
</g>
<g filter="url(#filter33_f_419_6484)">
<circle cx="5.37751" cy="5.37751" r="5.37751" transform="matrix(-1 0 0 1 1355.91 761.777)" fill="white" fill-opacity="0.3"/>
</g>
<g filter="url(#filter34_f_419_6484)">
<circle cx="4.70532" cy="4.70532" r="4.70532" transform="matrix(-1 0 0 1 1355.24 762.449)" fill="#0BC1B6"/>
</g>
<g filter="url(#filter35_f_419_6484)">
<circle cx="5.37751" cy="5.37751" r="5.37751" transform="matrix(-1 0 0 1 1207.36 732.873)" fill="white" fill-opacity="0.3"/>
</g>
<g filter="url(#filter36_f_419_6484)">
<circle cx="4.70532" cy="4.70532" r="4.70532" transform="matrix(-1 0 0 1 1206.69 733.545)" fill="#0BC1B6"/>
</g>
<g filter="url(#filter37_f_419_6484)">
<circle cx="5.37751" cy="5.37751" r="5.37751" transform="matrix(-1 0 0 1 975.755 964)" fill="white" fill-opacity="0.3"/>
</g>
<g filter="url(#filter38_f_419_6484)">
<circle cx="4.70532" cy="4.70532" r="4.70532" transform="matrix(-1 0 0 1 975.083 964.672)" fill="#0BC1B6"/>
</g>
<g filter="url(#filter39_f_419_6484)">
<circle cx="2.68875" cy="2.68875" r="2.68875" transform="matrix(-1 0 0 1 1099.81 327.543)" fill="white"/>
</g>
<g filter="url(#filter40_f_419_6484)">
<circle cx="2.68875" cy="2.68875" r="2.68875" transform="matrix(-1 0 0 1 1250.38 372.58)" fill="white"/>
</g>
<g filter="url(#filter41_f_419_6484)">
<circle cx="2.68875" cy="2.68875" r="2.68875" transform="matrix(-1 0 0 1 861.183 304.688)" fill="white"/>
</g>
<g filter="url(#filter42_f_419_6484)">
<circle cx="2.68875" cy="2.68875" r="2.68875" transform="matrix(-1 0 0 1 801.358 723.462)" fill="white"/>
</g>
<g filter="url(#filter43_f_419_6484)">
<circle cx="5.32111" cy="5.32111" r="5.32111" transform="matrix(-1 0 0 1 708.483 528.389)" fill="white"/>
</g>
<g filter="url(#filter44_f_419_6484)">
<circle cx="2.68875" cy="2.68875" r="2.68875" transform="matrix(-1 0 0 1 990.916 773.876)" fill="white"/>
</g>
<g filter="url(#filter45_f_419_6484)">
<circle cx="2.68875" cy="2.68875" r="2.68875" transform="matrix(-1 0 0 1 1086.37 704.641)" fill="white"/>
</g>
<g filter="url(#filter46_f_419_6484)">
<circle cx="2.68875" cy="2.68875" r="2.68875" transform="matrix(-1 0 0 1 1086.37 596.418)" fill="white"/>
</g>
<g filter="url(#filter47_f_419_6484)">
<circle cx="2.68875" cy="2.68875" r="2.68875" transform="matrix(-1 0 0 1 1026.54 615.24)" fill="white"/>
</g>
<g filter="url(#filter48_f_419_6484)">
<circle cx="2.68875" cy="2.68875" r="2.68875" transform="matrix(-1 0 0 1 942.518 696.575)" fill="white"/>
</g>
<g filter="url(#filter49_f_419_6484)">
<circle cx="2.68875" cy="2.68875" r="2.68875" transform="matrix(-1 0 0 1 1015.11 674.393)" fill="white"/>
</g>
<g filter="url(#filter50_f_419_6484)">
<circle cx="2.68875" cy="2.68875" r="2.68875" transform="matrix(-1 0 0 1 853.789 633.389)" fill="white"/>
</g>
<g filter="url(#filter51_f_419_6484)">
<circle cx="2.68875" cy="2.68875" r="2.68875" transform="matrix(-1 0 0 1 849.756 519.117)" fill="white"/>
</g>
<g filter="url(#filter52_f_419_6484)">
<circle cx="2.68875" cy="2.68875" r="2.68875" transform="matrix(-1 0 0 1 1043.35 551.382)" fill="white"/>
</g>
<g filter="url(#filter53_f_419_6484)">
<circle cx="2.68875" cy="2.68875" r="2.68875" transform="matrix(-1 0 0 1 998.981 461.98)" fill="white"/>
</g>
<g filter="url(#filter54_f_419_6484)">
<circle cx="2.68875" cy="2.68875" r="2.68875" transform="matrix(-1 0 0 1 1404.31 644.816)" fill="white"/>
</g>
<g filter="url(#filter55_f_419_6484)">
<circle cx="2.68875" cy="2.68875" r="2.68875" transform="matrix(-1 0 0 1 1353.23 764.466)" fill="white"/>
</g>
<g filter="url(#filter56_f_419_6484)">
<circle cx="2.68875" cy="2.68875" r="2.68875" transform="matrix(-1 0 0 1 1204.67 735.562)" fill="white"/>
</g>
<g filter="url(#filter57_f_419_6484)">
<circle cx="2.68875" cy="2.68875" r="2.68875" transform="matrix(-1 0 0 1 973.066 966.688)" fill="white"/>
</g>
<path d="M1247.64 374.662L1096.93 330.585" stroke="url(#paint0_linear_419_6484)"/>
<path d="M1096.93 330.585L858.772 307.125" stroke="url(#paint1_linear_419_6484)"/>
<path d="M1202.15 737.941L961 979.087" stroke="url(#paint2_linear_419_6484)"/>
<path d="M1202.15 737.941L1350.73 767.089" stroke="url(#paint3_linear_419_6484)"/>
<path d="M1350.73 767.089L1401.91 647.655" stroke="url(#paint4_linear_419_6484)"/>
<path d="M1401.91 647.655L1247.64 374.662" stroke="url(#paint5_linear_419_6484)"/>
<path d="M858.772 307.125L703.081 533.197" stroke="url(#paint6_linear_419_6484)"/>
<path d="M703.081 533.908L798.344 725.856" stroke="url(#paint7_linear_419_6484)"/>
<path d="M799.055 725.855L988.159 776.331" stroke="url(#paint8_linear_419_6484)"/>
<path d="M988.159 776.331L1083.42 707.372" stroke="url(#paint9_linear_419_6484)"/>
<path d="M1083.42 707.372V598.602" stroke="url(#paint10_linear_419_6484)"/>
<path d="M1083.42 599.312L1022.99 617.796" stroke="url(#paint11_linear_419_6484)"/>
<path d="M1022.99 617.796L1012.33 677.513" stroke="url(#paint12_linear_419_6484)"/>
<path d="M939.817 699.552L1012.33 676.802" stroke="url(#paint13_linear_419_6484)"/>
<path d="M939.817 699.551L850.952 636.28" stroke="url(#paint14_linear_419_6484)"/>
<path d="M850.952 636.28L846.687 521.111" stroke="url(#paint15_linear_419_6484)"/>
<path d="M846.687 521.111L996.69 464.238" stroke="url(#paint16_linear_419_6484)"/>
<path d="M996.691 464.238L1040.77 553.813" stroke="url(#paint17_linear_419_6484)"/>
<path d="M196.376 446.28V513.48H186.968V454.632H157.208L156.536 474.312C156.216 483.592 155.448 491.112 154.232 496.872C153.08 502.632 151.224 506.984 148.664 509.928C146.104 512.808 142.648 514.248 138.296 514.248C136.312 514.248 134.296 513.992 132.248 513.48L132.92 504.936C133.944 505.192 134.968 505.32 135.992 505.32C138.744 505.32 140.952 504.232 142.616 502.056C144.28 499.816 145.528 496.488 146.36 492.072C147.192 487.656 147.736 481.832 147.992 474.6L149.048 446.28H196.376ZM260.988 496.68H225.276L217.884 513.48H207.996L238.428 446.28H247.932L278.46 513.48H268.38L260.988 496.68ZM257.628 489L243.132 456.072L228.636 489H257.628ZM322.218 478.44C326.442 479.592 329.738 481.608 332.106 484.488C334.474 487.304 335.658 490.696 335.658 494.664C335.658 498.632 334.378 502.12 331.818 505.128C329.322 508.072 325.962 510.344 321.738 511.944C317.578 513.48 313.034 514.248 308.106 514.248C303.626 514.248 299.178 513.576 294.762 512.232C290.346 510.888 286.314 508.872 282.666 506.184L286.026 499.08C288.97 501.384 292.266 503.112 295.914 504.264C299.562 505.416 303.242 505.992 306.954 505.992C312.33 505.992 316.842 504.872 320.49 502.632C324.138 500.328 325.962 497.192 325.962 493.224C325.962 489.832 324.586 487.24 321.834 485.448C319.082 483.592 315.21 482.664 310.218 482.664H295.242V474.888H309.546C313.834 474.888 317.162 474.024 319.53 472.296C321.962 470.504 323.178 468.04 323.178 464.904C323.178 461.384 321.61 458.6 318.474 456.552C315.338 454.504 311.37 453.48 306.57 453.48C303.434 453.48 300.234 453.928 296.97 454.824C293.77 455.72 290.73 457.064 287.85 458.856L284.778 450.984C288.17 449.064 291.754 447.624 295.53 446.664C299.306 445.704 303.082 445.224 306.858 445.224C311.594 445.224 315.946 445.96 319.914 447.432C323.882 448.904 327.018 451.048 329.322 453.864C331.69 456.68 332.874 459.976 332.874 463.752C332.874 467.144 331.914 470.12 329.994 472.68C328.138 475.24 325.546 477.16 322.218 478.44ZM400.42 505.128V513.48H351.652V446.28H399.076V454.632H361.252V475.272H394.948V483.432H361.252V505.128H400.42ZM441.703 446.28C450.407 446.28 457.255 448.36 462.247 452.52C467.239 456.68 469.735 462.408 469.735 469.704C469.735 477 467.239 482.728 462.247 486.888C457.255 491.048 450.407 493.128 441.703 493.128H425.095V513.48H415.495V446.28H441.703ZM441.415 484.776C447.495 484.776 452.135 483.496 455.335 480.936C458.535 478.312 460.135 474.568 460.135 469.704C460.135 464.84 458.535 461.128 455.335 458.568C452.135 455.944 447.495 454.632 441.415 454.632H425.095V484.776H441.415ZM540.881 446.28V513.48H531.281V483.528H492.689V513.48H483.089V446.28H492.689V475.176H531.281V446.28H540.881ZM605.519 496.68H569.807L562.415 513.48H552.527L582.959 446.28H592.463L622.991 513.48H612.911L605.519 496.68ZM602.159 489L587.663 456.072L573.167 489H602.159ZM680.65 446.28V513.48H671.242V493.896H652.714C651.562 493.896 650.698 493.864 650.122 493.8L636.682 513.48H626.506L641.386 492.168C636.586 490.568 632.906 487.912 630.346 484.2C627.786 480.424 626.506 475.848 626.506 470.472C626.506 462.856 628.938 456.936 633.802 452.712C638.73 448.424 645.354 446.28 653.674 446.28H680.65ZM636.202 470.376C636.202 475.368 637.642 479.208 640.522 481.896C643.466 484.52 647.786 485.832 653.482 485.832H671.242V454.632H654.058C648.298 454.632 643.882 455.976 640.81 458.664C637.738 461.352 636.202 465.256 636.202 470.376Z" fill="url(#paint18_linear_419_6484)"/>
<path d="M-19.7002 550.95L-25.4803 550.95M-14.1494 552.051L-19.746 552.051M-25.5261 552.051L-38.7378 552.051L-38.7378 533.289L-38.7378 514.526L-25.5261 514.526M-25.5261 552.097L-25.5261 533.335L-25.5261 514.572M-38.7378 549.161L-51.3532 549.161L-51.3532 533.381L-51.3532 517.6L-38.7378 517.6M-34.655 552.189L-38.7378 552.189M-141.954 552.189L-51.3532 552.189L-51.3532 549.207M-19.7919 515.719L-25.572 515.719M-14.2412 514.618L-19.8378 514.618M-34.7009 514.618L-38.7837 514.618M-142 514.618L-51.399 514.618L-51.399 517.6M37 533.243L37 536.133L16.4485 547.969L16.4485 552.005L-19.746 552.005L-19.746 533.243L-19.746 514.481L16.4485 514.481L16.4485 518.518L37 530.353L37 533.243Z" stroke="#0BC1B6" stroke-miterlimit="22.9256"/>
<path d="M37 533.48H704" stroke="#0BC1B6"/>
<path d="M185.432 563.632H150.872L150.968 622.48H141.464V555.28H185.528L185.432 563.632ZM223.172 555.28C231.876 555.28 238.724 557.36 243.716 561.52C248.708 565.68 251.204 571.408 251.204 578.704C251.204 586 248.708 591.728 243.716 595.888C238.724 600.048 231.876 602.128 223.172 602.128H206.564V622.48H196.964V555.28H223.172ZM222.884 593.776C228.964 593.776 233.604 592.496 236.804 589.936C240.004 587.312 241.604 583.568 241.604 578.704C241.604 573.84 240.004 570.128 236.804 567.568C233.604 564.944 228.964 563.632 222.884 563.632H206.564V593.776H222.884ZM304.863 605.68H269.151L261.759 622.48H251.871L282.303 555.28H291.807L322.335 622.48H312.255L304.863 605.68ZM301.503 598L287.007 565.072L272.511 598H301.503ZM375.789 587.632C380.333 588.72 383.757 590.672 386.061 593.488C388.429 596.24 389.613 599.792 389.613 604.144C389.613 609.968 387.469 614.48 383.181 617.68C378.957 620.88 372.781 622.48 364.653 622.48H333.933V555.28H362.829C370.189 555.28 375.917 556.784 380.013 559.792C384.173 562.736 386.253 566.992 386.253 572.56C386.253 576.208 385.325 579.312 383.469 581.872C381.677 584.432 379.117 586.352 375.789 587.632ZM343.437 584.848H362.157C366.829 584.848 370.381 583.92 372.813 582.064C375.309 580.208 376.557 577.488 376.557 573.904C376.557 570.32 375.309 567.6 372.813 565.744C370.317 563.824 366.765 562.864 362.157 562.864H343.437V584.848ZM364.461 614.896C374.765 614.896 379.917 611.056 379.917 603.376C379.917 599.536 378.605 596.72 375.981 594.928C373.421 593.072 369.581 592.144 364.461 592.144H343.437V614.896H364.461ZM405.652 555.28H415.156V607.12L454.9 555.28H463.732V622.48H454.324V570.736L414.484 622.48H405.652V555.28ZM510.891 555.28C519.595 555.28 526.443 557.36 531.435 561.52C536.427 565.68 538.923 571.408 538.923 578.704C538.923 586 536.427 591.728 531.435 595.888C526.443 600.048 519.595 602.128 510.891 602.128H494.283V622.48H484.683V555.28H510.891ZM510.603 593.776C516.683 593.776 521.323 592.496 524.523 589.936C527.723 587.312 529.323 583.568 529.323 578.704C529.323 573.84 527.723 570.128 524.523 567.568C521.323 564.944 516.683 563.632 510.603 563.632H494.283V593.776H510.603ZM583.454 623.248C576.67 623.248 570.558 621.776 565.118 618.832C559.678 615.824 555.39 611.696 552.254 606.448C549.182 601.2 547.646 595.344 547.646 588.88C547.646 582.416 549.182 576.56 552.254 571.312C555.39 566.064 559.678 561.968 565.118 559.024C570.558 556.016 576.67 554.512 583.454 554.512C590.174 554.512 596.254 556.016 601.694 559.024C607.134 561.968 611.39 566.064 614.462 571.312C617.534 576.496 619.07 582.352 619.07 588.88C619.07 595.408 617.534 601.296 614.462 606.544C611.39 611.728 607.134 615.824 601.694 618.832C596.254 621.776 590.174 623.248 583.454 623.248ZM583.454 614.704C588.382 614.704 592.798 613.584 596.702 611.344C600.67 609.104 603.774 606.032 606.014 602.128C608.318 598.16 609.47 593.744 609.47 588.88C609.47 584.016 608.318 579.632 606.014 575.728C603.774 571.76 600.67 568.656 596.702 566.416C592.798 564.176 588.382 563.056 583.454 563.056C578.526 563.056 574.046 564.176 570.014 566.416C566.046 568.656 562.91 571.76 560.606 575.728C558.366 579.632 557.246 584.016 557.246 588.88C557.246 593.744 558.366 598.16 560.606 602.128C562.91 606.032 566.046 609.104 570.014 611.344C574.046 613.584 578.526 614.704 583.454 614.704ZM676.445 587.632C680.989 588.72 684.413 590.672 686.717 593.488C689.085 596.24 690.269 599.792 690.269 604.144C690.269 609.968 688.125 614.48 683.837 617.68C679.613 620.88 673.437 622.48 665.309 622.48H634.589V555.28H663.485C670.845 555.28 676.573 556.784 680.669 559.792C684.829 562.736 686.909 566.992 686.909 572.56C686.909 576.208 685.981 579.312 684.125 581.872C682.333 584.432 679.773 586.352 676.445 587.632ZM644.093 584.848H662.813C667.485 584.848 671.037 583.92 673.469 582.064C675.965 580.208 677.213 577.488 677.213 573.904C677.213 570.32 675.965 567.6 673.469 565.744C670.973 563.824 667.421 562.864 662.813 562.864H644.093V584.848ZM665.117 614.896C675.421 614.896 680.573 611.056 680.573 603.376C680.573 599.536 679.261 596.72 676.637 594.928C674.077 593.072 670.237 592.144 665.117 592.144H644.093V614.896H665.117ZM729.732 592.912H715.716V622.48H706.308V555.28H715.716V584.464H729.924L751.044 555.28H761.316L737.316 587.824L762.468 622.48H751.524L729.732 592.912ZM815.05 605.68H779.338L771.946 622.48H762.058L792.49 555.28H801.994L832.522 622.48H822.442L815.05 605.68ZM811.69 598L797.194 565.072L782.698 598H811.69Z" fill="white"/>
</g>
<defs>
<filter id="filter0_f_419_6484" x="-413" y="-231" width="2266" height="1236" filterUnits="userSpaceOnUse" color-interpolation-filters="sRGB">
<feFlood flood-opacity="0" result="BackgroundImageFix"/>
<feBlend mode="normal" in="SourceGraphic" in2="BackgroundImageFix" result="shape"/>
<feGaussianBlur stdDeviation="115.5" result="effect1_foregroundBlur_419_6484"/>
</filter>
<filter id="filter1_f_419_6484" x="1218.31" y="345.891" width="58.7549" height="58.7549" filterUnits="userSpaceOnUse" color-interpolation-filters="sRGB">
<feFlood flood-opacity="0" result="BackgroundImageFix"/>
<feBlend mode="normal" in="SourceGraphic" in2="BackgroundImageFix" result="shape"/>
<feGaussianBlur stdDeviation="12" result="effect1_foregroundBlur_419_6484"/>
</filter>
<filter id="filter2_f_419_6484" x="1228.99" y="356.563" width="37.4106" height="37.4106" filterUnits="userSpaceOnUse" color-interpolation-filters="sRGB">
<feFlood flood-opacity="0" result="BackgroundImageFix"/>
<feBlend mode="normal" in="SourceGraphic" in2="BackgroundImageFix" result="shape"/>
<feGaussianBlur stdDeviation="7" result="effect1_foregroundBlur_419_6484"/>
</filter>
<filter id="filter3_f_419_6484" x="1067.74" y="300.854" width="58.7549" height="58.7549" filterUnits="userSpaceOnUse" color-interpolation-filters="sRGB">
<feFlood flood-opacity="0" result="BackgroundImageFix"/>
<feBlend mode="normal" in="SourceGraphic" in2="BackgroundImageFix" result="shape"/>
<feGaussianBlur stdDeviation="12" result="effect1_foregroundBlur_419_6484"/>
</filter>
<filter id="filter4_f_419_6484" x="1078.42" y="311.527" width="37.4106" height="37.4106" filterUnits="userSpaceOnUse" color-interpolation-filters="sRGB">
<feFlood flood-opacity="0" result="BackgroundImageFix"/>
<feBlend mode="normal" in="SourceGraphic" in2="BackgroundImageFix" result="shape"/>
<feGaussianBlur stdDeviation="7" result="effect1_foregroundBlur_419_6484"/>
</filter>
<filter id="filter5_f_419_6484" x="829.117" y="278" width="58.7549" height="58.7549" filterUnits="userSpaceOnUse" color-interpolation-filters="sRGB">
<feFlood flood-opacity="0" result="BackgroundImageFix"/>
<feBlend mode="normal" in="SourceGraphic" in2="BackgroundImageFix" result="shape"/>
<feGaussianBlur stdDeviation="12" result="effect1_foregroundBlur_419_6484"/>
</filter>
<filter id="filter6_f_419_6484" x="839.789" y="288.672" width="37.4106" height="37.4106" filterUnits="userSpaceOnUse" color-interpolation-filters="sRGB">
<feFlood flood-opacity="0" result="BackgroundImageFix"/>
<feBlend mode="normal" in="SourceGraphic" in2="BackgroundImageFix" result="shape"/>
<feGaussianBlur stdDeviation="7" result="effect1_foregroundBlur_419_6484"/>
</filter>
<filter id="filter7_f_419_6484" x="669.117" y="499.803" width="68.2041" height="68.2041" filterUnits="userSpaceOnUse" color-interpolation-filters="sRGB">
<feFlood flood-opacity="0" result="BackgroundImageFix"/>
<feBlend mode="normal" in="SourceGraphic" in2="BackgroundImageFix" result="shape"/>
<feGaussianBlur stdDeviation="12" result="effect1_foregroundBlur_419_6484"/>
</filter>
<filter id="filter8_f_419_6484" x="680.379" y="511.065" width="45.6787" height="45.6787" filterUnits="userSpaceOnUse" color-interpolation-filters="sRGB">
<feFlood flood-opacity="0" result="BackgroundImageFix"/>
<feBlend mode="normal" in="SourceGraphic" in2="BackgroundImageFix" result="shape"/>
<feGaussianBlur stdDeviation="7" result="effect1_foregroundBlur_419_6484"/>
</filter>
<filter id="filter9_f_419_6484" x="769.292" y="696.773" width="58.7549" height="58.7549" filterUnits="userSpaceOnUse" color-interpolation-filters="sRGB">
<feFlood flood-opacity="0" result="BackgroundImageFix"/>
<feBlend mode="normal" in="SourceGraphic" in2="BackgroundImageFix" result="shape"/>
<feGaussianBlur stdDeviation="12" result="effect1_foregroundBlur_419_6484"/>
</filter>
<filter id="filter10_f_419_6484" x="779.964" y="707.446" width="37.4106" height="37.4106" filterUnits="userSpaceOnUse" color-interpolation-filters="sRGB">
<feFlood flood-opacity="0" result="BackgroundImageFix"/>
<feBlend mode="normal" in="SourceGraphic" in2="BackgroundImageFix" result="shape"/>
<feGaussianBlur stdDeviation="7" result="effect1_foregroundBlur_419_6484"/>
</filter>
<filter id="filter11_f_419_6484" x="958.85" y="747.188" width="58.7549" height="58.7549" filterUnits="userSpaceOnUse" color-interpolation-filters="sRGB">
<feFlood flood-opacity="0" result="BackgroundImageFix"/>
<feBlend mode="normal" in="SourceGraphic" in2="BackgroundImageFix" result="shape"/>
<feGaussianBlur stdDeviation="12" result="effect1_foregroundBlur_419_6484"/>
</filter>
<filter id="filter12_f_419_6484" x="969.521" y="757.86" width="37.4106" height="37.4106" filterUnits="userSpaceOnUse" color-interpolation-filters="sRGB">
<feFlood flood-opacity="0" result="BackgroundImageFix"/>
<feBlend mode="normal" in="SourceGraphic" in2="BackgroundImageFix" result="shape"/>
<feGaussianBlur stdDeviation="7" result="effect1_foregroundBlur_419_6484"/>
</filter>
<filter id="filter13_f_419_6484" x="1054.3" y="677.952" width="58.7549" height="58.7549" filterUnits="userSpaceOnUse" color-interpolation-filters="sRGB">
<feFlood flood-opacity="0" result="BackgroundImageFix"/>
<feBlend mode="normal" in="SourceGraphic" in2="BackgroundImageFix" result="shape"/>
<feGaussianBlur stdDeviation="12" result="effect1_foregroundBlur_419_6484"/>
</filter>
<filter id="filter14_f_419_6484" x="1064.97" y="688.625" width="37.4106" height="37.4106" filterUnits="userSpaceOnUse" color-interpolation-filters="sRGB">
<feFlood flood-opacity="0" result="BackgroundImageFix"/>
<feBlend mode="normal" in="SourceGraphic" in2="BackgroundImageFix" result="shape"/>
<feGaussianBlur stdDeviation="7" result="effect1_foregroundBlur_419_6484"/>
</filter>
<filter id="filter15_f_419_6484" x="1054.3" y="569.73" width="58.7549" height="58.7549" filterUnits="userSpaceOnUse" color-interpolation-filters="sRGB">
<feFlood flood-opacity="0" result="BackgroundImageFix"/>
<feBlend mode="normal" in="SourceGraphic" in2="BackgroundImageFix" result="shape"/>
<feGaussianBlur stdDeviation="12" result="effect1_foregroundBlur_419_6484"/>
</filter>
<filter id="filter16_f_419_6484" x="1064.97" y="580.402" width="37.4106" height="37.4106" filterUnits="userSpaceOnUse" color-interpolation-filters="sRGB">
<feFlood flood-opacity="0" result="BackgroundImageFix"/>
<feBlend mode="normal" in="SourceGraphic" in2="BackgroundImageFix" result="shape"/>
<feGaussianBlur stdDeviation="7" result="effect1_foregroundBlur_419_6484"/>
</filter>
<filter id="filter17_f_419_6484" x="994.476" y="588.551" width="58.7549" height="58.7549" filterUnits="userSpaceOnUse" color-interpolation-filters="sRGB">
<feFlood flood-opacity="0" result="BackgroundImageFix"/>
<feBlend mode="normal" in="SourceGraphic" in2="BackgroundImageFix" result="shape"/>
<feGaussianBlur stdDeviation="12" result="effect1_foregroundBlur_419_6484"/>
</filter>
<filter id="filter18_f_419_6484" x="1005.15" y="599.223" width="37.4106" height="37.4106" filterUnits="userSpaceOnUse" color-interpolation-filters="sRGB">
<feFlood flood-opacity="0" result="BackgroundImageFix"/>
<feBlend mode="normal" in="SourceGraphic" in2="BackgroundImageFix" result="shape"/>
<feGaussianBlur stdDeviation="7" result="effect1_foregroundBlur_419_6484"/>
</filter>
<filter id="filter19_f_419_6484" x="983.048" y="647.704" width="58.7549" height="58.7549" filterUnits="userSpaceOnUse" color-interpolation-filters="sRGB">
<feFlood flood-opacity="0" result="BackgroundImageFix"/>
<feBlend mode="normal" in="SourceGraphic" in2="BackgroundImageFix" result="shape"/>
<feGaussianBlur stdDeviation="12" result="effect1_foregroundBlur_419_6484"/>
</filter>
<filter id="filter20_f_419_6484" x="993.72" y="658.376" width="37.4106" height="37.4106" filterUnits="userSpaceOnUse" color-interpolation-filters="sRGB">
<feFlood flood-opacity="0" result="BackgroundImageFix"/>
<feBlend mode="normal" in="SourceGraphic" in2="BackgroundImageFix" result="shape"/>
<feGaussianBlur stdDeviation="7" result="effect1_foregroundBlur_419_6484"/>
</filter>
<filter id="filter21_f_419_6484" x="910.452" y="669.886" width="58.7549" height="58.7549" filterUnits="userSpaceOnUse" color-interpolation-filters="sRGB">
<feFlood flood-opacity="0" result="BackgroundImageFix"/>
<feBlend mode="normal" in="SourceGraphic" in2="BackgroundImageFix" result="shape"/>
<feGaussianBlur stdDeviation="12" result="effect1_foregroundBlur_419_6484"/>
</filter>
<filter id="filter22_f_419_6484" x="921.124" y="680.558" width="37.4106" height="37.4106" filterUnits="userSpaceOnUse" color-interpolation-filters="sRGB">
<feFlood flood-opacity="0" result="BackgroundImageFix"/>
<feBlend mode="normal" in="SourceGraphic" in2="BackgroundImageFix" result="shape"/>
<feGaussianBlur stdDeviation="7" result="effect1_foregroundBlur_419_6484"/>
</filter>
<filter id="filter23_f_419_6484" x="821.723" y="606.7" width="58.7549" height="58.7549" filterUnits="userSpaceOnUse" color-interpolation-filters="sRGB">
<feFlood flood-opacity="0" result="BackgroundImageFix"/>
<feBlend mode="normal" in="SourceGraphic" in2="BackgroundImageFix" result="shape"/>
<feGaussianBlur stdDeviation="12" result="effect1_foregroundBlur_419_6484"/>
</filter>
<filter id="filter24_f_419_6484" x="832.395" y="617.372" width="37.4106" height="37.4106" filterUnits="userSpaceOnUse" color-interpolation-filters="sRGB">
<feFlood flood-opacity="0" result="BackgroundImageFix"/>
<feBlend mode="normal" in="SourceGraphic" in2="BackgroundImageFix" result="shape"/>
<feGaussianBlur stdDeviation="7" result="effect1_foregroundBlur_419_6484"/>
</filter>
<filter id="filter25_f_419_6484" x="817.689" y="492.428" width="58.7549" height="58.7549" filterUnits="userSpaceOnUse" color-interpolation-filters="sRGB">
<feFlood flood-opacity="0" result="BackgroundImageFix"/>
<feBlend mode="normal" in="SourceGraphic" in2="BackgroundImageFix" result="shape"/>
<feGaussianBlur stdDeviation="12" result="effect1_foregroundBlur_419_6484"/>
</filter>
<filter id="filter26_f_419_6484" x="828.361" y="503.101" width="37.4106" height="37.4106" filterUnits="userSpaceOnUse" color-interpolation-filters="sRGB">
<feFlood flood-opacity="0" result="BackgroundImageFix"/>
<feBlend mode="normal" in="SourceGraphic" in2="BackgroundImageFix" result="shape"/>
<feGaussianBlur stdDeviation="7" result="effect1_foregroundBlur_419_6484"/>
</filter>
<filter id="filter27_f_419_6484" x="966.916" y="435.292" width="58.7549" height="58.7549" filterUnits="userSpaceOnUse" color-interpolation-filters="sRGB">
<feFlood flood-opacity="0" result="BackgroundImageFix"/>
<feBlend mode="normal" in="SourceGraphic" in2="BackgroundImageFix" result="shape"/>
<feGaussianBlur stdDeviation="12" result="effect1_foregroundBlur_419_6484"/>
</filter>
<filter id="filter28_f_419_6484" x="977.587" y="445.964" width="37.4106" height="37.4106" filterUnits="userSpaceOnUse" color-interpolation-filters="sRGB">
<feFlood flood-opacity="0" result="BackgroundImageFix"/>
<feBlend mode="normal" in="SourceGraphic" in2="BackgroundImageFix" result="shape"/>
<feGaussianBlur stdDeviation="7" result="effect1_foregroundBlur_419_6484"/>
</filter>
<filter id="filter29_f_419_6484" x="1011.28" y="524.693" width="58.7549" height="58.7549" filterUnits="userSpaceOnUse" color-interpolation-filters="sRGB">
<feFlood flood-opacity="0" result="BackgroundImageFix"/>
<feBlend mode="normal" in="SourceGraphic" in2="BackgroundImageFix" result="shape"/>
<feGaussianBlur stdDeviation="12" result="effect1_foregroundBlur_419_6484"/>
</filter>
<filter id="filter30_f_419_6484" x="1021.95" y="535.366" width="37.4106" height="37.4106" filterUnits="userSpaceOnUse" color-interpolation-filters="sRGB">
<feFlood flood-opacity="0" result="BackgroundImageFix"/>
<feBlend mode="normal" in="SourceGraphic" in2="BackgroundImageFix" result="shape"/>
<feGaussianBlur stdDeviation="7" result="effect1_foregroundBlur_419_6484"/>
</filter>
<filter id="filter31_f_419_6484" x="1372.25" y="618.127" width="58.7549" height="58.7549" filterUnits="userSpaceOnUse" color-interpolation-filters="sRGB">
<feFlood flood-opacity="0" result="BackgroundImageFix"/>
<feBlend mode="normal" in="SourceGraphic" in2="BackgroundImageFix" result="shape"/>
<feGaussianBlur stdDeviation="12" result="effect1_foregroundBlur_419_6484"/>
</filter>
<filter id="filter32_f_419_6484" x="1382.92" y="628.8" width="37.4106" height="37.4106" filterUnits="userSpaceOnUse" color-interpolation-filters="sRGB">
<feFlood flood-opacity="0" result="BackgroundImageFix"/>
<feBlend mode="normal" in="SourceGraphic" in2="BackgroundImageFix" result="shape"/>
<feGaussianBlur stdDeviation="7" result="effect1_foregroundBlur_419_6484"/>
</filter>
<filter id="filter33_f_419_6484" x="1321.16" y="737.777" width="58.7549" height="58.7549" filterUnits="userSpaceOnUse" color-interpolation-filters="sRGB">
<feFlood flood-opacity="0" result="BackgroundImageFix"/>
<feBlend mode="normal" in="SourceGraphic" in2="BackgroundImageFix" result="shape"/>
<feGaussianBlur stdDeviation="12" result="effect1_foregroundBlur_419_6484"/>
</filter>
<filter id="filter34_f_419_6484" x="1331.83" y="748.449" width="37.4106" height="37.4106" filterUnits="userSpaceOnUse" color-interpolation-filters="sRGB">
<feFlood flood-opacity="0" result="BackgroundImageFix"/>
<feBlend mode="normal" in="SourceGraphic" in2="BackgroundImageFix" result="shape"/>
<feGaussianBlur stdDeviation="7" result="effect1_foregroundBlur_419_6484"/>
</filter>
<filter id="filter35_f_419_6484" x="1172.61" y="708.873" width="58.7549" height="58.7549" filterUnits="userSpaceOnUse" color-interpolation-filters="sRGB">
<feFlood flood-opacity="0" result="BackgroundImageFix"/>
<feBlend mode="normal" in="SourceGraphic" in2="BackgroundImageFix" result="shape"/>
<feGaussianBlur stdDeviation="12" result="effect1_foregroundBlur_419_6484"/>
</filter>
<filter id="filter36_f_419_6484" x="1183.28" y="719.545" width="37.4106" height="37.4106" filterUnits="userSpaceOnUse" color-interpolation-filters="sRGB">
<feFlood flood-opacity="0" result="BackgroundImageFix"/>
<feBlend mode="normal" in="SourceGraphic" in2="BackgroundImageFix" result="shape"/>
<feGaussianBlur stdDeviation="7" result="effect1_foregroundBlur_419_6484"/>
</filter>
<filter id="filter37_f_419_6484" x="941" y="940" width="58.7549" height="58.7549" filterUnits="userSpaceOnUse" color-interpolation-filters="sRGB">
<feFlood flood-opacity="0" result="BackgroundImageFix"/>
<feBlend mode="normal" in="SourceGraphic" in2="BackgroundImageFix" result="shape"/>
<feGaussianBlur stdDeviation="12" result="effect1_foregroundBlur_419_6484"/>
</filter>
<filter id="filter38_f_419_6484" x="951.672" y="950.672" width="37.4106" height="37.4106" filterUnits="userSpaceOnUse" color-interpolation-filters="sRGB">
<feFlood flood-opacity="0" result="BackgroundImageFix"/>
<feBlend mode="normal" in="SourceGraphic" in2="BackgroundImageFix" result="shape"/>
<feGaussianBlur stdDeviation="7" result="effect1_foregroundBlur_419_6484"/>
</filter>
<filter id="filter39_f_419_6484" x="1092.43" y="325.543" width="9.37744" height="9.37744" filterUnits="userSpaceOnUse" color-interpolation-filters="sRGB">
<feFlood flood-opacity="0" result="BackgroundImageFix"/>
<feBlend mode="normal" in="SourceGraphic" in2="BackgroundImageFix" result="shape"/>
<feGaussianBlur stdDeviation="1" result="effect1_foregroundBlur_419_6484"/>
</filter>
<filter id="filter40_f_419_6484" x="1243" y="370.58" width="9.37744" height="9.37744" filterUnits="userSpaceOnUse" color-interpolation-filters="sRGB">
<feFlood flood-opacity="0" result="BackgroundImageFix"/>
<feBlend mode="normal" in="SourceGraphic" in2="BackgroundImageFix" result="shape"/>
<feGaussianBlur stdDeviation="1" result="effect1_foregroundBlur_419_6484"/>
</filter>
<filter id="filter41_f_419_6484" x="853.806" y="302.688" width="9.37744" height="9.37744" filterUnits="userSpaceOnUse" color-interpolation-filters="sRGB">
<feFlood flood-opacity="0" result="BackgroundImageFix"/>
<feBlend mode="normal" in="SourceGraphic" in2="BackgroundImageFix" result="shape"/>
<feGaussianBlur stdDeviation="1" result="effect1_foregroundBlur_419_6484"/>
</filter>
<filter id="filter42_f_419_6484" x="793.981" y="721.462" width="9.37744" height="9.37744" filterUnits="userSpaceOnUse" color-interpolation-filters="sRGB">
<feFlood flood-opacity="0" result="BackgroundImageFix"/>
<feBlend mode="normal" in="SourceGraphic" in2="BackgroundImageFix" result="shape"/>
<feGaussianBlur stdDeviation="1" result="effect1_foregroundBlur_419_6484"/>
</filter>
<filter id="filter43_f_419_6484" x="695.841" y="526.389" width="14.6421" height="14.6421" filterUnits="userSpaceOnUse" color-interpolation-filters="sRGB">
<feFlood flood-opacity="0" result="BackgroundImageFix"/>
<feBlend mode="normal" in="SourceGraphic" in2="BackgroundImageFix" result="shape"/>
<feGaussianBlur stdDeviation="1" result="effect1_foregroundBlur_419_6484"/>
</filter>
<filter id="filter44_f_419_6484" x="983.538" y="771.876" width="9.37744" height="9.37744" filterUnits="userSpaceOnUse" color-interpolation-filters="sRGB">
<feFlood flood-opacity="0" result="BackgroundImageFix"/>
<feBlend mode="normal" in="SourceGraphic" in2="BackgroundImageFix" result="shape"/>
<feGaussianBlur stdDeviation="1" result="effect1_foregroundBlur_419_6484"/>
</filter>
<filter id="filter45_f_419_6484" x="1078.99" y="702.641" width="9.37744" height="9.37744" filterUnits="userSpaceOnUse" color-interpolation-filters="sRGB">
<feFlood flood-opacity="0" result="BackgroundImageFix"/>
<feBlend mode="normal" in="SourceGraphic" in2="BackgroundImageFix" result="shape"/>
<feGaussianBlur stdDeviation="1" result="effect1_foregroundBlur_419_6484"/>
</filter>
<filter id="filter46_f_419_6484" x="1078.99" y="594.418" width="9.37744" height="9.37744" filterUnits="userSpaceOnUse" color-interpolation-filters="sRGB">
<feFlood flood-opacity="0" result="BackgroundImageFix"/>
<feBlend mode="normal" in="SourceGraphic" in2="BackgroundImageFix" result="shape"/>
<feGaussianBlur stdDeviation="1" result="effect1_foregroundBlur_419_6484"/>
</filter>
<filter id="filter47_f_419_6484" x="1019.16" y="613.24" width="9.37744" height="9.37744" filterUnits="userSpaceOnUse" color-interpolation-filters="sRGB">
<feFlood flood-opacity="0" result="BackgroundImageFix"/>
<feBlend mode="normal" in="SourceGraphic" in2="BackgroundImageFix" result="shape"/>
<feGaussianBlur stdDeviation="1" result="effect1_foregroundBlur_419_6484"/>
</filter>
<filter id="filter48_f_419_6484" x="935.14" y="694.575" width="9.37744" height="9.37744" filterUnits="userSpaceOnUse" color-interpolation-filters="sRGB">
<feFlood flood-opacity="0" result="BackgroundImageFix"/>
<feBlend mode="normal" in="SourceGraphic" in2="BackgroundImageFix" result="shape"/>
<feGaussianBlur stdDeviation="1" result="effect1_foregroundBlur_419_6484"/>
</filter>
<filter id="filter49_f_419_6484" x="1007.74" y="672.393" width="9.37744" height="9.37744" filterUnits="userSpaceOnUse" color-interpolation-filters="sRGB">
<feFlood flood-opacity="0" result="BackgroundImageFix"/>
<feBlend mode="normal" in="SourceGraphic" in2="BackgroundImageFix" result="shape"/>
<feGaussianBlur stdDeviation="1" result="effect1_foregroundBlur_419_6484"/>
</filter>
<filter id="filter50_f_419_6484" x="846.412" y="631.389" width="9.37744" height="9.37744" filterUnits="userSpaceOnUse" color-interpolation-filters="sRGB">
<feFlood flood-opacity="0" result="BackgroundImageFix"/>
<feBlend mode="normal" in="SourceGraphic" in2="BackgroundImageFix" result="shape"/>
<feGaussianBlur stdDeviation="1" result="effect1_foregroundBlur_419_6484"/>
</filter>
<filter id="filter51_f_419_6484" x="842.378" y="517.117" width="9.37744" height="9.37744" filterUnits="userSpaceOnUse" color-interpolation-filters="sRGB">
<feFlood flood-opacity="0" result="BackgroundImageFix"/>
<feBlend mode="normal" in="SourceGraphic" in2="BackgroundImageFix" result="shape"/>
<feGaussianBlur stdDeviation="1" result="effect1_foregroundBlur_419_6484"/>
</filter>
<filter id="filter52_f_419_6484" x="1035.97" y="549.382" width="9.37744" height="9.37744" filterUnits="userSpaceOnUse" color-interpolation-filters="sRGB">
<feFlood flood-opacity="0" result="BackgroundImageFix"/>
<feBlend mode="normal" in="SourceGraphic" in2="BackgroundImageFix" result="shape"/>
<feGaussianBlur stdDeviation="1" result="effect1_foregroundBlur_419_6484"/>
</filter>
<filter id="filter53_f_419_6484" x="991.604" y="459.98" width="9.37744" height="9.37744" filterUnits="userSpaceOnUse" color-interpolation-filters="sRGB">
<feFlood flood-opacity="0" result="BackgroundImageFix"/>
<feBlend mode="normal" in="SourceGraphic" in2="BackgroundImageFix" result="shape"/>
<feGaussianBlur stdDeviation="1" result="effect1_foregroundBlur_419_6484"/>
</filter>
<filter id="filter54_f_419_6484" x="1396.93" y="642.816" width="9.37744" height="9.37744" filterUnits="userSpaceOnUse" color-interpolation-filters="sRGB">
<feFlood flood-opacity="0" result="BackgroundImageFix"/>
<feBlend mode="normal" in="SourceGraphic" in2="BackgroundImageFix" result="shape"/>
<feGaussianBlur stdDeviation="1" result="effect1_foregroundBlur_419_6484"/>
</filter>
<filter id="filter55_f_419_6484" x="1345.85" y="762.466" width="9.37744" height="9.37744" filterUnits="userSpaceOnUse" color-interpolation-filters="sRGB">
<feFlood flood-opacity="0" result="BackgroundImageFix"/>
<feBlend mode="normal" in="SourceGraphic" in2="BackgroundImageFix" result="shape"/>
<feGaussianBlur stdDeviation="1" result="effect1_foregroundBlur_419_6484"/>
</filter>
<filter id="filter56_f_419_6484" x="1197.29" y="733.562" width="9.37744" height="9.37744" filterUnits="userSpaceOnUse" color-interpolation-filters="sRGB">
<feFlood flood-opacity="0" result="BackgroundImageFix"/>
<feBlend mode="normal" in="SourceGraphic" in2="BackgroundImageFix" result="shape"/>
<feGaussianBlur stdDeviation="1" result="effect1_foregroundBlur_419_6484"/>
</filter>
<filter id="filter57_f_419_6484" x="965.689" y="964.688" width="9.37744" height="9.37744" filterUnits="userSpaceOnUse" color-interpolation-filters="sRGB">
<feFlood flood-opacity="0" result="BackgroundImageFix"/>
<feBlend mode="normal" in="SourceGraphic" in2="BackgroundImageFix" result="shape"/>
<feGaussianBlur stdDeviation="1" result="effect1_foregroundBlur_419_6484"/>
</filter>
<linearGradient id="paint0_linear_419_6484" x1="1247.64" y1="374.662" x2="1150.12" y2="427.943" gradientUnits="userSpaceOnUse">
<stop offset="0.161458" stop-color="white"/>
<stop offset="0.518348" stop-color="white" stop-opacity="0.3"/>
<stop offset="0.859375" stop-color="white"/>
</linearGradient>
<linearGradient id="paint1_linear_419_6484" x1="1096.93" y1="330.585" x2="1072.38" y2="392.217" gradientUnits="userSpaceOnUse">
<stop offset="0.161458" stop-color="white"/>
<stop offset="0.518348" stop-color="white" stop-opacity="0.3"/>
<stop offset="0.859375" stop-color="white"/>
</linearGradient>
<linearGradient id="paint2_linear_419_6484" x1="1202.15" y1="737.941" x2="1112.57" y2="803.346" gradientUnits="userSpaceOnUse">
<stop offset="0.161458" stop-color="white"/>
<stop offset="0.518348" stop-color="white" stop-opacity="0.3"/>
<stop offset="0.859375" stop-color="white"/>
</linearGradient>
<linearGradient id="paint3_linear_419_6484" x1="1350.73" y1="767.089" x2="1297.68" y2="825.179" gradientUnits="userSpaceOnUse">
<stop offset="0.161458" stop-color="white"/>
<stop offset="0.518348" stop-color="white" stop-opacity="0.3"/>
<stop offset="0.859375" stop-color="white"/>
</linearGradient>
<linearGradient id="paint4_linear_419_6484" x1="1401.91" y1="647.655" x2="1327.33" y2="664.696" gradientUnits="userSpaceOnUse">
<stop offset="0.161458" stop-color="white"/>
<stop offset="0.518348" stop-color="white" stop-opacity="0.3"/>
<stop offset="0.859375" stop-color="white"/>
</linearGradient>
<linearGradient id="paint5_linear_419_6484" x1="1247.64" y1="374.662" x2="1191.74" y2="594.114" gradientUnits="userSpaceOnUse">
<stop offset="0.161458" stop-color="white"/>
<stop offset="0.518348" stop-color="white" stop-opacity="0.3"/>
<stop offset="0.859375" stop-color="white"/>
</linearGradient>
<linearGradient id="paint6_linear_419_6484" x1="858.772" y1="307.125" x2="648.432" y2="384.353" gradientUnits="userSpaceOnUse">
<stop offset="0.161458" stop-color="white"/>
<stop offset="0.518348" stop-color="white" stop-opacity="0.3"/>
<stop offset="0.859375" stop-color="white"/>
</linearGradient>
<linearGradient id="paint7_linear_419_6484" x1="703.081" y1="533.908" x2="649.301" y2="664.456" gradientUnits="userSpaceOnUse">
<stop offset="0.161458" stop-color="white"/>
<stop offset="0.518348" stop-color="white" stop-opacity="0.3"/>
<stop offset="0.859375" stop-color="white"/>
</linearGradient>
<linearGradient id="paint8_linear_419_6484" x1="988.159" y1="776.331" x2="879.945" y2="847.997" gradientUnits="userSpaceOnUse">
<stop offset="0.161458" stop-color="white"/>
<stop offset="0.518348" stop-color="white" stop-opacity="0.3"/>
<stop offset="0.859375" stop-color="white"/>
</linearGradient>
<linearGradient id="paint9_linear_419_6484" x1="1083.42" y1="707.372" x2="988.733" y2="777.109" gradientUnits="userSpaceOnUse">
<stop offset="0.161458" stop-color="white"/>
<stop offset="0.518348" stop-color="white" stop-opacity="0.3"/>
<stop offset="0.859375" stop-color="white"/>
</linearGradient>
<linearGradient id="paint10_linear_419_6484" x1="1083.42" y1="597.535" x2="1083.42" y2="707.372" gradientUnits="userSpaceOnUse">
<stop offset="0.161458" stop-color="white"/>
<stop offset="0.518348" stop-color="white" stop-opacity="0.3"/>
<stop offset="0.859375" stop-color="white"/>
</linearGradient>
<linearGradient id="paint11_linear_419_6484" x1="1083.42" y1="599.312" x2="1060.48" y2="639.302" gradientUnits="userSpaceOnUse">
<stop offset="0.161458" stop-color="white"/>
<stop offset="0.518348" stop-color="white" stop-opacity="0.3"/>
<stop offset="0.859375" stop-color="white"/>
</linearGradient>
<linearGradient id="paint12_linear_419_6484" x1="1022.99" y1="617.796" x2="1006.79" y2="619.338" gradientUnits="userSpaceOnUse">
<stop offset="0.161458" stop-color="white"/>
<stop offset="0.518348" stop-color="white" stop-opacity="0.3"/>
<stop offset="0.859375" stop-color="white"/>
</linearGradient>
<linearGradient id="paint13_linear_419_6484" x1="1012.33" y1="676.802" x2="983.735" y2="725.396" gradientUnits="userSpaceOnUse">
<stop offset="0.161458" stop-color="white"/>
<stop offset="0.518348" stop-color="white" stop-opacity="0.3"/>
<stop offset="0.859375" stop-color="white"/>
</linearGradient>
<linearGradient id="paint14_linear_419_6484" x1="939.817" y1="699.551" x2="849.444" y2="636.671" gradientUnits="userSpaceOnUse">
<stop offset="0.161458" stop-color="white"/>
<stop offset="0.518348" stop-color="white" stop-opacity="0.3"/>
<stop offset="0.859375" stop-color="white"/>
</linearGradient>
<linearGradient id="paint15_linear_419_6484" x1="846.687" y1="524.666" x2="840.378" y2="525.267" gradientUnits="userSpaceOnUse">
<stop offset="0.161458" stop-color="white"/>
<stop offset="0.518348" stop-color="white" stop-opacity="0.3"/>
<stop offset="0.859375" stop-color="white"/>
</linearGradient>
<linearGradient id="paint16_linear_419_6484" x1="996.69" y1="464.238" x2="919.445" y2="572.855" gradientUnits="userSpaceOnUse">
<stop offset="0.161458" stop-color="white"/>
<stop offset="0.518348" stop-color="white" stop-opacity="0.3"/>
<stop offset="0.859375" stop-color="white"/>
</linearGradient>
<linearGradient id="paint17_linear_419_6484" x1="996.691" y1="464.238" x2="971.256" y2="524.45" gradientUnits="userSpaceOnUse">
<stop offset="0.161458" stop-color="white"/>
<stop offset="0.518348" stop-color="white" stop-opacity="0.3"/>
<stop offset="0.859375" stop-color="white"/>
</linearGradient>
<linearGradient id="paint18_linear_419_6484" x1="1071.56" y1="478.48" x2="978.414" y2="202.234" gradientUnits="userSpaceOnUse">
<stop stop-color="#9C32AD"/>
<stop offset="0.494792" stop-color="#6E3CFF"/>
<stop offset="1" stop-color="#0BC1B6"/>
</linearGradient>
<clipPath id="clip0_419_6484">
<rect width="1440" height="974" fill="white"/>
</clipPath>
</defs>
</svg>
