<svg width="276" height="258" viewBox="0 0 276 258" fill="none" xmlns="http://www.w3.org/2000/svg">
<g clip-path="url(#clip0_308_1334)">
<g filter="url(#filter0_bi_308_1334)">
<mask id="path-1-inside-1_308_1334" fill="white">
<path d="M0 8C0 3.58173 3.58172 0 8 0H268C272.418 0 276 3.58172 276 8V250C276 254.418 272.418 258 268 258H8C3.58172 258 0 254.418 0 250V8Z"/>
</mask>
<path d="M0 8C0 3.58173 3.58172 0 8 0H268C272.418 0 276 3.58172 276 8V250C276 254.418 272.418 258 268 258H8C3.58172 258 0 254.418 0 250V8Z" fill="white" fill-opacity="0.1"/>
<path d="M0 8C0 2.47715 4.47715 -2 10 -2H266C271.523 -2 276 2.47715 276 8C276 4.68629 272.418 2 268 2H8C3.58172 2 0 4.68629 0 8ZM276 258H0H276ZM0 258V0V258ZM276 0V258V0Z" fill="#0BC1B6" mask="url(#path-1-inside-1_308_1334)"/>
</g>
</g>
<defs>
<filter id="filter0_bi_308_1334" x="-15" y="-15" width="306" height="288" filterUnits="userSpaceOnUse" color-interpolation-filters="sRGB">
<feFlood flood-opacity="0" result="BackgroundImageFix"/>
<feGaussianBlur in="BackgroundImageFix" stdDeviation="7.5"/>
<feComposite in2="SourceAlpha" operator="in" result="effect1_backgroundBlur_308_1334"/>
<feBlend mode="normal" in="SourceGraphic" in2="effect1_backgroundBlur_308_1334" result="shape"/>
<feColorMatrix in="SourceAlpha" type="matrix" values="0 0 0 0 0 0 0 0 0 0 0 0 0 0 0 0 0 0 127 0" result="hardAlpha"/>
<feOffset dy="2"/>
<feGaussianBlur stdDeviation="3"/>
<feComposite in2="hardAlpha" operator="arithmetic" k2="-1" k3="1"/>
<feColorMatrix type="matrix" values="0 0 0 0 1 0 0 0 0 1 0 0 0 0 1 0 0 0 0.25 0"/>
<feBlend mode="normal" in2="shape" result="effect2_innerShadow_308_1334"/>
</filter>
<clipPath id="clip0_308_1334">
<rect width="276" height="258" fill="white"/>
</clipPath>
</defs>
</svg>
