<svg width="24" height="24" viewBox="0 0 24 24" fill="none" xmlns="http://www.w3.org/2000/svg">
<path d="M22 22V3.5C22 3.11667 21.85 2.77083 21.55 2.4625C21.25 2.15417 20.9 2 20.5 2H3.5C3.11667 2 2.77083 2.15417 2.4625 2.4625C2.15417 2.77083 2 3.11667 2 3.5V16.5C2 16.8833 2.15417 17.2292 2.4625 17.5375C2.77083 17.8458 3.11667 18 3.5 18H18L22 22ZM20.5 18.375L18.625 16.5H3.5V3.5H20.5V18.375Z" fill="white"/>
<circle cx="12" cy="10" r="1" fill="white"/>
<circle cx="16" cy="10" r="1" fill="white"/>
<circle cx="8" cy="10" r="1" fill="white"/>
</svg>
