<svg width="81" height="81" viewBox="0 0 81 81" fill="none" xmlns="http://www.w3.org/2000/svg">
<path d="M69.9472 43.7597C69.994 43.3624 70.0897 42.9777 70.2342 42.6053C70.3846 42.2404 70.5734 41.9203 70.8005 41.645L71.4915 42.0184C71.303 42.2513 71.1433 42.5244 71.0124 42.838C70.8881 43.1522 70.8065 43.4749 70.7675 43.806C70.7316 44.1105 70.7372 44.3763 70.7843 44.6034C70.8306 44.8371 70.9097 45.0209 71.0214 45.1549C71.1398 45.2897 71.2851 45.3672 71.4572 45.3875C71.7022 45.4163 71.9037 45.3293 72.0619 45.1264C72.22 44.9235 72.3221 44.6268 72.3681 44.2361L72.4804 43.2827L73.1657 43.3634L73.0604 44.2573C73.0331 44.489 73.0358 44.6941 73.0685 44.8724C73.1012 45.0508 73.1651 45.1926 73.2601 45.2978C73.3609 45.4103 73.4842 45.4752 73.6299 45.4924C73.7888 45.5111 73.9311 45.4708 74.0569 45.3715C74.1827 45.2722 74.2875 45.1234 74.3713 44.9252C74.4543 44.7336 74.5117 44.502 74.5437 44.2306C74.5683 43.965 74.5638 43.6892 74.5304 43.4034C74.4962 43.1241 74.4263 42.8339 74.3208 42.5329L75.096 42.3624C75.2109 42.6981 75.2901 43.0229 75.3337 43.3369C75.3831 43.6582 75.3932 43.9715 75.3639 44.2768C75.3234 44.7353 75.2224 45.1362 75.0612 45.4797C74.9065 45.824 74.7078 46.0859 74.4652 46.2654C74.2217 46.4515 73.951 46.527 73.6531 46.4919C73.4015 46.4623 73.1857 46.3563 73.0058 46.174C72.8325 45.9925 72.7052 45.7627 72.6239 45.4846C72.5425 45.2065 72.5221 44.8953 72.5626 44.5511L72.7864 44.6177C72.717 45.2069 72.5465 45.6568 72.275 45.9671C72.0035 46.2775 71.6691 46.4093 71.2719 46.3625C70.9541 46.3251 70.6852 46.186 70.4651 45.9453C70.2517 45.7053 70.097 45.3951 70.0008 45.0146C69.9105 44.6414 69.8927 44.2232 69.9472 43.7597Z" fill="white"/>
<path d="M68.1067 51.3829L69.1603 51.763L69.3748 51.7872L71.1715 52.4353C71.554 52.5733 71.8895 52.5667 72.1779 52.4156C72.4703 52.273 72.6968 51.9791 72.8574 51.5338C72.9637 51.2391 73.0176 50.9325 73.019 50.6141C73.0268 50.298 72.9842 50.0133 72.8912 49.7601L73.7042 49.6281C73.8184 49.9599 73.8644 50.3237 73.842 50.7196C73.8237 51.1241 73.7433 51.5239 73.6008 51.9189C73.3542 52.6025 72.998 53.0693 72.5322 53.3194C72.0664 53.5695 71.4917 53.5713 70.8081 53.3247L67.798 52.2389L68.1067 51.3829ZM68.6407 49.7258C68.7742 49.3558 68.9545 49.0523 69.1817 48.8154C69.4067 48.5847 69.656 48.4337 69.9298 48.3623C70.2099 48.2933 70.491 48.3096 70.7732 48.4114C71.0429 48.5087 71.2648 48.6596 71.4391 48.8642C71.6111 49.0751 71.7109 49.3485 71.7385 49.6845C71.7639 50.0267 71.6872 50.4456 71.5085 50.941L70.9385 52.5213L70.2894 52.2872L70.8459 50.7445C71.0087 50.293 71.0432 49.9617 70.9492 49.7506C70.8553 49.5395 70.7017 49.3955 70.4885 49.3186C70.2439 49.2304 70.0113 49.2563 69.7907 49.3965C69.5763 49.5388 69.4069 49.7825 69.2825 50.1274C69.1604 50.466 69.1293 50.7879 69.1893 51.0931C69.2471 51.4045 69.3998 51.6686 69.6476 51.8856L68.9623 51.8404C68.7105 51.6149 68.5511 51.32 68.4841 50.9556C68.4234 50.5935 68.4756 50.1836 68.6407 49.7258Z" fill="white"/>
<path d="M65.1165 57.9742L68.5181 60.0976L69.736 58.1465L68.8973 57.564C68.6216 57.3761 68.3596 57.1851 68.1115 56.9909C67.8655 56.8059 67.6498 56.6163 67.4646 56.4221C67.2758 56.2335 67.1425 56.0442 67.0646 55.8541C66.9868 55.6641 66.9839 55.4736 67.0558 55.2828L67.7031 54.567C67.588 54.7387 67.5563 54.9154 67.608 55.097C67.6653 55.2821 67.7838 55.47 67.9634 55.6607C68.1395 55.8571 68.3544 56.0541 68.6082 56.2518C68.8677 56.4531 69.1391 56.654 69.4226 56.8545L70.8987 57.8702L68.7223 61.3567L64.6081 58.7885L65.1165 57.9742ZM66.0583 53.2927L67.8143 54.3888L64.51 59.6822L62.7541 58.586L63.2306 57.8226L64.2741 58.4739L66.6199 54.716L65.5765 54.0646L66.0583 53.2927Z" fill="white"/>
<path d="M60.1372 62.7292L60.9002 63.5491L61.0798 63.6688L62.381 65.067C62.658 65.3647 62.9593 65.5124 63.2849 65.5099C63.6101 65.5169 63.946 65.3592 64.2925 65.0367C64.5219 64.8233 64.7101 64.5753 64.857 64.2929C65.0085 64.0153 65.1009 63.7427 65.1341 63.475L65.9174 63.7296C65.8672 64.0768 65.7416 64.4214 65.5406 64.7632C65.3393 65.1145 65.0849 65.4332 64.7774 65.7193C64.2454 66.2143 63.7151 66.4665 63.1865 66.4757C62.6578 66.485 62.146 66.2237 61.651 65.6917L59.471 63.3491L60.1372 62.7292ZM61.3701 61.4999C61.6581 61.232 61.9573 61.0446 62.2677 60.9378C62.5733 60.8356 62.8641 60.8154 63.1402 60.8772C63.4208 60.9439 63.6633 61.0871 63.8677 61.3067C64.063 61.5166 64.1913 61.7523 64.2527 62.014C64.3091 62.2802 64.2728 62.569 64.1437 62.8804C64.0096 63.1963 63.7499 63.5337 63.3643 63.8925L62.1344 65.0369L61.6644 64.5318L62.865 63.4146C63.2164 63.0876 63.3986 62.8088 63.4116 62.5781C63.4246 62.3474 63.3539 62.1491 63.1995 61.9832C63.0224 61.7928 62.8037 61.7095 62.5434 61.7332C62.2876 61.7617 62.0255 61.9009 61.7571 62.1506C61.4936 62.3959 61.3187 62.6679 61.2325 62.9667C61.1414 63.27 61.1563 63.5748 61.2774 63.8811L60.6887 63.5273C60.568 63.2117 60.5612 62.8765 60.6683 62.5219C60.7799 62.1721 61.0139 61.8314 61.3701 61.4999Z" fill="white"/>
<path d="M56.8052 65.264L59.3713 69.2136L59.0338 69.1347L60.8619 67.947L61.3195 68.6514L57.2609 71.2883L56.8033 70.5839L58.6229 69.4017L58.5663 69.7366L56.0002 65.787L56.8052 65.264Z" fill="white"/>
<path d="M51.8994 71.7351C51.2716 71.9787 50.738 72.0267 50.2986 71.8792C49.8592 71.7317 49.5381 71.4041 49.3353 70.8964C49.1226 70.364 49.1377 69.8805 49.3806 69.4461C49.6259 69.0179 50.078 68.6758 50.7367 68.4199L52.8763 67.576L54.8422 72.4979L53.9507 72.854L53.2868 71.1917L51.8994 71.7351ZM51.0818 69.0682C50.6769 69.2227 50.4056 69.4244 50.2681 69.6731C50.1244 69.9244 50.118 70.214 50.2491 70.5422C50.3777 70.8641 50.5738 71.0586 50.8375 71.1255C51.1011 71.1925 51.4385 71.1475 51.8496 70.9905L53.0271 70.5417L52.2556 68.6101L51.0818 69.0682Z" fill="white"/>
<path d="M42.9929 70.3086L43.2166 75.6038L40.7588 75.7077C40.1393 75.7338 39.6481 75.6345 39.2849 75.4096C38.9154 75.1917 38.7215 74.8662 38.7032 74.4333C38.6849 74.0003 38.8405 73.6568 39.1701 73.4027C39.4933 73.1555 39.9313 73.0202 40.4841 72.9968L40.3453 73.2629C39.7125 73.2897 39.238 73.1929 38.9217 72.9728C38.6055 72.7526 38.4378 72.416 38.4187 71.9631C38.3993 71.5035 38.5572 71.1365 38.8926 70.8621C39.2216 70.5946 39.7392 70.446 40.4452 70.4162L42.9929 70.3086ZM42.085 71.0876L40.5464 71.1526C40.1467 71.1694 39.8495 71.2421 39.6548 71.3704C39.4603 71.5054 39.3688 71.7094 39.3804 71.9825C39.3922 72.2623 39.494 72.4615 39.6858 72.5802C39.8713 72.7058 40.1605 72.7603 40.5535 72.7437L42.1521 72.6762L42.085 71.0876ZM42.1812 73.3655L40.7425 73.4263C40.3762 73.4418 40.1026 73.5201 39.9217 73.6612C39.7344 73.8092 39.646 74.0064 39.6564 74.2529C39.6671 74.506 39.7717 74.6917 39.9702 74.8101C40.1621 74.9288 40.4412 74.9804 40.8075 74.9649L42.2462 74.9042L42.1812 73.3655Z" fill="white"/>
<path d="M33.3509 69.597C33.8732 69.7045 34.3133 69.9142 34.6711 70.2261C35.0289 70.538 35.2844 70.9173 35.4374 71.364C35.5892 71.8172 35.6126 72.2985 35.5078 72.8078C35.4016 73.3237 35.19 73.7566 34.8729 74.1065C34.5558 74.4564 34.172 74.7007 33.7215 74.8394C33.2696 74.9846 32.7824 75.0034 32.2601 74.8959C31.7442 74.7897 31.3074 74.5807 30.9496 74.2688C30.5839 73.9621 30.3278 73.5861 30.1813 73.1407C30.0268 72.7005 30.0034 72.2192 30.1109 71.6969C30.2171 71.181 30.4288 70.7481 30.7458 70.3982C31.0564 70.0469 31.4408 69.7994 31.8993 69.6555C32.3511 69.5103 32.835 69.4908 33.3509 69.597ZM33.1815 70.4197C32.8485 70.3512 32.5359 70.3651 32.2438 70.4615C31.9452 70.5566 31.6925 70.7258 31.4859 70.9692C31.2779 71.219 31.1363 71.5268 31.061 71.8924C30.9844 72.2646 30.9936 72.6001 31.0887 72.8987C31.1824 73.2039 31.3477 73.4591 31.5845 73.6644C31.8148 73.8683 32.0964 74.0046 32.4294 74.0731C32.7624 74.1417 33.075 74.1278 33.3671 74.0313C33.6592 73.9349 33.9119 73.7657 34.125 73.5237C34.3369 73.2883 34.4811 72.9845 34.5577 72.6123C34.633 72.2466 34.6211 71.9072 34.5222 71.5942C34.422 71.2877 34.2567 71.0325 34.0264 70.8285C33.7962 70.6246 33.5145 70.4883 33.1815 70.4197Z" fill="white"/>
<path d="M28.522 68.1916L26.1487 72.9305L21.7585 70.7318L24.1318 65.9929L24.9902 66.4228L22.8855 70.6252L22.7873 70.3077L25.8721 71.8525L25.559 71.9641L27.6636 67.7617L28.522 68.1916Z" fill="white"/>
<path d="M19.9073 62.5967C20.2401 62.8846 20.4797 63.2241 20.6262 63.6152C20.7632 64.0071 20.7841 64.4262 20.6888 64.8726C20.5884 65.3147 20.342 65.7627 19.9494 66.2164C19.5569 66.6702 19.1516 66.9807 18.7336 67.148C18.3106 67.311 17.8975 67.3503 17.4944 67.2661C17.0862 67.1774 16.7107 66.9848 16.3679 66.6882C15.9746 66.348 15.7009 65.9614 15.5467 65.5282C15.3924 65.0951 15.3601 64.6484 15.4497 64.1882C15.5349 63.7331 15.7542 63.3013 16.1075 62.8929C16.4608 62.4845 16.8587 62.2028 17.3012 62.0479C17.7437 61.893 18.1904 61.8607 18.6412 61.951C19.092 62.0413 19.5141 62.2565 19.9073 62.5967ZM23.2625 63.0133L18.5258 68.4888L17.83 67.8869L18.7655 66.8054L19.6156 65.9145L20.3447 64.9188L22.5364 62.3852L23.2625 63.0133ZM19.4183 63.2843C19.1611 63.0619 18.8816 62.9214 18.5796 62.8629C18.2725 62.8001 17.9695 62.8244 17.6703 62.9358C17.3617 63.0479 17.0853 63.2452 16.8411 63.5275C16.5925 63.8149 16.4393 64.1143 16.3814 64.4257C16.3142 64.7378 16.3338 65.0412 16.4402 65.336C16.5416 65.6264 16.7208 65.8828 16.978 66.1053C17.2301 66.3234 17.5096 66.4638 17.8167 66.5267C18.1186 66.5852 18.4217 66.5609 18.7259 66.4538C19.0207 66.3474 19.2924 66.1505 19.541 65.8631C19.7853 65.5808 19.9432 65.2811 20.0148 64.9639C20.077 64.6475 20.0574 64.3441 19.956 64.0536C19.8496 63.7589 19.6704 63.5024 19.4183 63.2843Z" fill="white"/>
<path d="M15.2245 57.234C15.5207 57.6775 15.6866 58.136 15.7221 58.6093C15.7576 59.0826 15.6729 59.532 15.468 59.9574C15.2576 60.3865 14.9362 60.7455 14.5037 61.0343C14.0658 61.3268 13.611 61.4862 13.1396 61.5125C12.6681 61.5388 12.2233 61.443 11.8053 61.2251C11.3817 61.011 11.0218 60.6822 10.7256 60.2387C10.4331 59.8007 10.2691 59.345 10.2335 58.8717C10.1888 58.3966 10.2707 57.9491 10.4793 57.5292C10.6786 57.1074 11 56.7484 11.4436 56.4522C11.8815 56.1597 12.3362 56.0003 12.8077 55.9741C13.2755 55.9423 13.723 56.0362 14.1503 56.2559C14.5739 56.47 14.932 56.7961 15.2245 57.234ZM14.5259 57.7005C14.3371 57.4178 14.1049 57.2081 13.8293 57.0715C13.55 56.9294 13.2513 56.8723 12.9333 56.9003C12.6097 56.932 12.2927 57.0515 11.9823 57.2589C11.6663 57.4699 11.4372 57.7151 11.2951 57.9944C11.1474 58.2775 11.0857 58.5752 11.11 58.8877C11.1306 59.1946 11.2353 59.4894 11.4241 59.7721C11.6129 60.0549 11.8452 60.2646 12.1208 60.4012C12.3964 60.5377 12.695 60.5948 13.0168 60.5724C13.3329 60.5536 13.649 60.4387 13.965 60.2277C14.2755 60.0203 14.5055 59.7705 14.655 59.4783C14.799 59.1897 14.8607 58.892 14.8401 58.585C14.8195 58.2781 14.7148 57.9833 14.5259 57.7005Z" fill="white"/>
<path d="M11.9127 50.7684C12.1113 51.2706 12.1806 51.7629 12.1205 52.2455C12.058 52.7219 11.8818 53.1465 11.5919 53.5192C11.302 53.892 10.9122 54.1752 10.4224 54.3689C9.9327 54.5626 9.4546 54.6226 8.98817 54.549C8.52174 54.4754 8.1059 54.285 7.74064 53.9778C7.36674 53.6669 7.08049 53.2603 6.88188 52.7582C6.70534 52.3118 6.63831 51.8795 6.68078 51.4612C6.7146 51.0392 6.86709 50.6635 7.13825 50.334L7.84379 50.8399C7.66577 51.0968 7.56755 51.365 7.54913 51.6447C7.52206 51.9207 7.56125 52.192 7.66668 52.4585C7.79418 52.7809 7.97949 53.041 8.2226 53.2388C8.46572 53.4365 8.74689 53.5583 9.06611 53.6041C9.37913 53.6524 9.71232 53.6066 10.0657 53.4669C10.4191 53.3271 10.6965 53.1314 10.898 52.8796C11.0996 52.6278 11.2213 52.3467 11.2634 52.0361C11.3055 51.7255 11.2627 51.409 11.1352 51.0867C11.0298 50.8201 10.8759 50.5942 10.6736 50.409C10.4627 50.22 10.2044 50.0927 9.89889 50.0271L10.0582 49.1791C10.4751 49.2364 10.8465 49.405 11.1722 49.6848C11.4893 49.9609 11.7361 50.3221 11.9127 50.7684Z" fill="white"/>
<path d="M10.3272 43.8221C10.3401 44.0083 10.288 44.1723 10.1709 44.3141C10.0472 44.4563 9.88554 44.5344 9.68602 44.5483C9.4865 44.5622 9.31894 44.507 9.18332 44.3828C9.04771 44.2586 8.97343 44.1033 8.96048 43.9171C8.94799 43.7375 9.00053 43.5802 9.1181 43.445C9.23521 43.3032 9.39353 43.2254 9.59305 43.2115C9.79256 43.1976 9.96345 43.2526 10.1057 43.3763C10.2409 43.4939 10.3147 43.6425 10.3272 43.8221Z" fill="white"/>
<path d="M10.4051 35.4339C10.3344 35.8276 10.2157 36.2059 10.049 36.5688C9.87689 36.924 9.66919 37.2322 9.4259 37.4933L8.75861 37.0789C8.96084 36.8578 9.13675 36.5948 9.28632 36.2897C9.42933 35.9835 9.53028 35.6663 9.58917 35.3383C9.64334 35.0364 9.65377 34.7707 9.62046 34.5413C9.58832 34.3052 9.52051 34.1169 9.41704 33.9764C9.307 33.8348 9.16668 33.7486 8.99607 33.718C8.75328 33.6744 8.54684 33.7491 8.37674 33.9421C8.20664 34.1351 8.08684 34.4252 8.01736 34.8123L7.84777 35.7572L7.16862 35.6353L7.32761 34.7495C7.36883 34.5198 7.37851 34.315 7.35663 34.1349C7.33476 33.9549 7.27957 33.8095 7.19107 33.6988C7.09718 33.5804 6.97806 33.5082 6.8337 33.4823C6.67622 33.454 6.53169 33.4857 6.40012 33.5772C6.26855 33.6687 6.15498 33.8109 6.05941 34.0037C5.96502 34.19 5.89369 34.4176 5.8454 34.6866C5.80485 34.9503 5.79266 35.2258 5.80881 35.5132C5.82614 35.794 5.87839 36.0878 5.96554 36.3947L5.18141 36.5182C5.08702 36.1761 5.02754 35.8471 5.00297 35.5311C4.97302 35.2074 4.98185 34.894 5.02946 34.591C5.0976 34.1359 5.22253 33.7417 5.40424 33.4086C5.57938 33.0743 5.79348 32.8249 6.04653 32.6603C6.30076 32.4892 6.57551 32.4301 6.87079 32.4831C7.12014 32.5279 7.32911 32.6467 7.4977 32.8395C7.65973 33.0311 7.77296 33.2682 7.83741 33.5507C7.90185 33.8332 7.90345 34.145 7.84221 34.4862L7.62289 34.4062C7.72771 33.8222 7.92498 33.3835 8.21471 33.0901C8.50443 32.7967 8.84615 32.6853 9.23986 32.7559C9.55483 32.8125 9.81486 32.9675 10.02 33.2211C10.2185 33.4734 10.3543 33.7924 10.4273 34.1781C10.4949 34.556 10.4875 34.9746 10.4051 35.4339Z" fill="white"/>
<path d="M12.5731 27.8286L11.5288 27.4239L11.3149 27.3946L9.53398 26.7044C9.15479 26.5575 8.81926 26.5561 8.52741 26.7004C8.23174 26.8361 7.99839 27.1246 7.82735 27.5659C7.71413 27.8581 7.65304 28.1633 7.6441 28.4816C7.62894 28.7975 7.66483 29.0831 7.75177 29.3384L6.93588 29.4512C6.82952 29.1168 6.79215 28.752 6.82379 28.3567C6.85162 27.9528 6.94142 27.5551 7.09318 27.1635C7.35576 26.4859 7.72285 26.0276 8.19443 25.7885C8.66602 25.5494 9.2406 25.5612 9.91817 25.8237L12.9019 26.9801L12.5731 27.8286ZM12.0003 29.4727C11.8582 29.8394 11.6708 30.1386 11.438 30.3701C11.2077 30.5955 10.9549 30.7406 10.6795 30.8054C10.3979 30.8679 10.1172 30.8449 9.83749 30.7365C9.57019 30.633 9.35185 30.4768 9.18246 30.2682C9.01548 30.0533 8.92213 29.7777 8.9024 29.4411C8.88508 29.0984 8.97158 28.6815 9.16189 28.1904L9.76895 26.6239L10.4123 26.8732L9.81972 28.4024C9.64627 28.85 9.60403 29.1804 9.693 29.3936C9.78196 29.6068 9.93212 29.7544 10.1435 29.8363C10.3859 29.9302 10.6191 29.9098 10.8429 29.7749C11.0606 29.6376 11.2356 29.398 11.3681 29.0561C11.4982 28.7204 11.5369 28.3993 11.484 28.0929C11.4336 27.7802 11.2871 27.5125 11.0445 27.2898L11.7286 27.3511C11.975 27.5825 12.1274 27.881 12.1858 28.2469C12.238 28.6103 12.1762 29.0189 12.0003 29.4727Z" fill="white"/>
<path d="M15.7546 21.6367L12.5394 19.2403L11.1649 21.0844L11.9529 21.734C12.2121 21.9439 12.4575 22.1559 12.6888 22.3698C12.9187 22.5745 13.118 22.7812 13.2866 22.99C13.4592 23.1935 13.5765 23.3932 13.6384 23.589C13.7003 23.7848 13.6876 23.9749 13.6001 24.1591L12.8961 24.8192C13.0249 24.6575 13.0711 24.484 13.0345 24.2988C12.9926 24.1096 12.89 23.9126 12.7268 23.7077C12.5675 23.4975 12.3695 23.2835 12.1328 23.0655C11.8908 22.8436 11.6368 22.621 11.3708 22.3978L9.98344 21.2639L12.4396 17.9686L16.3283 20.8669L15.7546 21.6367ZM14.4303 26.2246L12.7706 24.9876L16.4996 19.9844L18.1593 21.2215L17.6215 21.9431L16.6353 21.208L13.9879 24.76L14.9741 25.495L14.4303 26.2246Z" fill="white"/>
<path d="M21.0212 16.8814L20.2854 16.037L20.1098 15.9115L18.855 14.4715C18.5878 14.1649 18.2915 14.0075 17.966 13.9993C17.6412 13.9817 17.3004 14.1283 16.9435 14.4393C16.7073 14.6451 16.5111 14.8868 16.355 15.1643C16.1945 15.4368 16.0933 15.7063 16.0514 15.9727L15.2768 15.6927C15.3383 15.3472 15.4751 15.007 15.6872 14.6719C15.8999 14.3274 16.1645 14.0172 16.4812 13.7413C17.029 13.2639 17.5673 13.0292 18.096 13.0372C18.6246 13.0452 19.1277 13.3231 19.605 13.871L21.7073 16.2835L21.0212 16.8814ZM19.7488 18.0697C19.4522 18.3281 19.1471 18.5056 18.8333 18.6021C18.5245 18.6943 18.2332 18.705 17.9593 18.6342C17.681 18.5584 17.4433 18.4074 17.2462 18.1812C17.0579 17.9651 16.9374 17.7252 16.8846 17.4617C16.8369 17.1938 16.8826 16.9064 17.0218 16.5994C17.1661 16.288 17.4368 15.9593 17.8338 15.6133L19.1004 14.5096L19.5537 15.0298L18.3173 16.1072C17.9554 16.4226 17.7642 16.6953 17.7436 16.9254C17.7231 17.1555 17.7873 17.356 17.9362 17.5269C18.107 17.7229 18.3229 17.8134 18.5838 17.7982C18.8403 17.7781 19.1068 17.6476 19.3833 17.4067C19.6547 17.1702 19.8384 16.904 19.9343 16.6082C20.0353 16.308 20.0302 16.0029 19.9193 15.6928L20.4961 16.0656C20.6064 16.3851 20.6023 16.7203 20.4837 17.0712C20.3607 17.4172 20.1157 17.75 19.7488 18.0697Z" fill="white"/>
<path d="M24.5018 14.4875L22.1079 10.4313L22.4416 10.5246L20.5642 11.6326L20.1373 10.9092L24.3055 8.4492L24.7324 9.17261L22.8636 10.2755L22.9346 9.94334L25.3285 13.9996L24.5018 14.4875Z" fill="white"/>
<path d="M29.6056 8.25942C30.2438 8.04463 30.779 8.02092 31.2112 8.18828C31.6435 8.35563 31.9493 8.69749 32.1288 9.21385C32.3171 9.7554 32.28 10.2376 32.0177 10.6606C31.7531 11.0772 31.286 11.3984 30.6163 11.6241L28.4406 12.3698L26.7004 7.36363L27.6072 7.04843L28.1949 8.73919L29.6056 8.25942ZM30.3011 10.9608C30.7126 10.8248 30.9927 10.6357 31.1414 10.3935C31.2964 10.149 31.3159 9.85992 31.1999 9.52618C31.0861 9.19873 30.899 8.99556 30.6386 8.91666C30.3783 8.83776 30.0392 8.8674 29.6214 9.00557L28.4247 9.40038L29.1077 11.3651L30.3011 10.9608Z" fill="white"/>
<path d="M38.2834 10.0179L38.3571 4.71846L40.8169 4.75269C41.4368 4.76132 41.9218 4.88809 42.2717 5.13298C42.6285 5.3713 42.8038 5.70711 42.7978 6.1404C42.7917 6.57369 42.6171 6.90796 42.2738 7.1432C41.9372 7.37187 41.4923 7.48236 40.939 7.47466L41.0926 7.21677C41.7259 7.22559 42.1942 7.34878 42.4976 7.58636C42.801 7.82394 42.9495 8.16938 42.9432 8.62266C42.9368 9.08262 42.7585 9.44017 42.4083 9.69532C42.0648 9.9439 41.5397 10.0633 40.8331 10.0534L38.2834 10.0179ZM39.2336 9.2911L40.7734 9.31253C41.1734 9.3181 41.4742 9.26228 41.6758 9.14508C41.8776 9.0212 41.9804 8.82262 41.9842 8.54931C41.9881 8.26934 41.8976 8.06472 41.7127 7.93547C41.5346 7.79965 41.2488 7.729 40.8555 7.72352L39.2557 7.70125L39.2336 9.2911ZM39.2653 7.01132L40.7052 7.03136C41.0718 7.03646 41.3494 6.97365 41.5379 6.84293C41.7331 6.70564 41.8325 6.51367 41.8359 6.26702C41.8394 6.01372 41.7454 5.82239 41.5539 5.69304C41.369 5.56379 41.0932 5.49661 40.7266 5.49151L39.2867 5.47147L39.2653 7.01132Z" fill="white"/>
<path d="M48.0174 11.1672C47.5041 11.0224 47.0802 10.7817 46.7457 10.4449C46.4112 10.1081 46.1837 9.71149 46.063 9.25494C45.9442 8.79199 45.9554 8.31027 46.0966 7.80979C46.2395 7.30289 46.4817 6.88632 46.823 6.56006C47.1644 6.2338 47.5648 6.01769 48.0241 5.91172C48.4852 5.79934 48.9725 5.81552 49.4858 5.96028C49.9927 6.10324 50.4134 6.34309 50.7479 6.67986C51.0906 7.01201 51.319 7.40546 51.4332 7.86019C51.5556 8.31032 51.5445 8.79204 51.3997 9.30535C51.2568 9.81224 51.0146 10.2288 50.6732 10.5551C50.3383 10.8831 49.937 11.1025 49.4694 11.213C49.0083 11.3254 48.5243 11.3101 48.0174 11.1672ZM48.2454 10.3587C48.5726 10.451 48.8854 10.4596 49.1836 10.3844C49.4883 10.311 49.7525 10.1603 49.976 9.93247C50.2014 9.69818 50.3648 9.40138 50.4661 9.04206C50.5693 8.67633 50.5841 8.34112 50.5108 8.03643C50.4392 7.72532 50.2927 7.45888 50.0712 7.23711C49.8562 7.01716 49.585 6.86104 49.2578 6.76875C48.9306 6.67647 48.6178 6.66792 48.3195 6.74312C48.0213 6.81831 47.7571 6.96894 47.5271 7.195C47.2989 7.41465 47.1333 7.70734 47.0301 8.07307C46.9288 8.43239 46.9162 8.77172 46.9924 9.09105C47.0704 9.40397 47.2169 9.6704 47.432 9.89036C47.647 10.1103 47.9181 10.2664 48.2454 10.3587Z" fill="white"/>
<path d="M52.7763 12.7474L55.3453 8.11164L59.6399 10.4917L57.0709 15.1274L56.2312 14.662L58.5094 10.5511L58.5943 10.8725L55.5767 9.20021L55.8942 9.10178L53.6159 13.2127L52.7763 12.7474Z" fill="white"/>
<path d="M61.1614 18.7143C60.848 18.4054 60.6309 18.0511 60.5101 17.6513C60.3987 17.2514 60.4051 16.8318 60.5292 16.3925C60.658 15.9578 60.9329 15.5268 61.3541 15.0994C61.7752 14.6721 62.1998 14.3885 62.6277 14.2486C63.0605 14.1134 63.4752 14.101 63.872 14.2112C64.2736 14.3261 64.6358 14.5427 64.9587 14.8609C65.3291 15.2259 65.5771 15.6295 65.703 16.0717C65.8288 16.5139 65.8321 16.9617 65.7128 17.4151C65.5982 17.8638 65.3515 18.2805 64.9724 18.6651C64.5934 19.0497 64.1781 19.305 63.7264 19.4309C63.2748 19.5567 62.827 19.56 62.383 19.4407C61.939 19.3214 61.5318 19.0793 61.1614 18.7143ZM57.8403 18.081L62.9221 12.9241L63.5774 13.5699L62.5737 14.5884L61.6676 15.4224L60.8755 16.3687L58.5241 18.7548L57.8403 18.081ZM61.694 18.0598C61.9362 18.2984 62.206 18.4568 62.5036 18.5347C62.8059 18.6173 63.1099 18.6128 63.4157 18.521C63.7309 18.4291 64.0195 18.2502 64.2815 17.9843C64.5482 17.7136 64.7205 17.4248 64.7984 17.1178C64.8858 16.8107 64.8859 16.5066 64.7988 16.2056C64.7165 15.9092 64.5543 15.6417 64.3121 15.403C64.0747 15.1691 63.8048 15.0108 63.5025 14.9281C63.2049 14.8502 62.9009 14.8547 62.5904 14.9419C62.2893 15.0289 62.0054 15.2078 61.7387 15.4785C61.4767 15.7444 61.2996 16.0332 61.2076 16.3451C61.1251 16.6568 61.1249 16.9609 61.2073 17.2572C61.2943 17.5583 61.4566 17.8258 61.694 18.0598Z" fill="white"/>
<path d="M65.6761 24.3308C65.4004 23.8743 65.2555 23.4088 65.2416 22.9343C65.2276 22.4599 65.3327 22.0148 65.5567 21.5992C65.7864 21.18 66.1238 20.836 66.5689 20.5672C67.0198 20.2949 67.4813 20.1564 67.9534 20.1516C68.4256 20.1468 68.8656 20.2627 69.2733 20.4993C69.6867 20.7325 70.0313 21.0773 70.307 21.5338C70.5793 21.9847 70.7224 22.4473 70.7364 22.9217C70.7595 23.3984 70.6573 23.8418 70.4299 24.2518C70.2115 24.664 69.8741 25.008 69.4176 25.2837C68.9668 25.556 68.5053 25.6945 68.0331 25.6993C67.5644 25.7099 67.1216 25.5957 66.7047 25.3568C66.2913 25.1236 65.9484 24.7816 65.6761 24.3308ZM66.3952 23.8965C66.5709 24.1876 66.7934 24.4076 67.0625 24.5566C67.3351 24.7113 67.6308 24.7819 67.9498 24.7683C68.2744 24.7514 68.5965 24.6464 68.9161 24.4534C69.2414 24.2569 69.4814 24.0224 69.6361 23.7499C69.7965 23.4739 69.8716 23.1792 69.8616 22.866C69.855 22.5584 69.7638 22.2592 69.588 21.9681C69.4122 21.6771 69.1898 21.4571 68.9206 21.3081C68.6515 21.1591 68.3558 21.0885 68.0334 21.0963C67.7167 21.1007 67.3957 21.2011 67.0704 21.3975C66.7509 21.5905 66.5097 21.8296 66.3471 22.1148C66.1901 22.3965 66.1149 22.6911 66.1216 22.9987C66.1282 23.3062 66.2194 23.6055 66.3952 23.8965Z" fill="white"/>
<path d="M68.693 30.914C68.5218 30.4018 68.4792 29.9064 68.5652 29.4278C68.6533 28.9555 68.8522 28.5411 69.1618 28.1845C69.4714 27.8279 69.8759 27.5662 70.3754 27.3992C70.8749 27.2322 71.3555 27.198 71.8173 27.2967C72.2791 27.3954 72.684 27.608 73.0322 27.9344C73.3887 28.2651 73.6526 28.6865 73.8239 29.1986C73.976 29.6539 74.0196 30.0892 73.9547 30.5045C73.8981 30.9241 73.7256 31.2911 73.437 31.6055L72.7598 31.0622C72.9514 30.8153 73.064 30.5528 73.0975 30.2745C73.1394 30.0004 73.1149 29.7274 73.024 29.4555C72.9141 29.1267 72.7431 28.857 72.511 28.6464C72.2789 28.4358 72.0048 28.299 71.6885 28.236C71.3785 28.1709 71.0433 28.1987 70.6829 28.3191C70.3225 28.4396 70.0349 28.6201 69.8201 28.8606C69.6053 29.1012 69.4685 29.3754 69.4097 29.6832C69.351 29.991 69.3766 30.3094 69.4865 30.6381C69.5774 30.91 69.7188 31.1439 69.9108 31.3398C70.1113 31.5399 70.3623 31.6809 70.6638 31.7629L70.459 32.6011C70.0458 32.5213 69.684 32.3329 69.3739 32.036C69.0721 31.7432 68.8452 31.3692 68.693 30.914Z" fill="white"/>
<path d="M69.9883 38.0352C69.984 37.8485 70.0436 37.6871 70.1672 37.5509C70.2974 37.4145 70.4625 37.344 70.6624 37.3394C70.8624 37.3347 71.0272 37.3976 71.1569 37.528C71.2866 37.6583 71.3537 37.8168 71.358 38.0034C71.3621 38.1834 71.3024 38.3381 71.1787 38.4677C71.0551 38.6039 70.8934 38.6744 70.6934 38.679C70.4935 38.6836 70.3253 38.6208 70.1889 38.4906C70.0594 38.3669 69.9925 38.2151 69.9883 38.0352Z" fill="white"/>
</svg>
