<svg width="22" height="25" viewBox="0 0 22 25" fill="none" xmlns="http://www.w3.org/2000/svg">
<path d="M10.034 24.9333C7.30065 24.711 5.00065 23.5888 3.13398 21.5666C1.26732 19.5444 0.333984 17.1444 0.333984 14.3666C0.333984 12.6555 0.728429 11.0444 1.51732 9.53327C2.30621 8.02216 3.41176 6.78882 4.83398 5.83327L6.26732 7.2666C5.02287 7.99993 4.05621 9.00549 3.36732 10.2833C2.67843 11.561 2.33398 12.9222 2.33398 14.3666C2.33398 16.5888 3.06732 18.511 4.53398 20.1333C6.00065 21.7555 7.83398 22.6888 10.034 22.9333V24.9333ZM12.034 24.9333V22.9333C14.2562 22.6666 16.0895 21.7277 17.534 20.1166C18.9784 18.5055 19.7006 16.5888 19.7006 14.3666C19.7006 11.9444 18.8618 9.89438 17.184 8.2166C15.5062 6.53882 13.4562 5.69993 11.034 5.69993H10.3673L12.3673 7.69993L10.934 9.13327L6.50065 4.69993L10.934 0.266602L12.3673 1.69993L10.3673 3.69993H11.034C14.0118 3.69993 16.534 4.73882 18.6006 6.8166C20.6673 8.89438 21.7006 11.411 21.7006 14.3666C21.7006 17.1444 20.7729 19.5444 18.9173 21.5666C17.0618 23.5888 14.7673 24.711 12.034 24.9333Z" fill="white"/>
</svg>
