<svg width="154" height="40" viewBox="0 0 154 40" fill="none" xmlns="http://www.w3.org/2000/svg">
<path d="M75.3234 32.5202H77.7681V38.1909C77.0526 38.7736 76.2178 39.2207 75.2638 39.5324C74.3097 39.844 73.3292 39.9999 72.3222 39.9999C70.9044 39.9999 69.6257 39.6882 68.4862 39.0649C67.3467 38.4281 66.4523 37.5541 65.803 36.443C65.1537 35.3318 64.8291 34.0785 64.8291 32.6828C64.8291 31.2871 65.1537 30.0337 65.803 28.9226C66.4523 27.8115 67.3467 26.9443 68.4862 26.321C69.639 25.6842 70.9309 25.3657 72.3619 25.3657C73.528 25.3657 74.588 25.5622 75.542 25.9552C76.496 26.3481 77.2977 26.924 77.947 27.6828L76.3172 29.3088C75.2571 28.2248 73.9785 27.6828 72.4812 27.6828C71.5007 27.6828 70.6261 27.8928 69.8576 28.3129C69.1023 28.7329 68.5061 29.3224 68.0688 30.0812C67.6448 30.84 67.4328 31.7072 67.4328 32.6828C67.4328 33.6313 67.6448 34.485 68.0688 35.2438C68.5061 36.0026 69.1023 36.5988 69.8576 37.0324C70.6261 37.466 71.494 37.6828 72.4613 37.6828C73.5478 37.6828 74.5019 37.4389 75.3234 36.9511V32.5202Z" fill="white"/>
<path d="M90.279 39.7966L87.4368 35.63C87.3175 35.6435 87.1386 35.6503 86.9001 35.6503H83.7598V39.7966H81.176V25.569H86.9001C88.1059 25.569 89.1527 25.7722 90.0405 26.1787C90.9415 26.5852 91.6305 27.1679 92.1075 27.9267C92.5845 28.6855 92.823 29.5866 92.823 30.63C92.823 31.7004 92.5646 32.6218 92.0479 33.3942C91.5444 34.1665 90.8156 34.7424 89.8616 35.1218L93.0615 39.7966H90.279ZM90.2193 30.63C90.2193 29.7221 89.9278 29.0243 89.3448 28.5365C88.7618 28.0486 87.9071 27.8047 86.7809 27.8047H83.7598V33.4755H86.7809C87.9071 33.4755 88.7618 33.2316 89.3448 32.7438C89.9278 32.2424 90.2193 31.5378 90.2193 30.63Z" fill="white"/>
<path d="M104.737 36.5039H97.7809L96.4095 39.7966H93.7462L100.007 25.569H102.551L108.832 39.7966H106.129L104.737 36.5039ZM103.883 34.4308L101.259 28.2113L98.6554 34.4308H103.883Z" fill="white"/>
<path d="M122.584 25.569L116.522 39.7966H113.978L107.896 25.569H110.698L115.329 36.5446L120 25.569H122.584Z" fill="white"/>
<path d="M124.052 25.569H126.636V39.7966H124.052V25.569Z" fill="white"/>
<path d="M133.221 27.8047H128.61V25.569H140.416V27.8047H135.805V39.7966H133.221V27.8047Z" fill="white"/>
<path d="M148.164 34.7763V39.7966H145.58V34.8169L140.114 25.569H142.877L146.951 32.4999L151.066 25.569H153.61L148.164 34.7763Z" fill="white"/>
<path d="M79.6764 15.5935H69.6619L67.6876 20.2033H63.8535L72.8665 0.284553H76.529L85.5706 20.2033H81.6793L79.6764 15.5935ZM78.446 12.6911L74.6692 3.98374L70.9209 12.6911H78.446Z" fill="white"/>
<path d="M101.223 20.2033L97.1309 14.3699C96.9592 14.3889 96.7017 14.3984 96.3583 14.3984H91.8375V20.2033H88.1178V0.284553H96.3583C98.0942 0.284553 99.6011 0.569105 100.879 1.13821C102.176 1.70732 103.168 2.52303 103.855 3.58536C104.542 4.6477 104.885 5.90921 104.885 7.36992C104.885 8.86856 104.513 10.1585 103.769 11.2398C103.044 12.3211 101.995 13.1274 100.622 13.6585L105.228 20.2033H101.223ZM101.137 7.36992C101.137 6.09892 100.717 5.12195 99.8777 4.43902C99.0384 3.7561 97.808 3.41463 96.1867 3.41463H91.8375V11.3537H96.1867C97.808 11.3537 99.0384 11.0122 99.8777 10.3293C100.717 9.62737 101.137 8.64092 101.137 7.36992Z" fill="white"/>
<path d="M109.047 0.284553H112.766V20.2033H109.047V0.284553Z" fill="white"/>
<path d="M133.205 17.1016V20.2033H118.184V0.284553H132.805V3.38618H121.903V8.56504H131.574V11.6098H121.903V17.1016H133.205Z" fill="white"/>
<path d="M143.561 20.4878C142.016 20.4878 140.518 20.2696 139.069 19.8333C137.638 19.397 136.503 18.8184 135.664 18.0976L136.951 15.2236C137.772 15.8686 138.773 16.3997 139.956 16.8171C141.157 17.2154 142.359 17.4146 143.561 17.4146C145.049 17.4146 146.155 17.1775 146.88 16.7033C147.624 16.229 147.996 15.603 147.996 14.8252C147.996 14.2561 147.786 13.7913 147.366 13.4309C146.966 13.0515 146.451 12.7575 145.821 12.5488C145.192 12.3401 144.334 12.103 143.246 11.8374C141.72 11.477 140.48 11.1165 139.527 10.7561C138.592 10.3957 137.781 9.83604 137.094 9.07724C136.427 8.29946 136.093 7.2561 136.093 5.94715C136.093 4.84688 136.389 3.85095 136.98 2.95935C137.59 2.04878 138.496 1.32791 139.698 0.796747C140.919 0.265582 142.407 0 144.162 0C145.383 0 146.584 0.151762 147.767 0.455285C148.95 0.758808 149.97 1.19512 150.829 1.76423L149.655 4.63821C148.778 4.12602 147.862 3.73713 146.909 3.47155C145.955 3.20596 145.03 3.07317 144.133 3.07317C142.664 3.07317 141.568 3.31978 140.843 3.81301C140.137 4.30623 139.784 4.9607 139.784 5.77642C139.784 6.34553 139.984 6.8103 140.385 7.17073C140.805 7.53117 141.329 7.81572 141.959 8.02439C142.588 8.23306 143.447 8.47019 144.534 8.73577C146.022 9.07723 147.242 9.43767 148.196 9.81707C149.15 10.1775 149.961 10.7371 150.628 11.4959C151.315 12.2547 151.658 13.2791 151.658 14.5691C151.658 15.6694 151.353 16.6653 150.743 17.5569C150.151 18.4485 149.245 19.1599 148.025 19.6911C146.804 20.2222 145.316 20.4878 143.561 20.4878Z" fill="white"/>
<g clip-path="url(#clip0_132_1023)">
<path fill-rule="evenodd" clip-rule="evenodd" d="M5.93484 39.9869H9.62685L16.0835 32.833L23.6626 24.4337L36.5737 10.1237L39.2002 7.21343L42.3704 14.3717L44.8764 20.0276L45.5428 21.5278L47.3845 25.6835L48.0488 27.1837L50.5547 32.8418L46.639 32.8396L35.3372 32.8374L41.7938 25.6835L32.167 25.6813L25.7103 32.8352L19.2537 39.9891L30.5556 39.9913L49.8093 39.9978H53.7249L61.1111 40L57.9387 32.844L54.7685 25.6857L54.2182 24.4425L51.0458 17.2842L50.4955 16.0388L47.3231 8.88274L42.3704 14.3717L47.3231 8.88274L44.1529 1.72666L43.3877 0.000244141H36.0804L36.03 0.0573522L20.4902 17.2776L0 39.9847L5.93484 39.9869Z" fill="url(#paint0_linear_132_1023)"/>
</g>
<defs>
<linearGradient id="paint0_linear_132_1023" x1="152.564" y1="106.501" x2="100.324" y2="-13.4617" gradientUnits="userSpaceOnUse">
<stop stop-color="#9C32AD"/>
<stop offset="0.494792" stop-color="#6E3CFF"/>
<stop offset="1" stop-color="#0BC1B6"/>
</linearGradient>
<clipPath id="clip0_132_1023">
<rect width="61.1111" height="40" fill="white"/>
</clipPath>
</defs>
</svg>
