<svg width="703" height="210" viewBox="0 0 703 210" fill="none" xmlns="http://www.w3.org/2000/svg">
<path d="M65.376 25.8V93H55.968V34.152H26.208L25.536 53.832C25.216 63.112 24.448 70.632 23.232 76.392C22.08 82.152 20.224 86.504 17.664 89.448C15.104 92.328 11.648 93.768 7.296 93.768C5.312 93.768 3.296 93.512 1.248 93L1.92 84.456C2.944 84.712 3.968 84.84 4.992 84.84C7.744 84.84 9.952 83.752 11.616 81.576C13.28 79.336 14.528 76.008 15.36 71.592C16.192 67.176 16.736 61.352 16.992 54.12L18.048 25.8H65.376ZM129.988 76.2H94.2758L86.8838 93H76.9958L107.428 25.8H116.932L147.46 93H137.38L129.988 76.2ZM126.628 68.52L112.132 35.592L97.6358 68.52H126.628ZM191.218 57.96C195.442 59.112 198.738 61.128 201.106 64.008C203.474 66.824 204.658 70.216 204.658 74.184C204.658 78.152 203.378 81.64 200.818 84.648C198.322 87.592 194.962 89.864 190.738 91.464C186.578 93 182.034 93.768 177.106 93.768C172.626 93.768 168.178 93.096 163.762 91.752C159.346 90.408 155.314 88.392 151.666 85.704L155.026 78.6C157.97 80.904 161.266 82.632 164.914 83.784C168.562 84.936 172.242 85.512 175.954 85.512C181.33 85.512 185.842 84.392 189.49 82.152C193.138 79.848 194.962 76.712 194.962 72.744C194.962 69.352 193.586 66.76 190.834 64.968C188.082 63.112 184.21 62.184 179.218 62.184H164.242V54.408H178.546C182.834 54.408 186.162 53.544 188.53 51.816C190.962 50.024 192.178 47.56 192.178 44.424C192.178 40.904 190.61 38.12 187.474 36.072C184.338 34.024 180.37 33 175.57 33C172.434 33 169.234 33.448 165.97 34.344C162.77 35.24 159.73 36.584 156.85 38.376L153.778 30.504C157.17 28.584 160.754 27.144 164.53 26.184C168.306 25.224 172.082 24.744 175.858 24.744C180.594 24.744 184.946 25.48 188.914 26.952C192.882 28.424 196.018 30.568 198.322 33.384C200.69 36.2 201.874 39.496 201.874 43.272C201.874 46.664 200.914 49.64 198.994 52.2C197.138 54.76 194.546 56.68 191.218 57.96ZM269.42 84.648V93H220.652V25.8H268.076V34.152H230.252V54.792H263.948V62.952H230.252V84.648H269.42ZM310.703 25.8C319.407 25.8 326.255 27.88 331.247 32.04C336.239 36.2 338.735 41.928 338.735 49.224C338.735 56.52 336.239 62.248 331.247 66.408C326.255 70.568 319.407 72.648 310.703 72.648H294.095V93H284.495V25.8H310.703ZM310.415 64.296C316.495 64.296 321.135 63.016 324.335 60.456C327.535 57.832 329.135 54.088 329.135 49.224C329.135 44.36 327.535 40.648 324.335 38.088C321.135 35.464 316.495 34.152 310.415 34.152H294.095V64.296H310.415ZM409.881 25.8V93H400.281V63.048H361.689V93H352.089V25.8H361.689V54.696H400.281V25.8H409.881ZM474.519 76.2H438.807L431.415 93H421.527L451.959 25.8H461.463L491.991 93H481.911L474.519 76.2ZM471.159 68.52L456.663 35.592L442.167 68.52H471.159ZM549.65 25.8V93H540.242V73.416H521.714C520.562 73.416 519.698 73.384 519.122 73.32L505.682 93H495.506L510.386 71.688C505.586 70.088 501.906 67.432 499.346 63.72C496.786 59.944 495.506 55.368 495.506 49.992C495.506 42.376 497.938 36.456 502.802 32.232C507.73 27.944 514.354 25.8 522.674 25.8H549.65ZM505.202 49.896C505.202 54.888 506.642 58.728 509.522 61.416C512.466 64.04 516.786 65.352 522.482 65.352H540.242V34.152H523.058C517.298 34.152 512.882 35.496 509.81 38.184C506.738 40.872 505.202 44.776 505.202 49.896Z" fill="url(#paint0_linear_615_10986)"/>
<path d="M54.432 127.152H19.872L19.968 186H10.464V118.8H54.528L54.432 127.152ZM92.172 118.8C100.876 118.8 107.724 120.88 112.716 125.04C117.708 129.2 120.204 134.928 120.204 142.224C120.204 149.52 117.708 155.248 112.716 159.408C107.724 163.568 100.876 165.648 92.172 165.648H75.564V186H65.964V118.8H92.172ZM91.884 157.296C97.964 157.296 102.604 156.016 105.804 153.456C109.004 150.832 110.604 147.088 110.604 142.224C110.604 137.36 109.004 133.648 105.804 131.088C102.604 128.464 97.964 127.152 91.884 127.152H75.564V157.296H91.884ZM173.863 169.2H138.151L130.759 186H120.871L151.303 118.8H160.807L191.335 186H181.255L173.863 169.2ZM170.503 161.52L156.007 128.592L141.511 161.52H170.503ZM244.789 151.152C249.333 152.24 252.757 154.192 255.061 157.008C257.429 159.76 258.613 163.312 258.613 167.664C258.613 173.488 256.469 178 252.181 181.2C247.957 184.4 241.781 186 233.653 186H202.933V118.8H231.829C239.189 118.8 244.917 120.304 249.013 123.312C253.173 126.256 255.253 130.512 255.253 136.08C255.253 139.728 254.325 142.832 252.469 145.392C250.677 147.952 248.117 149.872 244.789 151.152ZM212.437 148.368H231.157C235.829 148.368 239.381 147.44 241.813 145.584C244.309 143.728 245.557 141.008 245.557 137.424C245.557 133.84 244.309 131.12 241.813 129.264C239.317 127.344 235.765 126.384 231.157 126.384H212.437V148.368ZM233.461 178.416C243.765 178.416 248.917 174.576 248.917 166.896C248.917 163.056 247.605 160.24 244.981 158.448C242.421 156.592 238.581 155.664 233.461 155.664H212.437V178.416H233.461ZM274.652 118.8H284.156V170.64L323.9 118.8H332.732V186H323.324V134.256L283.484 186H274.652V118.8ZM379.891 118.8C388.595 118.8 395.443 120.88 400.435 125.04C405.427 129.2 407.923 134.928 407.923 142.224C407.923 149.52 405.427 155.248 400.435 159.408C395.443 163.568 388.595 165.648 379.891 165.648H363.283V186H353.683V118.8H379.891ZM379.603 157.296C385.683 157.296 390.323 156.016 393.523 153.456C396.723 150.832 398.323 147.088 398.323 142.224C398.323 137.36 396.723 133.648 393.523 131.088C390.323 128.464 385.683 127.152 379.603 127.152H363.283V157.296H379.603ZM452.454 186.768C445.67 186.768 439.558 185.296 434.118 182.352C428.678 179.344 424.39 175.216 421.254 169.968C418.182 164.72 416.646 158.864 416.646 152.4C416.646 145.936 418.182 140.08 421.254 134.832C424.39 129.584 428.678 125.488 434.118 122.544C439.558 119.536 445.67 118.032 452.454 118.032C459.174 118.032 465.254 119.536 470.694 122.544C476.134 125.488 480.39 129.584 483.462 134.832C486.534 140.016 488.07 145.872 488.07 152.4C488.07 158.928 486.534 164.816 483.462 170.064C480.39 175.248 476.134 179.344 470.694 182.352C465.254 185.296 459.174 186.768 452.454 186.768ZM452.454 178.224C457.382 178.224 461.798 177.104 465.702 174.864C469.67 172.624 472.774 169.552 475.014 165.648C477.318 161.68 478.47 157.264 478.47 152.4C478.47 147.536 477.318 143.152 475.014 139.248C472.774 135.28 469.67 132.176 465.702 129.936C461.798 127.696 457.382 126.576 452.454 126.576C447.526 126.576 443.046 127.696 439.014 129.936C435.046 132.176 431.91 135.28 429.606 139.248C427.366 143.152 426.246 147.536 426.246 152.4C426.246 157.264 427.366 161.68 429.606 165.648C431.91 169.552 435.046 172.624 439.014 174.864C443.046 177.104 447.526 178.224 452.454 178.224ZM545.445 151.152C549.989 152.24 553.413 154.192 555.717 157.008C558.085 159.76 559.269 163.312 559.269 167.664C559.269 173.488 557.125 178 552.837 181.2C548.613 184.4 542.437 186 534.309 186H503.589V118.8H532.485C539.845 118.8 545.573 120.304 549.669 123.312C553.829 126.256 555.909 130.512 555.909 136.08C555.909 139.728 554.981 142.832 553.125 145.392C551.333 147.952 548.773 149.872 545.445 151.152ZM513.093 148.368H531.813C536.485 148.368 540.037 147.44 542.469 145.584C544.965 143.728 546.213 141.008 546.213 137.424C546.213 133.84 544.965 131.12 542.469 129.264C539.973 127.344 536.421 126.384 531.813 126.384H513.093V148.368ZM534.117 178.416C544.421 178.416 549.573 174.576 549.573 166.896C549.573 163.056 548.261 160.24 545.637 158.448C543.077 156.592 539.237 155.664 534.117 155.664H513.093V178.416H534.117ZM598.732 156.432H584.716V186H575.308V118.8H584.716V147.984H598.924L620.044 118.8H630.316L606.316 151.344L631.468 186H620.524L598.732 156.432ZM684.05 169.2H648.338L640.946 186H631.058L661.49 118.8H670.994L701.522 186H691.442L684.05 169.2ZM680.69 161.52L666.194 128.592L651.698 161.52H680.69Z" fill="white"/>
<defs>
<linearGradient id="paint0_linear_615_10986" x1="940.558" y1="58" x2="847.414" y2="-218.246" gradientUnits="userSpaceOnUse">
<stop stop-color="#9C32AD"/>
<stop offset="0.494792" stop-color="#6E3CFF"/>
<stop offset="1" stop-color="#0BC1B6"/>
</linearGradient>
</defs>
</svg>
