<svg width="28" height="28" viewBox="0 0 28 28" fill="none" xmlns="http://www.w3.org/2000/svg">
<mask id="mask0_0_284" style="mask-type:luminance" maskUnits="userSpaceOnUse" x="5" y="7" width="18" height="15">
<path fill-rule="evenodd" clip-rule="evenodd" d="M22.4 9.1234C21.7819 9.40501 21.1181 9.59509 20.4202 9.67963C21.1318 9.2424 21.6784 8.54994 21.9363 7.72501C21.2699 8.1294 20.5326 8.42448 19.7475 8.58225C19.1184 7.89571 18.2226 7.46655 17.2306 7.46655C15.327 7.46655 13.7847 9.04855 13.7847 11.0005C13.7847 11.2772 13.8146 11.5476 13.8734 11.806C11.0088 11.6585 8.46929 10.2515 6.76892 8.11325C6.47274 8.63555 6.3026 9.2424 6.3026 9.89017C6.3026 11.1168 6.91123 12.198 7.83546 12.8323C7.27094 12.8135 6.73951 12.6552 6.27477 12.3902C6.27424 12.4048 6.27424 12.4204 6.27424 12.4344C6.27424 14.1472 7.46209 15.5758 9.03906 15.9005C8.75024 15.9807 8.44566 16.0243 8.13111 16.0243C7.90845 16.0243 7.69315 16.0022 7.4831 15.9613C7.92106 17.3646 9.1945 18.3866 10.7022 18.4156C9.52323 19.3633 8.03711 19.9292 6.42233 19.9292C6.14401 19.9292 5.86937 19.9126 5.59998 19.8797C7.12496 20.8812 8.93666 21.4666 10.8833 21.4666C17.2227 21.4666 20.6901 16.0814 20.6901 11.4108C20.6901 11.2579 20.6859 11.1049 20.6796 10.9531C21.3534 10.455 21.9373 9.83309 22.4 9.1234Z" fill="white"/>
</mask>
<g mask="url(#mask0_0_284)">
<rect x="1.86664" y="1.8667" width="24.2667" height="24.2667" fill="#737373"/>
</g>
</svg>
