<svg width="61" height="70" viewBox="0 0 61 70" fill="none" xmlns="http://www.w3.org/2000/svg">
<path fill-rule="evenodd" clip-rule="evenodd" d="M21.2272 7.47895L29.09 2.93931C32.4381 1.00631 36.7192 2.15344 38.6522 5.50148L57.9991 39.0112C59.9321 42.3593 58.7849 46.6404 55.4369 48.5734L40.141 57.4045C39.7706 57.6183 39.3888 57.7945 39 57.9341V16.479C39 11.5084 34.9706 7.47896 30 7.47896H9C4.02944 7.47896 0 11.5084 0 16.479V60.479C0 65.4495 4.02944 69.479 9 69.479H30C34.9706 69.479 39 65.4495 39 60.479V60.0299C39.7329 59.8304 40.4523 59.5341 41.141 59.1365L56.4369 50.3054C60.7415 47.8201 62.2164 42.3158 59.7311 38.0112L40.3843 4.50148C37.899 0.196852 32.3947 -1.27802 28.09 1.20726L17.2272 7.47895H21.2272ZM30 9.47896H9C5.13401 9.47896 2 12.613 2 16.479V60.479C2 64.345 5.13401 67.479 9 67.479H30C33.866 67.479 37 64.345 37 60.479V16.479C37 12.613 33.866 9.47896 30 9.47896ZM22 17.979C22 19.3597 20.8807 20.479 19.5 20.479C18.1193 20.479 17 19.3597 17 17.979C17 16.5983 18.1193 15.479 19.5 15.479C20.8807 15.479 22 16.5983 22 17.979ZM24 17.979C24 20.4642 21.9853 22.479 19.5 22.479C17.0147 22.479 15 20.4642 15 17.979C15 15.4937 17.0147 13.479 19.5 13.479C21.9853 13.479 24 15.4937 24 17.979Z" fill="white"/>
</svg>
