<svg width="76" height="76" viewBox="0 0 76 76" fill="none" xmlns="http://www.w3.org/2000/svg">
<path fill-rule="evenodd" clip-rule="evenodd" d="M70 58L70 18C70 16.8954 69.1046 16 68 16L8 16C6.89543 16 6 16.8954 6 18L6 58C6 59.1046 6.89543 60 8 60L68 60C69.1046 60 70 59.1046 70 58ZM72 18C72 15.7909 70.2091 14 68 14L8 14C5.79086 14 4 15.7909 4 18L4 58C4 60.2091 5.79086 62 8 62L68 62C70.2091 62 72 60.2091 72 58L72 18Z" fill="white"/>
<path d="M22 52H54V55H22V52Z" fill="white"/>
<path d="M12 22H15V25H12V22Z" fill="white"/>
<path d="M19 22H22V25H19V22Z" fill="white"/>
<path d="M26 22H29V25H26V22Z" fill="white"/>
<path d="M33 22H36V25H33V22Z" fill="white"/>
<path d="M40 22H43V25H40V22Z" fill="white"/>
<path d="M47 22H50V25H47V22Z" fill="white"/>
<path d="M54 22H57V25H54V22Z" fill="white"/>
<path d="M61 22H64V25H61V22Z" fill="white"/>
<path d="M12 29H15V32H12V29Z" fill="white"/>
<path d="M19 29H22V32H19V29Z" fill="white"/>
<path d="M26 29H29V32H26V29Z" fill="white"/>
<path d="M33 29H36V32H33V29Z" fill="white"/>
<path d="M40 29H43V32H40V29Z" fill="white"/>
<path d="M47 29H50V32H47V29Z" fill="white"/>
<path d="M54 29H57V32H54V29Z" fill="white"/>
<path d="M61 29H64V32H61V29Z" fill="white"/>
<path d="M12 36H15V39H12V36Z" fill="white"/>
<path d="M19 36H22V39H19V36Z" fill="white"/>
<path d="M26 36H29V39H26V36Z" fill="white"/>
<path d="M33 36H36V39H33V36Z" fill="white"/>
<path d="M40 36H43V39H40V36Z" fill="white"/>
<path d="M47 36H50V39H47V36Z" fill="white"/>
<path d="M54 36H57V39H54V36Z" fill="white"/>
<path d="M61 36H64V39H61V36Z" fill="white"/>
<path d="M12 43H15V46H12V43Z" fill="white"/>
<path d="M19 43H22V46H19V43Z" fill="white"/>
<path d="M26 43H29V46H26V43Z" fill="white"/>
<path d="M33 43H36V46H33V43Z" fill="white"/>
<path d="M40 43H43V46H40V43Z" fill="white"/>
<path d="M47 43H50V46H47V43Z" fill="white"/>
<path d="M54 43H57V46H54V43Z" fill="white"/>
<path d="M61 43H64V46H61V43Z" fill="white"/>
</svg>
