<svg width="76" height="76" viewBox="0 0 76 76" fill="none" xmlns="http://www.w3.org/2000/svg">
<path fill-rule="evenodd" clip-rule="evenodd" d="M46 11H30C16.7452 11 6 21.7452 6 35V40C6 53.2548 16.7452 64 30 64H46C59.2548 64 70 53.2548 70 40V35C70 21.7452 59.2548 11 46 11ZM30 9C15.6406 9 4 20.6406 4 35V40C4 54.3594 15.6406 66 30 66H46C60.3594 66 72 54.3594 72 40V35C72 20.6406 60.3594 9 46 9H30Z" fill="white"/>
<path d="M5 36H71V38H5V36Z" fill="white"/>
<path d="M23 37C23 35.3431 24.3431 34 26 34H50C51.6569 34 53 35.3431 53 37C53 38.6569 51.6569 40 50 40H26C24.3431 40 23 38.6569 23 37Z" fill="white"/>
<path d="M41 47C41 48.6569 39.6569 50 38 50C36.3431 50 35 48.6569 35 47C35 45.3431 36.3431 44 38 44C39.6569 44 41 45.3431 41 47Z" fill="white"/>
</svg>
