<svg width="76" height="76" viewBox="0 0 76 76" fill="none" xmlns="http://www.w3.org/2000/svg">
<path fill-rule="evenodd" clip-rule="evenodd" d="M52.9621 37.4055L44.4768 28.9202L41.6484 31.7487L50.1337 40.2339L52.9621 37.4055ZM44.4768 26.0918L38.82 31.7487L50.1337 43.0624L55.7905 37.4055L44.4768 26.0918Z" fill="white"/>
<path fill-rule="evenodd" clip-rule="evenodd" d="M49.4265 31.0416L65.3364 15.1317C66.3127 14.1554 66.3127 12.5725 65.3364 11.5962C64.3601 10.6199 62.7771 10.6199 61.8008 11.5962L45.8909 27.5061L49.4265 31.0416ZM66.7506 10.182C64.9932 8.42462 62.144 8.42462 60.3866 10.182L43.0625 27.5061L49.4265 33.8701L66.7506 16.5459C68.5079 14.7886 68.5079 11.9393 66.7506 10.182Z" fill="white"/>
<path d="M63.9044 15.1141C63.3186 15.6999 62.3689 15.6999 61.7831 15.1141C61.1973 14.5283 61.1973 13.5786 61.7831 12.9928C62.3689 12.407 63.3186 12.407 63.9044 12.9928C64.4902 13.5786 64.4902 14.5283 63.9044 15.1141Z" fill="white"/>
<path fill-rule="evenodd" clip-rule="evenodd" d="M8.77032 64.63C8.07426 64.4011 7.48063 64.0492 6.99987 63.5685L40.2339 30.3345L50.1334 40.234C49.6528 40.7012 49.1719 41.1634 48.6912 41.6202C32.0973 57.3883 15.5603 66.8626 8.77032 64.63ZM47.2747 40.2037L40.2357 33.1647L10.4675 62.9328C11.132 62.9866 11.9579 62.9436 12.9786 62.7583C15.5106 62.2985 18.7652 61.0339 22.5619 58.9749C29.7338 55.0855 38.4699 48.5654 47.2747 40.2037Z" fill="white"/>
</svg>
