<svg width="76" height="76" viewBox="0 0 76 76" fill="none" xmlns="http://www.w3.org/2000/svg">
<path fill-rule="evenodd" clip-rule="evenodd" d="M54.4417 8.91003L55.5276 9.00365C58.8156 9.2871 61.7136 10.5833 64.1939 12.8663C66.7226 15.1938 68 18.1131 68 21.5583V41.875H61.1917V68H54.4417V8.91003ZM11.8208 10.9999C11.6388 10.9999 11.4638 11.0587 11.2613 11.2612C11.0588 11.4637 11 11.6388 11 11.8208V28.1291C11 29.6035 11.5133 30.8407 12.5675 31.8949C13.6218 32.9492 14.859 33.4625 16.3333 33.4625H17.3333V66H20.0833V33.4625H21.0833C22.5577 33.4625 23.7949 32.9492 24.8491 31.8949C25.9034 30.8407 26.4167 29.6035 26.4167 28.1291V11.8208C26.4167 11.6388 26.3579 11.4637 26.1554 11.2612C25.9529 11.0587 25.7778 10.9999 25.5958 10.9999C25.4098 10.9999 25.2104 11.0625 24.9719 11.2852C24.7475 11.4946 24.6958 11.6629 24.6958 11.8208V24.0625H19.5292V11.8208C19.5292 11.6388 19.4704 11.4637 19.2679 11.2612C19.0654 11.0587 18.8903 10.9999 18.7083 10.9999C18.5263 10.9999 18.3513 11.0587 18.1488 11.2612C17.9463 11.4637 17.8875 11.6388 17.8875 11.8208V24.0625H12.7208V11.8208C12.7208 11.6629 12.6691 11.4946 12.4448 11.2852C12.2062 11.0625 12.0068 10.9999 11.8208 10.9999ZM9.84706 9.84701C10.3834 9.31062 11.0528 8.99995 11.8208 8.99995C12.5848 8.99995 13.2563 9.30681 13.8094 9.82306C14.3767 10.3525 14.7208 11.0287 14.7208 11.8208V22.0625H15.8875V11.8208C15.8875 11.0528 16.1982 10.3834 16.7346 9.84701C17.2709 9.31062 17.9403 8.99995 18.7083 8.99995C19.4763 8.99995 20.1457 9.31062 20.6821 9.84701C21.2185 10.3834 21.5292 11.0528 21.5292 11.8208V22.0625H22.6958V11.8208C22.6958 11.0287 23.04 10.3525 23.6073 9.82306C24.1604 9.30681 24.8318 8.99995 25.5958 8.99995C26.3638 8.99995 27.0332 9.31062 27.5696 9.84701C28.106 10.3834 28.4167 11.0528 28.4167 11.8208V28.1291C28.4167 30.1381 27.6897 31.8828 26.2634 33.3091C25.0792 34.4933 23.6755 35.1955 22.0833 35.3997V68H15.3333V35.3997C13.7412 35.1955 12.3375 34.4933 11.1533 33.3091C9.72699 31.8828 9 30.1381 9 28.1291V11.8208C9 11.0528 9.31067 10.3834 9.84706 9.84701ZM40.9542 10.9999C38.5231 10.9999 36.6253 12.0579 35.1852 14.3007C33.6856 16.6361 32.9292 19.2831 32.9292 22.2708C32.9292 24.8222 33.4534 27.0298 34.4721 28.9217C35.4849 30.8025 36.9803 32.305 38.9893 33.432L39.5 33.7185V66H42.25V33.7185L42.7607 33.432C44.7733 32.303 46.3 30.7952 47.3665 28.9045C48.4319 27.0159 48.9792 24.8146 48.9792 22.2708C48.9792 19.2831 48.2227 16.6361 46.7231 14.3007C45.283 12.0579 43.3852 10.9999 40.9542 10.9999ZM33.5023 13.2201C35.2816 10.449 37.7908 8.99995 40.9542 8.99995C44.1176 8.99995 46.6267 10.449 48.406 13.2201C50.1259 15.8985 50.9792 18.9252 50.9792 22.2708C50.9792 25.1103 50.3653 27.659 49.1085 29.8871C47.9467 31.9466 46.3205 33.611 44.25 34.8771V68H37.5V34.8768C35.4296 33.6084 33.8252 31.9387 32.7112 29.8699C31.5132 27.6451 30.9292 25.1027 30.9292 22.2708C30.9292 18.9252 31.7824 15.8985 33.5023 13.2201ZM56.4417 11.1349V66H59.1917V39.875H66V21.5583C66 18.6702 64.9552 16.2852 62.8394 14.3378C60.9561 12.6043 58.8296 11.5424 56.4417 11.1349Z" fill="white"/>
</svg>
