<svg width="76" height="76" viewBox="0 0 76 76" fill="none" xmlns="http://www.w3.org/2000/svg">
<path fill-rule="evenodd" clip-rule="evenodd" d="M38 58C49.0457 58 58 49.0457 58 38C58 26.9543 49.0457 18 38 18C26.9543 18 18 26.9543 18 38C18 49.0457 26.9543 58 38 58ZM38 60C50.1503 60 60 50.1503 60 38C60 25.8497 50.1503 16 38 16C25.8497 16 16 25.8497 16 38C16 50.1503 25.8497 60 38 60Z" fill="white"/>
<path fill-rule="evenodd" clip-rule="evenodd" d="M32.0729 8C31.1668 8 30.3739 8.60917 30.1404 9.48467L27.6869 18.6855C27.6445 18.8442 27.7642 19 27.9285 19C28.1955 19 28.2835 19.3762 28.0485 19.5029C27.2595 19.9282 26.5009 20.4026 25.7767 20.9218C25.7062 20.9724 25.6216 21 25.5348 21C25.2647 21 25.068 20.744 25.1376 20.483L25.5331 19L28.6039 7.48467C28.8373 6.60917 29.6302 6 30.5363 6H45.4632C46.3693 6 47.1622 6.60917 47.3957 7.48467L50.4664 19L50.8619 20.483C50.9315 20.744 50.7348 21 50.4647 21C50.3779 21 50.2934 20.9724 50.2228 20.9218C49.4986 20.4026 48.74 19.9282 47.9511 19.5029C47.7161 19.3762 47.8041 19 48.071 19C48.2353 19 48.355 18.8442 48.3127 18.6855L45.8591 9.48467C45.6257 8.60917 44.8328 8 43.9267 8H32.0729ZM25.7767 55.0782C25.7062 55.0276 25.6216 55 25.5348 55C25.2647 55 25.068 55.256 25.1376 55.517L25.5331 57L28.6039 68.5153C28.8373 69.3908 29.6302 70 30.5363 70H45.4632C46.3693 70 47.1622 69.3908 47.3957 68.5153L50.4664 57L50.8619 55.517C50.9315 55.256 50.7348 55 50.4647 55C50.3779 55 50.2934 55.0276 50.2228 55.0782C49.4986 55.5974 48.74 56.0718 47.9511 56.4971C47.7161 56.6238 47.8041 57 48.071 57C48.2354 57 48.355 57.1558 48.3127 57.3145L45.8591 66.5153C45.6257 67.3908 44.8328 68 43.9267 68H32.0729C31.1668 68 30.3739 67.3908 30.1404 66.5153L27.6869 57.3145C27.6445 57.1558 27.7642 57 27.9285 57C28.1955 57 28.2835 56.6238 28.0485 56.4971C27.2595 56.0718 26.5009 55.5974 25.7767 55.0782Z" fill="white"/>
<path d="M37 25C37 24.4477 37.4477 24 38 24C38.5523 24 39 24.4477 39 25V38C39 38.5523 38.5523 39 38 39C37.4477 39 37 38.5523 37 38V25Z" fill="white"/>
<path d="M38 37C38.5523 37 39 37.4477 39 38C39 38.5523 38.5523 39 38 39L29 39C28.4477 39 28 38.5523 28 38C28 37.4477 28.4477 37 29 37L38 37Z" fill="white"/>
</svg>
