<svg width="76" height="76" viewBox="0 0 76 76" fill="none" xmlns="http://www.w3.org/2000/svg">
<path fill-rule="evenodd" clip-rule="evenodd" d="M63.5 43H12.5C8.91015 43 6 45.9101 6 49.5C6 53.0899 8.91015 56 12.5 56H63.5C67.0899 56 70 53.0899 70 49.5C70 45.9101 67.0899 43 63.5 43ZM12.5 41C7.80558 41 4 44.8056 4 49.5C4 54.1944 7.80558 58 12.5 58H63.5C68.1944 58 72 54.1944 72 49.5C72 44.8056 68.1944 41 63.5 41H12.5Z" fill="white"/>
<path fill-rule="evenodd" clip-rule="evenodd" d="M54.5 28H21.5C17.9101 28 15 30.9101 15 34.5C15 38.0899 17.9102 41 21.5 41H54.5C58.0899 41 61 38.0899 61 34.5C61 30.9101 58.0899 28 54.5 28ZM21.5 26C16.8056 26 13 29.8056 13 34.5C13 39.1944 16.8056 43 21.5 43H54.5C59.1944 43 63 39.1944 63 34.5C63 29.8056 59.1944 26 54.5 26H21.5Z" fill="white"/>
<path fill-rule="evenodd" clip-rule="evenodd" d="M29.5 56C33.0899 56 36 53.0899 36 49.5C36 45.9101 33.0899 43 29.5 43C25.9101 43 23 45.9101 23 49.5C23 53.0899 25.9101 56 29.5 56ZM29.5 58C34.1944 58 38 54.1944 38 49.5C38 44.8056 34.1944 41 29.5 41C24.8056 41 21 44.8056 21 49.5C21 54.1944 24.8056 58 29.5 58Z" fill="white"/>
<path fill-rule="evenodd" clip-rule="evenodd" d="M12.5 56C16.0899 56 19 53.0899 19 49.5C19 45.9101 16.0899 43 12.5 43C8.91015 43 6 45.9101 6 49.5C6 53.0899 8.91015 56 12.5 56ZM12.5 58C17.1944 58 21 54.1944 21 49.5C21 44.8056 17.1944 41 12.5 41C7.80558 41 4 44.8056 4 49.5C4 54.1944 7.80558 58 12.5 58Z" fill="white"/>
<path fill-rule="evenodd" clip-rule="evenodd" d="M21.5 41C25.0899 41 28 38.0899 28 34.5C28 30.9101 25.0899 28 21.5 28C17.9101 28 15 30.9101 15 34.5C15 38.0899 17.9101 41 21.5 41ZM21.5 43C26.1944 43 30 39.1944 30 34.5C30 29.8056 26.1944 26 21.5 26C16.8056 26 13 29.8056 13 34.5C13 39.1944 16.8056 43 21.5 43Z" fill="white"/>
<path fill-rule="evenodd" clip-rule="evenodd" d="M21.5 37C22.8807 37 24 35.8807 24 34.5C24 33.1193 22.8807 32 21.5 32C20.1193 32 19 33.1193 19 34.5C19 35.8807 20.1193 37 21.5 37ZM21.5 39C23.9853 39 26 36.9853 26 34.5C26 32.0147 23.9853 30 21.5 30C19.0147 30 17 32.0147 17 34.5C17 36.9853 19.0147 39 21.5 39Z" fill="white"/>
<path fill-rule="evenodd" clip-rule="evenodd" d="M29.5 52C30.8807 52 32 50.8807 32 49.5C32 48.1193 30.8807 47 29.5 47C28.1193 47 27 48.1193 27 49.5C27 50.8807 28.1193 52 29.5 52ZM29.5 54C31.9853 54 34 51.9853 34 49.5C34 47.0147 31.9853 45 29.5 45C27.0147 45 25 47.0147 25 49.5C25 51.9853 27.0147 54 29.5 54Z" fill="white"/>
<path fill-rule="evenodd" clip-rule="evenodd" d="M12.5 52C13.8807 52 15 50.8807 15 49.5C15 48.1193 13.8807 47 12.5 47C11.1193 47 10 48.1193 10 49.5C10 50.8807 11.1193 52 12.5 52ZM12.5 54C14.9853 54 17 51.9853 17 49.5C17 47.0147 14.9853 45 12.5 45C10.0147 45 8 47.0147 8 49.5C8 51.9853 10.0147 54 12.5 54Z" fill="white"/>
<path fill-rule="evenodd" clip-rule="evenodd" d="M54.3136 47.6569C54.3136 48.2092 53.8659 48.6569 53.3136 48.6569H41.9999C41.4476 48.6569 40.9999 48.2092 40.9999 47.6569C40.9999 47.1046 41.4476 46.6569 41.9999 46.6569H53.3136C53.8659 46.6569 54.3136 47.1046 54.3136 47.6569Z" fill="white"/>
<path fill-rule="evenodd" clip-rule="evenodd" d="M65.3136 52.6569C65.3136 53.2092 64.8659 53.6569 64.3136 53.6569H52.9999C52.4476 53.6569 51.9999 53.2092 51.9999 52.6569C51.9999 52.1046 52.4476 51.6569 52.9999 51.6569H64.3136C64.8659 51.6569 65.3136 52.1046 65.3136 52.6569Z" fill="white"/>
<path fill-rule="evenodd" clip-rule="evenodd" d="M56.6276 32.6569C56.6276 33.2092 56.1798 33.6569 55.6276 33.6569H44.3138C43.7616 33.6569 43.3138 33.2092 43.3138 32.6569C43.3138 32.1046 43.7616 31.6569 44.3138 31.6569H55.6276C56.1798 31.6569 56.6276 32.1046 56.6276 32.6569Z" fill="white"/>
<path fill-rule="evenodd" clip-rule="evenodd" d="M45.3136 37.6569C45.3136 38.2092 44.8659 38.6569 44.3136 38.6569H32.9999C32.4476 38.6569 31.9999 38.2092 31.9999 37.6569C31.9999 37.1046 32.4476 36.6569 32.9999 36.6569H44.3136C44.8659 36.6569 45.3136 37.1046 45.3136 37.6569Z" fill="white"/>
</svg>
