<svg width="76" height="76" viewBox="0 0 76 76" fill="none" xmlns="http://www.w3.org/2000/svg">
<path fill-rule="evenodd" clip-rule="evenodd" d="M14.0652 64.3606C16.6883 62.1307 20.0894 60.7826 23.8044 60.7826C28.3124 60.7826 32.3591 62.768 35.1132 65.9053C35.1545 65.9523 35.1942 65.9789 35.2198 65.9914C35.2317 65.9972 35.239 65.9993 35.2421 66H39.7579C39.761 65.9993 39.7683 65.9972 39.7802 65.9914C39.8059 65.9789 39.8455 65.9523 39.8868 65.9053C42.6409 62.768 46.6876 60.7826 51.1956 60.7826C54.9106 60.7826 58.3116 62.1307 60.9347 64.3605V58.676C60.9338 58.6722 60.9307 58.663 60.9222 58.6481C60.9039 58.6162 60.8661 58.5698 60.8035 58.5272C55.3075 54.7925 51.8044 47.1461 51.8044 38.6522C51.8044 30.1583 55.3075 22.5118 60.8035 18.7771C60.8661 18.7346 60.9039 18.6881 60.9222 18.6562C60.9307 18.6413 60.9338 18.6322 60.9347 18.6283V15.3253C60.9156 15.2811 60.8279 15.1424 60.4871 14.9904C60.2612 14.8896 60.0049 14.8314 59.7662 14.8253C59.5251 14.819 59.3667 14.8665 59.2872 14.9067C57.2458 15.9403 54.9379 16.5217 52.5 16.5217C47.4065 16.5217 42.9049 13.9885 40.1864 10.1221C40.145 10.0632 40.1007 10.0281 40.0708 10.0114C40.0572 10.0037 40.0488 10.0009 40.0451 10H34.9548C34.9511 10.0009 34.9427 10.0037 34.9291 10.0114C34.8992 10.0281 34.8549 10.0632 34.8135 10.1221C32.095 13.9885 27.5934 16.5217 22.5 16.5217C20.062 16.5217 17.7541 15.9403 15.7127 14.9067C15.6332 14.8665 15.4748 14.819 15.2337 14.8253C14.9951 14.8315 14.7387 14.8896 14.5128 14.9904C14.1721 15.1424 14.0843 15.2811 14.0652 15.3253V18.6283C14.0661 18.6321 14.0692 18.6413 14.0777 18.6562C14.096 18.6881 14.1338 18.7345 14.1964 18.7771C19.6924 22.5118 23.1956 30.1583 23.1956 38.6522C23.1956 47.1461 19.6924 54.7925 14.1964 58.5273C14.1338 58.5698 14.096 58.6163 14.0777 58.6481C14.0692 58.6631 14.0661 58.6722 14.0652 58.676V64.3606ZM14.0648 58.6781C14.0648 58.6781 14.0648 58.6776 14.0651 58.6765L14.0648 58.6781ZM14.0648 18.6262C14.0648 18.6262 14.065 18.6267 14.0651 18.6278L14.0648 18.6262ZM14.0605 15.34C14.0602 15.3399 14.0608 15.3368 14.0629 15.3311C14.0618 15.3372 14.0608 15.3401 14.0605 15.34ZM60.9394 15.34C60.9392 15.3401 60.9381 15.3373 60.9371 15.3311C60.9392 15.3368 60.9397 15.3398 60.9394 15.34ZM60.9351 58.678C60.9351 58.6783 60.935 58.6778 60.9349 58.6766L60.9351 58.678ZM12.0652 58.6735C12.0652 57.9443 12.4692 57.2829 13.0723 56.8731C17.879 53.6067 21.1956 46.6752 21.1956 38.6522C21.1956 30.6291 17.879 23.6976 13.0723 20.4313C12.4692 20.0214 12.0652 19.36 12.0652 18.6308V15.2972C12.0652 13.376 14.9021 12.2546 16.6161 13.1224C18.3839 14.0174 20.383 14.5217 22.5 14.5217C26.9148 14.5217 30.8174 12.3283 33.1774 8.97181C33.588 8.38778 34.2381 8 34.952 8H40.0479C40.7618 8 41.4119 8.38778 41.8225 8.9718C44.1825 12.3283 48.0851 14.5217 52.5 14.5217C54.6169 14.5217 56.616 14.0174 58.3838 13.1224C60.0978 12.2546 62.9347 13.376 62.9347 15.2972V18.6308C62.9347 19.3601 62.5307 20.0215 61.9276 20.4313C57.121 23.6976 53.8044 30.6291 53.8044 38.6522C53.8044 46.6752 57.121 53.6067 61.9276 56.873C62.5307 57.2829 62.9347 57.9443 62.9347 58.6735V67.1308C62.9347 67.6108 62.5456 68 62.0655 68C61.7922 68 61.5362 67.8702 61.3648 67.6572C58.9741 64.6848 55.307 62.7826 51.1956 62.7826C47.2872 62.7826 43.7804 64.5016 41.3898 67.2248C40.9748 67.6975 40.3898 68 39.7608 68H35.2393C34.6102 68 34.0252 67.6975 33.6102 67.2248C31.2196 64.5016 27.7128 62.7826 23.8044 62.7826C19.693 62.7826 16.0259 64.6848 13.6352 67.6572C13.4639 67.8702 13.2078 68 12.9344 68C12.4544 68 12.0652 67.6108 12.0652 67.1307V58.6735Z" fill="white"/>
</svg>
