<svg width="76" height="76" viewBox="0 0 76 76" fill="none" xmlns="http://www.w3.org/2000/svg">
<path fill-rule="evenodd" clip-rule="evenodd" d="M28.3514 43H12.6488L7.04099 56L33.9592 56L28.3514 43ZM12.6488 41C11.8505 41 11.1286 41.4748 10.8124 42.2078L5.20457 55.2078C4.63504 56.5281 5.60313 58 7.04099 58H33.9592C35.3971 58 36.3652 56.5281 35.7956 55.2078L30.1878 42.2078C29.8716 41.4748 29.1497 41 28.3514 41H12.6488Z" fill="white"/>
<path fill-rule="evenodd" clip-rule="evenodd" d="M63.3514 43H47.6488L42.041 56L68.9592 56L63.3514 43ZM47.6488 41C46.8505 41 46.1286 41.4748 45.8124 42.2078L40.2046 55.2078C39.635 56.5281 40.6031 58 42.041 58H68.9592C70.3971 58 71.3652 56.5281 70.7956 55.2078L65.1878 42.2078C64.8716 41.4748 64.1497 41 63.3514 41H47.6488Z" fill="white"/>
<path fill-rule="evenodd" clip-rule="evenodd" d="M46.7308 25H29.2692L23.1516 38L52.8484 38L46.7308 25ZM29.2692 23C28.4945 23 27.7895 23.4474 27.4596 24.1484L21.3419 37.1484C20.7177 38.4749 21.6856 40 23.1516 40H52.8484C54.3145 40 55.2823 38.4749 54.6581 37.1484L48.5404 24.1484C48.2106 23.4474 47.5055 23 46.7308 23H29.2692Z" fill="white"/>
<path fill-rule="evenodd" clip-rule="evenodd" d="M38.7071 27.2929C39.0976 27.6834 39.0976 28.3166 38.7071 28.7071L30.7071 36.7071C30.3166 37.0976 29.6834 37.0976 29.2929 36.7071C28.9024 36.3166 28.9024 35.6834 29.2929 35.2929L37.2929 27.2929C37.6834 26.9024 38.3166 26.9024 38.7071 27.2929Z" fill="white"/>
<path fill-rule="evenodd" clip-rule="evenodd" d="M46.7071 30.2929C47.0976 30.6834 47.0976 31.3166 46.7071 31.7071L41.7071 36.7071C41.3166 37.0976 40.6834 37.0976 40.2929 36.7071C39.9024 36.3166 39.9024 35.6834 40.2929 35.2929L45.2929 30.2929C45.6834 29.9024 46.3166 29.9024 46.7071 30.2929Z" fill="white"/>
<path fill-rule="evenodd" clip-rule="evenodd" d="M55.7071 45.2929C56.0976 45.6834 56.0976 46.3166 55.7071 46.7071L47.7071 54.7071C47.3166 55.0976 46.6834 55.0976 46.2929 54.7071C45.9024 54.3166 45.9024 53.6834 46.2929 53.2929L54.2929 45.2929C54.6834 44.9024 55.3166 44.9024 55.7071 45.2929Z" fill="white"/>
<path fill-rule="evenodd" clip-rule="evenodd" d="M63.7071 48.2929C64.0976 48.6834 64.0976 49.3166 63.7071 49.7071L58.7071 54.7071C58.3166 55.0976 57.6834 55.0976 57.2929 54.7071C56.9024 54.3166 56.9024 53.6834 57.2929 53.2929L62.2929 48.2929C62.6834 47.9024 63.3166 47.9024 63.7071 48.2929Z" fill="white"/>
<path fill-rule="evenodd" clip-rule="evenodd" d="M20.7071 45.2929C21.0976 45.6834 21.0976 46.3166 20.7071 46.7071L12.7071 54.7071C12.3166 55.0976 11.6834 55.0976 11.2929 54.7071C10.9024 54.3166 10.9024 53.6834 11.2929 53.2929L19.2929 45.2929C19.6834 44.9024 20.3166 44.9024 20.7071 45.2929Z" fill="white"/>
<path fill-rule="evenodd" clip-rule="evenodd" d="M28.7071 48.2929C29.0976 48.6834 29.0976 49.3166 28.7071 49.7071L23.7071 54.7071C23.3166 55.0976 22.6834 55.0976 22.2929 54.7071C21.9024 54.3166 21.9024 53.6834 22.2929 53.2929L27.2929 48.2929C27.6834 47.9024 28.3166 47.9024 28.7071 48.2929Z" fill="white"/>
</svg>
