<svg width="76" height="76" viewBox="0 0 76 76" fill="none" xmlns="http://www.w3.org/2000/svg">
<path fill-rule="evenodd" clip-rule="evenodd" d="M59.5 10H16.5C12.9101 10 10 12.9101 10 16.5C10 20.0899 12.9101 23 16.5 23H59.5C63.0899 23 66 20.0899 66 16.5C66 12.9101 63.0899 10 59.5 10ZM16.5 8C11.8056 8 8 11.8056 8 16.5C8 21.1944 11.8056 25 16.5 25H59.5C64.1944 25 68 21.1944 68 16.5C68 11.8056 64.1944 8 59.5 8H16.5Z" fill="white"/>
<path fill-rule="evenodd" clip-rule="evenodd" d="M8.01317 17H8V19V66V68H10H52.7647H54.7647V66V24.2857H52.7647V66H10V21.7374C8.85215 20.4692 8.11868 18.8188 8.01317 17Z" fill="white"/>
<path fill-rule="evenodd" clip-rule="evenodd" d="M16.5 23C20.0899 23 23 20.0899 23 16.5C23 12.9101 20.0899 10 16.5 10C12.9101 10 10 12.9101 10 16.5C10 20.0899 12.9101 23 16.5 23ZM16.5 25C21.1944 25 25 21.1944 25 16.5C25 11.8056 21.1944 8 16.5 8C11.8056 8 8 11.8056 8 16.5C8 21.1944 11.8056 25 16.5 25Z" fill="white"/>
</svg>
