<svg width="76" height="76" viewBox="0 0 76 76" fill="none" xmlns="http://www.w3.org/2000/svg">
<path fill-rule="evenodd" clip-rule="evenodd" d="M70 58L70 18C70 16.8954 69.1046 16 68 16L8 16C6.89543 16 6 16.8954 6 18L6 58C6 59.1046 6.89543 60 8 60L68 60C69.1046 60 70 59.1046 70 58ZM72 18C72 15.7909 70.2091 14 68 14L8 14C5.79086 14 4 15.7909 4 18L4 58C4 60.2091 5.79086 62 8 62L68 62C70.2091 62 72 60.2091 72 58L72 18Z" fill="white"/>
<path d="M25.0066 33.548V36.595H23.3566V35H17.9226V36.595H16.2726L16.2836 33.548H16.5916C17.0536 33.5333 17.38 33.196 17.5706 32.536C17.7613 31.876 17.8786 30.9337 17.9226 29.709L18.0106 27.3H23.9286V33.548H25.0066ZM19.4956 29.874C19.459 30.7907 19.382 31.5607 19.2646 32.184C19.1473 32.8 18.9676 33.2547 18.7256 33.548H22.1686V28.752H19.5286L19.4956 29.874Z" fill="white"/>
<path d="M29.5612 28.994C30.1112 28.994 30.6099 29.1223 31.0572 29.379C31.5119 29.6283 31.8676 29.984 32.1242 30.446C32.3809 30.9007 32.5092 31.4323 32.5092 32.041C32.5092 32.6497 32.3809 33.185 32.1242 33.647C31.8676 34.1017 31.5119 34.4573 31.0572 34.714C30.6099 34.9633 30.1112 35.088 29.5612 35.088C28.8059 35.088 28.2119 34.8497 27.7792 34.373V37.134H26.0632V29.082H27.7022V29.764C28.1276 29.2507 28.7472 28.994 29.5612 28.994ZM29.2642 33.68C29.7042 33.68 30.0636 33.5333 30.3422 33.24C30.6282 32.9393 30.7712 32.5397 30.7712 32.041C30.7712 31.5423 30.6282 31.1463 30.3422 30.853C30.0636 30.5523 29.7042 30.402 29.2642 30.402C28.8242 30.402 28.4612 30.5523 28.1752 30.853C27.8966 31.1463 27.7572 31.5423 27.7572 32.041C27.7572 32.5397 27.8966 32.9393 28.1752 33.24C28.4612 33.5333 28.8242 33.68 29.2642 33.68Z" fill="white"/>
<path d="M39.4798 29.082L36.8068 35.363C36.5354 36.045 36.1981 36.5253 35.7948 36.804C35.3988 37.0827 34.9184 37.222 34.3538 37.222C34.0458 37.222 33.7414 37.1743 33.4408 37.079C33.1401 36.9837 32.8944 36.8517 32.7038 36.683L33.3308 35.462C33.4628 35.5793 33.6131 35.671 33.7818 35.737C33.9578 35.803 34.1301 35.836 34.2988 35.836C34.5334 35.836 34.7241 35.7773 34.8708 35.66C35.0174 35.55 35.1494 35.363 35.2668 35.099L35.2888 35.044L32.7258 29.082H34.4968L36.1578 33.097L37.8298 29.082H39.4798Z" fill="white"/>
<path d="M45.0486 30.49H42.0126V35H40.3076V29.082H45.0486V30.49Z" fill="white"/>
<path d="M48.4829 35.088C47.8596 35.088 47.2986 34.9597 46.7999 34.703C46.3086 34.439 45.9236 34.076 45.6449 33.614C45.3663 33.152 45.2269 32.6277 45.2269 32.041C45.2269 31.4543 45.3663 30.93 45.6449 30.468C45.9236 30.006 46.3086 29.6467 46.7999 29.39C47.2986 29.126 47.8596 28.994 48.4829 28.994C49.1063 28.994 49.6636 29.126 50.1549 29.39C50.6463 29.6467 51.0313 30.006 51.3099 30.468C51.5886 30.93 51.7279 31.4543 51.7279 32.041C51.7279 32.6277 51.5886 33.152 51.3099 33.614C51.0313 34.076 50.6463 34.439 50.1549 34.703C49.6636 34.9597 49.1063 35.088 48.4829 35.088ZM48.4829 33.68C48.9229 33.68 49.2823 33.5333 49.5609 33.24C49.8469 32.9393 49.9899 32.5397 49.9899 32.041C49.9899 31.5423 49.8469 31.1463 49.5609 30.853C49.2823 30.5523 48.9229 30.402 48.4829 30.402C48.0429 30.402 47.6799 30.5523 47.3939 30.853C47.1079 31.1463 46.9649 31.5423 46.9649 32.041C46.9649 32.5397 47.1079 32.9393 47.3939 33.24C47.6799 33.5333 48.0429 33.68 48.4829 33.68Z" fill="white"/>
<path d="M52.9082 29.082H54.6132V32.602L57.4952 29.082H59.0682V35H57.3632V31.48L54.4922 35H52.9082V29.082ZM55.8782 28.444C54.5875 28.444 53.9385 27.8757 53.9312 26.739H55.0532C55.0605 26.9957 55.1302 27.1973 55.2622 27.344C55.4015 27.4833 55.6032 27.553 55.8672 27.553C56.1312 27.553 56.3329 27.4833 56.4722 27.344C56.6189 27.1973 56.6922 26.9957 56.6922 26.739H57.8362C57.8289 27.8757 57.1762 28.444 55.8782 28.444Z" fill="white"/>
<path d="M15.7359 48V44.458L13.9649 47.428H13.2389L11.5119 44.447V48H9.96094V42.082H11.7539L13.6459 45.503L15.6589 42.082H17.2649L17.2869 48H15.7359Z" fill="white"/>
<path d="M21.2297 41.994C22.1463 41.994 22.8503 42.214 23.3417 42.654C23.833 43.0867 24.0787 43.743 24.0787 44.623V48H22.4727V47.263C22.15 47.813 21.5487 48.088 20.6687 48.088C20.214 48.088 19.818 48.011 19.4807 47.857C19.1507 47.703 18.8977 47.4903 18.7217 47.219C18.5457 46.9477 18.4577 46.6397 18.4577 46.295C18.4577 45.745 18.663 45.3123 19.0737 44.997C19.4917 44.6817 20.1333 44.524 20.9987 44.524H22.3627C22.3627 44.15 22.249 43.864 22.0217 43.666C21.7943 43.4607 21.4533 43.358 20.9987 43.358C20.6833 43.358 20.3717 43.4093 20.0637 43.512C19.763 43.6073 19.5063 43.7393 19.2937 43.908L18.6777 42.709C19.0003 42.4817 19.3853 42.3057 19.8327 42.181C20.2873 42.0563 20.753 41.994 21.2297 41.994ZM21.0977 46.933C21.391 46.933 21.6513 46.867 21.8787 46.735C22.106 46.5957 22.2673 46.394 22.3627 46.13V45.525H21.1857C20.4817 45.525 20.1297 45.756 20.1297 46.218C20.1297 46.438 20.214 46.614 20.3827 46.746C20.5587 46.8707 20.797 46.933 21.0977 46.933Z" fill="white"/>
<path d="M30.5413 43.49H28.5393V48H26.8343V43.49H24.8323V42.082H30.5413V43.49Z" fill="white"/>
<path d="M36.962 45.063C36.962 45.085 36.951 45.239 36.929 45.525H32.452C32.5327 45.8917 32.7233 46.1813 33.024 46.394C33.3246 46.6067 33.6987 46.713 34.146 46.713C34.454 46.713 34.7253 46.669 34.96 46.581C35.202 46.4857 35.4256 46.339 35.631 46.141L36.544 47.131C35.9867 47.769 35.1727 48.088 34.102 48.088C33.4347 48.088 32.8443 47.9597 32.331 47.703C31.8177 47.439 31.4217 47.076 31.143 46.614C30.8643 46.152 30.725 45.6277 30.725 45.041C30.725 44.4617 30.8606 43.941 31.132 43.479C31.4107 43.0097 31.7883 42.6467 32.265 42.39C32.749 42.126 33.288 41.994 33.882 41.994C34.4613 41.994 34.9857 42.1187 35.455 42.368C35.9243 42.6173 36.291 42.9767 36.555 43.446C36.8263 43.908 36.962 44.447 36.962 45.063ZM33.893 43.292C33.5043 43.292 33.178 43.402 32.914 43.622C32.65 43.842 32.4886 44.1427 32.43 44.524H35.345C35.2863 44.15 35.125 43.853 34.861 43.633C34.597 43.4057 34.2743 43.292 33.893 43.292Z" fill="white"/>
<path d="M41.7643 41.994C42.3143 41.994 42.813 42.1223 43.2603 42.379C43.715 42.6283 44.0707 42.984 44.3273 43.446C44.584 43.9007 44.7123 44.4323 44.7123 45.041C44.7123 45.6497 44.584 46.185 44.3273 46.647C44.0707 47.1017 43.715 47.4573 43.2603 47.714C42.813 47.9633 42.3143 48.088 41.7643 48.088C41.009 48.088 40.415 47.8497 39.9823 47.373V50.134H38.2663V42.082H39.9053V42.764C40.3307 42.2507 40.9503 41.994 41.7643 41.994ZM41.4673 46.68C41.9073 46.68 42.2667 46.5333 42.5453 46.24C42.8313 45.9393 42.9743 45.5397 42.9743 45.041C42.9743 44.5423 42.8313 44.1463 42.5453 43.853C42.2667 43.5523 41.9073 43.402 41.4673 43.402C41.0273 43.402 40.6643 43.5523 40.3783 43.853C40.0997 44.1463 39.9603 44.5423 39.9603 45.041C39.9603 45.5397 40.0997 45.9393 40.3783 46.24C40.6643 46.5333 41.0273 46.68 41.4673 46.68Z" fill="white"/>
<path d="M45.915 42.082H47.62V45.602L50.502 42.082H52.075V48H50.37V44.48L47.499 48H45.915V42.082Z" fill="white"/>
<path d="M56.0236 41.994C56.9403 41.994 57.6443 42.214 58.1356 42.654C58.6269 43.0867 58.8726 43.743 58.8726 44.623V48H57.2666V47.263C56.9439 47.813 56.3426 48.088 55.4626 48.088C55.0079 48.088 54.6119 48.011 54.2746 47.857C53.9446 47.703 53.6916 47.4903 53.5156 47.219C53.3396 46.9477 53.2516 46.6397 53.2516 46.295C53.2516 45.745 53.4569 45.3123 53.8676 44.997C54.2856 44.6817 54.9273 44.524 55.7926 44.524H57.1566C57.1566 44.15 57.0429 43.864 56.8156 43.666C56.5883 43.4607 56.2473 43.358 55.7926 43.358C55.4773 43.358 55.1656 43.4093 54.8576 43.512C54.5569 43.6073 54.3003 43.7393 54.0876 43.908L53.4716 42.709C53.7943 42.4817 54.1793 42.3057 54.6266 42.181C55.0813 42.0563 55.5469 41.994 56.0236 41.994ZM55.8916 46.933C56.1849 46.933 56.4453 46.867 56.6726 46.735C56.8999 46.5957 57.0613 46.394 57.1566 46.13V45.525H55.9796C55.2756 45.525 54.9236 45.756 54.9236 46.218C54.9236 46.438 55.0079 46.614 55.1766 46.746C55.3526 46.8707 55.5909 46.933 55.8916 46.933Z" fill="white"/>
<path d="M66.0393 42.082V48H64.3233V43.49H62.4533L62.3983 44.535C62.3689 45.3123 62.2956 45.9577 62.1783 46.471C62.0609 46.9843 61.8703 47.3877 61.6063 47.681C61.3423 47.9743 60.9756 48.121 60.5063 48.121C60.2569 48.121 59.9599 48.077 59.6153 47.989L59.7033 46.581C59.8206 46.5957 59.9049 46.603 59.9563 46.603C60.2129 46.603 60.4036 46.5113 60.5283 46.328C60.6603 46.1373 60.7483 45.899 60.7923 45.613C60.8363 45.3197 60.8693 44.9347 60.8913 44.458L60.9793 42.082H66.0393Z" fill="white"/>
</svg>
