<svg width="76" height="76" viewBox="0 0 76 76" fill="none" xmlns="http://www.w3.org/2000/svg">
<path fill-rule="evenodd" clip-rule="evenodd" d="M6 27.5C6 30.5184 7.40539 33.2073 9.60542 34.9507C11.2233 36.2328 11.2233 38.7672 9.60542 40.0493C7.40539 41.7927 6 44.4816 6 47.5C6 52.7467 10.2533 57 15.5 57C19.2305 57 22.4626 54.85 24.0178 51.7125C24.5039 50.7319 25.5221 50 26.7474 50H49.2526C50.4779 50 51.4961 50.7319 51.9821 51.7125C53.5374 54.85 56.7695 57 60.5 57C65.7467 57 70 52.7467 70 47.5C70 44.4816 68.5946 41.7927 66.3946 40.0493C64.7767 38.7672 64.7767 36.2328 66.3946 34.9507C68.5946 33.2073 70 30.5184 70 27.5C70 22.2533 65.7467 18 60.5 18C56.7695 18 53.5374 20.15 51.9821 23.2875C51.4961 24.2681 50.4779 25 49.2526 25H42.8846C40.9653 25 40 23.2872 40 22C40 20.8954 39.1046 20 38 20C36.8954 20 36 20.8954 36 22C36 23.2872 35.0347 25 33.1154 25H26.7474C25.5221 25 24.5039 24.2681 24.0178 23.2875C22.4626 20.15 19.2305 18 15.5 18C10.2533 18 6 22.2533 6 27.5ZM8.36327 36.5182C5.70511 34.4118 4 31.155 4 27.5C4 21.1487 9.14873 16 15.5 16C20.0194 16 23.93 18.607 25.8098 22.3993C25.9878 22.7585 26.3465 23 26.7474 23H33.1154C33.6273 23 34 22.5119 34 22C34 19.7909 35.7909 18 38 18C40.2091 18 42 19.7909 42 22C42 22.5119 42.3727 23 42.8846 23H49.2526C49.6535 23 50.0122 22.7585 50.1902 22.3993C52.07 18.607 55.9806 16 60.5 16C66.8513 16 72 21.1487 72 27.5C72 31.155 70.2949 34.4118 67.6367 36.5182C67.0293 36.9995 67.0293 38.0005 67.6367 38.4818C70.2949 40.5882 72 43.845 72 47.5C72 53.8513 66.8513 59 60.5 59C55.9806 59 52.07 56.393 50.1902 52.6007C50.0122 52.2415 49.6535 52 49.2526 52H26.7474C26.3465 52 25.9878 52.2415 25.8098 52.6007C23.93 56.393 20.0194 59 15.5 59C9.14873 59 4 53.8513 4 47.5C4 43.845 5.70511 40.5882 8.36327 38.4818C8.97072 38.0005 8.97072 36.9996 8.36327 36.5182Z" fill="white"/>
<path d="M39 22C39 22.5523 38.5523 23 38 23C37.4477 23 37 22.5523 37 22C37 21.4477 37.4477 21 38 21C38.5523 21 39 21.4477 39 22Z" fill="white"/>
</svg>
