<svg width="76" height="76" viewBox="0 0 76 76" fill="none" xmlns="http://www.w3.org/2000/svg">
<path fill-rule="evenodd" clip-rule="evenodd" d="M4 41L4 33L6 33L6 41L4 41Z" fill="white"/>
<path fill-rule="evenodd" clip-rule="evenodd" d="M69 41L69 33L71 33L71 41L69 41Z" fill="white"/>
<path fill-rule="evenodd" clip-rule="evenodd" d="M68.9989 40.5504C68.9773 41.0747 68.6133 41.9155 67.1766 42.9802C65.7311 44.0513 63.5119 45.1003 60.5898 46.0162C57.8604 46.8717 54.6156 47.581 51 48.0931V50.1125C62.7781 48.4852 70.9999 44.7935 70.9999 40.5C70.9999 39.7458 70.7462 39.0102 70.2641 38.3011L70.1689 39.634C70.1234 40.2712 69.5407 40.6422 68.9989 40.5504ZM25 50.2447C12.968 48.727 4.3945 45.0836 4.01318 40.7982L6.00039 40.5333C6.01473 41.0563 6.37081 41.9038 7.82329 42.9802C9.26871 44.0513 11.488 45.1003 14.41 46.0162C17.3888 46.9498 20.9815 47.7094 25 48.2284V50.2447ZM14.41 34.9838C11.7157 35.8283 9.61886 36.786 8.17527 37.7699L6.90466 36.2169C12.1338 32.5529 23.8657 30 37.4999 30C51.2168 30 63.0081 32.584 68.1895 36.2836L67.0906 36.894C66.8068 37.0517 66.6342 37.3222 66.5884 37.6129C65.156 36.6843 63.1407 35.7834 60.5898 34.9838C54.7694 33.1595 46.6055 32 37.4999 32C28.3944 32 20.2305 33.1595 14.41 34.9838Z" fill="white"/>
<path fill-rule="evenodd" clip-rule="evenodd" d="M69 33.5C69 34.0199 68.6603 34.8807 67.1766 35.9802C65.7312 37.0513 63.512 38.1003 60.5899 39.0162C57.8604 39.8717 54.6156 40.581 51 41.0931V43.1126C62.7781 41.4852 71 37.7935 71 33.5C71 27.701 56.0015 23 37.5 23C18.9985 23 4 27.701 4 33.5C4 37.914 12.6899 41.6919 25 43.2447V41.2284C20.9815 40.7094 17.3889 39.9498 14.4101 39.0162C11.488 38.1003 9.26878 37.0513 7.82336 35.9802C6.33966 34.8807 6 34.0199 6 33.5C6 32.9801 6.33966 32.1193 7.82336 31.0198C9.26878 29.9487 11.488 28.8997 14.4101 27.9838C20.2305 26.1595 28.3944 25 37.5 25C46.6056 25 54.7695 26.1595 60.5899 27.9838C63.512 28.8997 65.7312 29.9487 67.1766 31.0198C68.6603 32.1193 69 32.9801 69 33.5Z" fill="white"/>
<path fill-rule="evenodd" clip-rule="evenodd" d="M28.5 41H26.5C26.2239 41 26 41.2239 26 41.5V49.5C26 49.7761 26.2239 50 26.5 50H28.5C28.7761 50 29 49.7761 29 49.5V41.5C29 41.2239 28.7761 41 28.5 41ZM26.5 39C25.1193 39 24 40.1193 24 41.5V49.5C24 50.8807 25.1193 52 26.5 52H28.5C29.8807 52 31 50.8807 31 49.5V41.5C31 40.1193 29.8807 39 28.5 39H26.5Z" fill="white"/>
<path fill-rule="evenodd" clip-rule="evenodd" d="M49.5 41H47.5C47.2239 41 47 41.2239 47 41.5V49.5C47 49.7761 47.2239 50 47.5 50H49.5C49.7761 50 50 49.7761 50 49.5V41.5C50 41.2239 49.7761 41 49.5 41ZM47.5 39C46.1193 39 45 40.1193 45 41.5V49.5C45 50.8807 46.1193 52 47.5 52H49.5C50.8807 52 52 50.8807 52 49.5V41.5C52 40.1193 50.8807 39 49.5 39H47.5Z" fill="white"/>
</svg>
