<svg width="76" height="76" viewBox="0 0 76 76" fill="none" xmlns="http://www.w3.org/2000/svg">
<path fill-rule="evenodd" clip-rule="evenodd" d="M18 6H58C59.1046 6 60 6.89543 60 8V29H16V8C16 6.89543 16.8954 6 18 6ZM14 31V68C14 70.2091 15.7909 72 18 72H58C60.2091 72 62 70.2091 62 68V8C62 5.79086 60.2091 4 58 4H18C15.7909 4 14 5.79086 14 8V29H13C12.4477 29 12 29.4477 12 30C12 30.5523 12.4477 31 13 31H14ZM16 31H60V68C60 69.1046 59.1046 70 58 70H18C16.8954 70 16 69.1046 16 68V31Z" fill="white"/>
</svg>
