<svg width="76" height="76" viewBox="0 0 76 76" fill="none" xmlns="http://www.w3.org/2000/svg">
<path fill-rule="evenodd" clip-rule="evenodd" d="M55 29H21C17.6863 29 15 31.6863 15 35V63C15 66.3137 17.6863 69 21 69H55C58.3137 69 61 66.3137 61 63V35C61 31.6863 58.3137 29 55 29ZM21 27C16.5817 27 13 30.5817 13 35V63C13 67.4183 16.5817 71 21 71H55C59.4183 71 63 67.4183 63 63V35C63 30.5817 59.4183 27 55 27H21Z" fill="white"/>
<path fill-rule="evenodd" clip-rule="evenodd" d="M38 53C40.2091 53 42 51.2091 42 49C42 46.7909 40.2091 45 38 45C35.7909 45 34 46.7909 34 49C34 51.2091 35.7909 53 38 53ZM38 55C41.3137 55 44 52.3137 44 49C44 45.6863 41.3137 43 38 43C34.6863 43 32 45.6863 32 49C32 52.3137 34.6863 55 38 55Z" fill="white"/>
<path fill-rule="evenodd" clip-rule="evenodd" d="M37 6H39C45.6274 6 51 11.3726 51 18V27H29H25H23V29H25H51H53V27V18C53 10.268 46.732 4 39 4H37C29.268 4 23 10.268 23 18V19H25V18C25 11.3726 30.3726 6 37 6Z" fill="white"/>
</svg>
