<svg width="76" height="76" viewBox="0 0 76 76" fill="none" xmlns="http://www.w3.org/2000/svg">
<path fill-rule="evenodd" clip-rule="evenodd" d="M38 70C49.598 70 59 60.598 59 49C59 37.402 49.598 28 38 28C26.402 28 17 37.402 17 49C17 60.598 26.402 70 38 70ZM38 72C50.7025 72 61 61.7025 61 49C61 36.2975 50.7025 26 38 26C25.2975 26 15 36.2975 15 49C15 61.7025 25.2975 72 38 72Z" fill="white"/>
<path fill-rule="evenodd" clip-rule="evenodd" d="M7 4L22.7564 34.137C23.2509 33.6617 23.7675 33.2093 24.3046 32.7816C28.0626 29.7886 32.8224 28 38 28C39.0201 28 40.0241 28.0694 41.0073 28.2038C41.8625 28.3207 42.7021 28.4868 43.5231 28.699L30.6098 4H7ZM10.3025 6L23.3623 30.9793C27.4127 27.8581 32.4909 26 38 26C38.6371 26 39.2686 26.0249 39.8936 26.0737L29.3986 6H10.3025Z" fill="white"/>
<path fill-rule="evenodd" clip-rule="evenodd" d="M43.5232 28.6991C46.5487 29.4814 49.3219 30.8912 51.6953 32.7816C52.2324 33.2094 52.7491 33.6617 53.2435 34.137L54.2054 32.2972L67.9543 6L68.9999 4H66.7431H45.3902L38 18.1351L39.1284 20.2934L46.6014 6H65.6974L52.6376 30.9793C49.67 28.6925 46.1507 27.0837 42.3143 26.387L43.5232 28.6991Z" fill="white"/>
<path fill-rule="evenodd" clip-rule="evenodd" d="M38 42.4722L36.9834 45.6008C36.5818 46.8369 35.43 47.6738 34.1303 47.6738H30.8406L33.502 49.6074C34.5535 50.3713 34.9934 51.7254 34.5918 52.9615L33.5752 56.0902L36.2367 54.1566C37.2881 53.3926 38.7119 53.3926 39.7634 54.1566L42.4248 56.0902L41.4082 52.9615C41.0066 51.7254 41.4466 50.3713 42.498 49.6074L45.1594 47.6738H41.8698C40.5701 47.6738 39.4182 46.8369 39.0166 45.6008L38 42.4722ZM38.9511 38.9271C38.6517 38.0058 37.3483 38.0058 37.049 38.9271L35.0813 44.9828C34.9475 45.3948 34.5635 45.6738 34.1303 45.6738H27.7629C26.7942 45.6738 26.3914 46.9134 27.1751 47.4828L32.3264 51.2254C32.6769 51.4801 32.8236 51.9315 32.6897 52.3435L30.7221 58.3992C30.4227 59.3205 31.4772 60.0866 32.2609 59.5172L37.4122 55.7746C37.7627 55.5199 38.2373 55.5199 38.5878 55.7746L43.7391 59.5172C44.5228 60.0866 45.5773 59.3205 45.2779 58.3992L43.3103 52.3435C43.1764 51.9315 43.3231 51.4801 43.6736 51.2254L48.8249 47.4828C49.6086 46.9134 49.2058 45.6738 48.2371 45.6738H41.8698C41.4365 45.6738 41.0526 45.3948 40.9187 44.9828L38.9511 38.9271Z" fill="white"/>
</svg>
