<svg width="76" height="76" viewBox="0 0 76 76" fill="none" xmlns="http://www.w3.org/2000/svg">
<path fill-rule="evenodd" clip-rule="evenodd" d="M52.2321 5.82309C52.5082 5.34479 53.1198 5.18092 53.5981 5.45706L55.3301 6.45706C55.8084 6.7332 55.9723 7.34479 55.6962 7.82309L55.1962 8.68911C56.1527 9.2414 56.4805 10.4646 55.9282 11.4212L55.1782 12.7202L56.9103 13.7202C57.8668 14.2725 58.1946 15.4957 57.6423 16.4523L50.3923 29.0096C50.1162 29.4879 49.5046 29.6518 49.0263 29.3756C48.548 29.0995 48.3841 28.4879 48.6603 28.0096L55.9103 15.4523L54.1782 14.4523L46.9282 27.0096L45.9282 28.7417L44.1962 27.7417L40.7321 25.7417L39 24.7417L40 23.0096L49 7.42116C49.5523 6.46458 50.7755 6.13683 51.7321 6.68911L52.2321 5.82309ZM50.7321 8.42116L54.1962 10.4212L45.1962 26.0096L41.7321 24.0096L50.7321 8.42116ZM42.6962 30.3397L39.2321 28.3397L21.7321 58.6506L25.1962 60.6506L42.6962 30.3397ZM40.2321 26.6077L38.5 25.6077L37.5 27.3397L20 57.6506L19 59.3827L20.7321 60.3827L24.1962 62.3827L25.9282 63.3827L26.9282 61.6506L44.4282 31.3397L45.4282 29.6077L43.6962 28.6077L40.2321 26.6077ZM18.5 60.2487L20.3498 61.3167L23.5784 63.1807L25.4282 64.2487L23.7787 65.6058L22.1292 66.9628L17.799 64.4628L18.1495 62.3558L18.5 60.2487ZM17.7321 65.5788L17.4641 70.0429L21.1962 67.5788L17.7321 65.5788Z" fill="white"/>
</svg>
